<?xml version="1.0" encoding="UTF-8"?><!DOCTYPE svg PUBLIC '-//W3C//DTD SVG 1.0//EN'
        'http://www.w3.org/TR/2001/REC-SVG-20010904/DTD/svg10.dtd'><!--suppress ALL -->
<svg fill-opacity="1" xmlns:xlink="http://www.w3.org/1999/xlink" color-rendering="auto" color-interpolation="auto" text-rendering="auto" stroke="black" stroke-linecap="square" width="1160" stroke-miterlimit="10" shape-rendering="auto" stroke-opacity="1" fill="black" stroke-dasharray="none" font-weight="normal" stroke-width="1" viewBox="310 340 1160 160" height="160" xmlns="http://www.w3.org/2000/svg" font-family="'Dialog'" font-style="normal" stroke-linejoin="miter" font-size="12px" stroke-dashoffset="0" image-rendering="auto"><!--Generated by the Batik Graphics2D SVG Generator-->
    <defs id="genericDefs"/>
    <g>
        <defs id="defs1">
            <clipPath clipPathUnits="userSpaceOnUse" id="clipPath1">
                <path d="M0 0 L2147483647 0 L2147483647 2147483647 L0 2147483647 L0 0 Z"/>
            </clipPath>
            <clipPath clipPathUnits="userSpaceOnUse" id="clipPath2">
                <path d="M0 0 L0 120 L810 120 L810 0 Z"/>
            </clipPath>
            <clipPath clipPathUnits="userSpaceOnUse" id="clipPath3">
                <path d="M0 0 L0 70 L130 70 L130 0 Z"/>
            </clipPath>
            <clipPath clipPathUnits="userSpaceOnUse" id="clipPath4">
                <path d="M0 0 L0 30 L100 30 L100 0 Z"/>
            </clipPath>
            <clipPath clipPathUnits="userSpaceOnUse" id="clipPath5">
                <path d="M0 0 L0 20 L20 20 L20 0 Z"/>
            </clipPath>
            <clipPath clipPathUnits="userSpaceOnUse" id="clipPath6">
                <path d="M0 0 L0 30 L90 30 L90 0 Z"/>
            </clipPath>
            <clipPath clipPathUnits="userSpaceOnUse" id="clipPath7">
                <path d="M0 0 L0 30 L110 30 L110 0 Z"/>
            </clipPath>
        </defs>
        <g fill="white" transform="translate(330,360)" stroke="white">
            <rect x="0.5" width="808.5" height="118.5" y="0.5" clip-path="url(#clipPath2)" stroke="none"/>
            <rect fill="none" x="0.5" width="808.5" height="118.5" y="0.5" clip-path="url(#clipPath2)"/>
        </g>
        <g font-family="sans-serif" font-size="14px" transform="translate(940,400)">
            <text x="5" xml:space="preserve" y="18.1094" clip-path="url(#clipPath3)" stroke="none"
      >Trades</text
      >
            <text x="5" xml:space="preserve" y="34.2188" clip-path="url(#clipPath3)" stroke="none">Positions</text>
            <text x="5" xml:space="preserve" y="50.3281" clip-path="url(#clipPath3)" stroke="none">Assets</text>
            <text x="5" xml:space="preserve" y="66.4375" clip-path="url(#clipPath3)" stroke="none">Series</text>
        </g>
        <g fill="rgb(255,255,255)" fill-opacity="0" transform="translate(940,370)" stroke-opacity="0" stroke="rgb(255,255,255)">
            <rect x="0.5" y="0.5" clip-path="url(#clipPath4)" width="98.5" rx="6" ry="6" height="28.5" stroke="none"/>
        </g>
        <g transform="translate(940,370)">
            <rect x="0.5" y="0.5" clip-path="url(#clipPath4)" fill="none" width="98.5" rx="6" ry="6" height="28.5"/>
            <text x="32" font-size="14px" y="20.0547" clip-path="url(#clipPath4)" font-family="sans-serif" stroke="none" xml:space="preserve">Save</text>
        </g>
        <g fill="rgb(255,255,255)" fill-opacity="0" transform="translate(780,370)" stroke-opacity="0" stroke="rgb(255,255,255)">
            <rect x="0.5" y="0.5" clip-path="url(#clipPath4)" width="98.5" rx="6" ry="6" height="28.5" stroke="none"/>
        </g>
        <g transform="translate(780,370)">
            <rect x="0.5" y="0.5" clip-path="url(#clipPath4)" fill="none" width="98.5" rx="6" ry="6" height="28.5"/>
            <text x="25" font-size="14px" y="20.0547" clip-path="url(#clipPath4)" font-family="sans-serif" stroke="none" xml:space="preserve">Logout</text>
        </g>
        <g fill="rgb(255,255,255)" fill-opacity="0" transform="translate(600,370)" stroke-opacity="0" stroke="rgb(255,255,255)">
            <rect x="0.5" y="0.5" clip-path="url(#clipPath4)" width="98.5" rx="6" ry="6" height="28.5" stroke="none"/>
        </g>
        <g transform="translate(600,370)">
            <rect x="0.5" y="0.5" clip-path="url(#clipPath4)" fill="none" width="98.5" rx="6" ry="6" height="28.5"/>
            <text x="34" font-size="14px" y="20.0547" clip-path="url(#clipPath4)" font-family="sans-serif" stroke="none" xml:space="preserve">Wait</text>
        </g>
        <g fill="rgb(255,255,255)" fill-opacity="0" transform="translate(420,370)" stroke-opacity="0" stroke="rgb(255,255,255)">
            <rect x="0.5" y="0.5" clip-path="url(#clipPath4)" width="98.5" rx="6" ry="6" height="28.5" stroke="none"/>
        </g>
        <g transform="translate(420,370)">
            <rect x="0.5" y="0.5" clip-path="url(#clipPath4)" fill="none" width="98.5" rx="6" ry="6" height="28.5"/>
            <text x="9" font-size="14px" y="20.0547" clip-path="url(#clipPath4)" font-family="sans-serif" stroke="none" xml:space="preserve">Cancel Jobs</text>
        </g>
        <g fill="rgb(255,255,255)" fill-opacity="0" transform="translate(1110,370)" stroke-opacity="0" stroke="rgb(255,255,255)">
            <circle r="9.25" clip-path="url(#clipPath5)" cx="9.75" cy="9.75" stroke="none"/>
        </g>
        <g transform="translate(1110,370)">
            <circle fill="none" r="9.25" clip-path="url(#clipPath5)" cx="9.75" cy="9.75"/>
            <circle r="6.2273" clip-path="url(#clipPath5)" cx="10" cy="10" stroke="none"/>
        </g>
        <g fill="rgb(255,255,255)" fill-opacity="0" transform="translate(1110,370)" stroke-opacity="0" stroke="rgb(255,255,255)">
            <circle fill="none" r="6.2273" clip-path="url(#clipPath5)" cx="10" cy="10"/>
        </g>
        <g transform="translate(340,370)">
            <circle r="8.75" clip-path="url(#clipPath5)" cx="10.25" cy="10.25" stroke="none"/>
            <circle fill="none" r="8.75" clip-path="url(#clipPath5)" cx="10.25" cy="10.25"/>
        </g>
        <g fill="red" transform="translate(870,370)" stroke="red">
            <path fill="none" d="M70.5 10.5 L10.5 10.5" clip-path="url(#clipPath6)"/>
            <path fill="none" d="M59.2417 4 L70.5 10.5 L59.2417 17" clip-path="url(#clipPath6)"/>
        </g>
        <g fill="red" transform="translate(1030,370)" stroke="red">
            <path fill="none" d="M80.5 10.5 L10.5 10.5" clip-path="url(#clipPath4)"/>
            <path fill="none" d="M69.2417 4 L80.5 10.5 L69.2417 17" clip-path="url(#clipPath4)"/>
        </g>
        <g fill="red" transform="translate(690,370)" stroke="red">
            <path fill="none" d="M90.5 10.5 L10.5 10.5" clip-path="url(#clipPath7)"/>
            <path fill="none" d="M79.2417 4 L90.5 10.5 L79.2417 17" clip-path="url(#clipPath7)"/>
        </g>
        <g fill="red" transform="translate(510,370)" stroke="red">
            <path fill="none" d="M90.5 10.5 L10.5 10.5" clip-path="url(#clipPath7)"/>
            <path fill="none" d="M79.2417 4 L90.5 10.5 L79.2417 17" clip-path="url(#clipPath7)"/>
        </g>
        <g fill="red" transform="translate(350,370)" stroke="red">
            <path fill="none" d="M70.5 10.5 L10.5 10.5" clip-path="url(#clipPath6)"/>
            <path fill="none" d="M59.2417 4 L70.5 10.5 L59.2417 17" clip-path="url(#clipPath6)"/>
        </g>
    </g>
</svg>
