<?xml version="1.0" encoding="UTF-8"?><!DOCTYPE svg PUBLIC '-//W3C//DTD SVG 1.0//EN'
        'http://www.w3.org/TR/2001/REC-SVG-20010904/DTD/svg10.dtd'><!--suppress ALL -->
<svg fill-opacity="1" xmlns:xlink="http://www.w3.org/1999/xlink" color-rendering="auto" color-interpolation="auto" text-rendering="auto" stroke="black" stroke-linecap="square" width="1150" stroke-miterlimit="10" shape-rendering="auto" stroke-opacity="1" fill="black" stroke-dasharray="none" font-weight="normal" stroke-width="1" viewBox="270 -20 1150 650" height="650" xmlns="http://www.w3.org/2000/svg" font-family="'Dialog'" font-style="normal" stroke-linejoin="miter" font-size="12px" stroke-dashoffset="0" image-rendering="auto"><!--Generated by the Batik Graphics2D SVG Generator-->
    <defs id="genericDefs"/>
    <g>
        <defs id="defs1">
            <clipPath clipPathUnits="userSpaceOnUse" id="clipPath1">
                <path d="M0 0 L2147483647 0 L2147483647 2147483647 L0 2147483647 L0 0 Z"/>
            </clipPath>
            <clipPath clipPathUnits="userSpaceOnUse" id="clipPath2">
                <path d="M0 0 L0 450 L860 450 L860 0 Z"/>
            </clipPath>
            <clipPath clipPathUnits="userSpaceOnUse" id="clipPath3">
                <path d="M0 0 L0 140 L200 140 L200 0 Z"/>
            </clipPath>
            <clipPath clipPathUnits="userSpaceOnUse" id="clipPath4">
                <path d="M0 0 L0 130 L220 130 L220 0 Z"/>
            </clipPath>
            <clipPath clipPathUnits="userSpaceOnUse" id="clipPath5">
                <path d="M0 0 L0 30 L60 30 L60 0 Z"/>
            </clipPath>
            <clipPath clipPathUnits="userSpaceOnUse" id="clipPath6">
                <path d="M0 0 L0 30 L40 30 L40 0 Z"/>
            </clipPath>
            <clipPath clipPathUnits="userSpaceOnUse" id="clipPath7">
                <path d="M0 0 L0 60 L100 60 L100 0 Z"/>
            </clipPath>
            <clipPath clipPathUnits="userSpaceOnUse" id="clipPath8">
                <path d="M0 0 L0 220 L290 220 L290 0 Z"/>
            </clipPath>
            <clipPath clipPathUnits="userSpaceOnUse" id="clipPath9">
                <path d="M0 0 L0 30 L100 30 L100 0 Z"/>
            </clipPath>
            <clipPath clipPathUnits="userSpaceOnUse" id="clipPath10">
                <path d="M0 0 L0 30 L150 30 L150 0 Z"/>
            </clipPath>
            <clipPath clipPathUnits="userSpaceOnUse" id="clipPath11">
                <path d="M0 0 L0 30 L90 30 L90 0 Z"/>
            </clipPath>
            <clipPath clipPathUnits="userSpaceOnUse" id="clipPath12">
                <path d="M0 0 L0 30 L140 30 L140 0 Z"/>
            </clipPath>
            <clipPath clipPathUnits="userSpaceOnUse" id="clipPath13">
                <path d="M0 0 L0 20 L20 20 L20 0 Z"/>
            </clipPath>
            <clipPath clipPathUnits="userSpaceOnUse" id="clipPath14">
                <path d="M0 0 L0 220 L200 220 L200 0 Z"/>
            </clipPath>
            <clipPath clipPathUnits="userSpaceOnUse" id="clipPath15">
                <path d="M0 0 L0 60 L80 60 L80 0 Z"/>
            </clipPath>
            <clipPath clipPathUnits="userSpaceOnUse" id="clipPath16">
                <path d="M0 0 L0 30 L230 30 L230 0 Z"/>
            </clipPath>
            <clipPath clipPathUnits="userSpaceOnUse" id="clipPath17">
                <path d="M0 0 L0 30 L180 30 L180 0 Z"/>
            </clipPath>
            <clipPath clipPathUnits="userSpaceOnUse" id="clipPath18">
                <path d="M0 0 L0 30 L240 30 L240 0 Z"/>
            </clipPath>
            <clipPath clipPathUnits="userSpaceOnUse" id="clipPath19">
                <path d="M0 0 L0 30 L190 30 L190 0 Z"/>
            </clipPath>
            <clipPath clipPathUnits="userSpaceOnUse" id="clipPath20">
                <path d="M0 0 L0 170 L30 170 L30 0 Z"/>
            </clipPath>
            <clipPath clipPathUnits="userSpaceOnUse" id="clipPath21">
                <path d="M0 0 L0 60 L30 60 L30 0 Z"/>
            </clipPath>
            <clipPath clipPathUnits="userSpaceOnUse" id="clipPath22">
                <path d="M0 0 L0 80 L30 80 L30 0 Z"/>
            </clipPath>
            <clipPath clipPathUnits="userSpaceOnUse" id="clipPath23">
                <path d="M0 0 L0 30 L110 30 L110 0 Z"/>
            </clipPath>
        </defs>
        <g fill="white" transform="translate(330,160)" stroke="white">
            <rect x="0.5" width="858.5" height="448.5" y="0.5" clip-path="url(#clipPath2)" stroke="none"/>
            <rect fill="none" x="0.5" width="858.5" height="448.5" y="0.5" clip-path="url(#clipPath2)"/>
        </g>
        <g fill="rgb(238,238,238)" fill-opacity="0.4902" transform="translate(440,450)" stroke-opacity="0.4902" stroke="rgb(238,238,238)">
            <path d="M0.5 0.5 L80.5 0.5 L80.5 21.6094 L199 21.6094 L199 139 L0.5 139 L0.5 0.5" stroke="none" clip-path="url(#clipPath3)"/>
        </g>
        <g transform="translate(440,450)">
            <path fill="none" d="M0.5 0.5 L80.5 0.5 L80.5 21.6094 L199 21.6094 L199 139 L0.5 139 L0.5 0.5" clip-path="url(#clipPath3)"/>
            <path fill="none" d="M0.5 21.6094 L80.5 21.6094" clip-path="url(#clipPath3)"/>
            <text x="5" font-size="14px" y="16.1094" clip-path="url(#clipPath3)" font-family="sans-serif" stroke="none" xml:space="preserve">flow.tw</text>
        </g>
        <g fill="rgb(238,238,238)" fill-opacity="0.4902" transform="translate(730,460)" stroke-opacity="0.4902" stroke="rgb(238,238,238)">
            <path d="M0.5 0.5 L88.5 0.5 L88.5 21.6094 L219 21.6094 L219 129 L0.5 129 L0.5 0.5" stroke="none" clip-path="url(#clipPath4)"/>
        </g>
        <g transform="translate(730,460)">
            <path fill="none" d="M0.5 0.5 L88.5 0.5 L88.5 21.6094 L219 21.6094 L219 129 L0.5 129 L0.5 0.5" clip-path="url(#clipPath4)"/>
            <path fill="none" d="M0.5 21.6094 L88.5 21.6094" clip-path="url(#clipPath4)"/>
            <text x="5" font-size="14px" y="16.1094" clip-path="url(#clipPath4)" font-family="sans-serif" stroke="none" xml:space="preserve">navi.tw</text>
        </g>
        <g font-family="sans-serif" font-size="14px" transform="translate(800,540)">
            <text x="5" xml:space="preserve" y="18.1094" clip-path="url(#clipPath5)" stroke="none"
      >wait</text
    >
        </g>
        <g font-family="sans-serif" font-size="14px" transform="translate(790,310)">
            <text x="5" xml:space="preserve" y="18.1094" clip-path="url(#clipPath5)" stroke="none"
      >wait</text
    >
        </g>
        <g font-family="sans-serif" font-size="14px" transform="translate(1020,320)">
            <text x="5" xml:space="preserve" y="18.1094" clip-path="url(#clipPath6)" stroke="none"
      >10</text
    >
        </g>
        <g font-family="sans-serif" font-size="14px" transform="translate(840,550)">
            <text x="5" xml:space="preserve" y="18.1094" clip-path="url(#clipPath6)" stroke="none"
      >9.1</text
    >
        </g>
        <g font-family="sans-serif" font-size="14px" transform="translate(840,410)">
            <text x="5" xml:space="preserve" y="18.1094" clip-path="url(#clipPath6)" stroke="none"
      >9.2</text
    >
        </g>
        <g font-family="sans-serif" font-size="14px" transform="translate(790,280)">
            <text x="5" xml:space="preserve" y="18.1094" clip-path="url(#clipPath6)" stroke="none"
      >5.1</text
    >
        </g>
        <g font-family="sans-serif" font-size="14px" transform="translate(790,410)">
            <text x="5" xml:space="preserve" y="18.1094" clip-path="url(#clipPath5)" stroke="none"
      >notify</text
    >
        </g>
        <g font-family="sans-serif" font-size="14px" transform="translate(1030,490)">
            <text x="5" xml:space="preserve" y="18.1094" clip-path="url(#clipPath6)" stroke="none"
      >8</text
    >
        </g>
        <g font-family="sans-serif" font-size="14px" transform="translate(660,490)">
            <text x="5" xml:space="preserve" y="18.1094" clip-path="url(#clipPath6)" stroke="none"
      >7</text
    >
        </g>
        <g font-family="sans-serif" font-size="14px" transform="translate(510,410)">
            <text x="5" xml:space="preserve" y="18.1094" clip-path="url(#clipPath6)" stroke="none"
      >6</text
    >
        </g>
        <g font-family="sans-serif" font-size="14px" transform="translate(750,410)">
            <text x="5" xml:space="preserve" y="18.1094" clip-path="url(#clipPath6)" stroke="none"
      >5.2</text
    >
        </g>
        <g font-family="sans-serif" font-size="14px" transform="translate(650,320)">
            <text x="5" xml:space="preserve" y="18.1094" clip-path="url(#clipPath6)" stroke="none"
      >4</text
    >
        </g>
        <g font-family="sans-serif" font-size="14px" transform="translate(520,310)">
            <text x="5" xml:space="preserve" y="18.1094" clip-path="url(#clipPath6)" stroke="none"
      >3</text
    >
        </g>
        <g font-family="sans-serif" font-size="14px" transform="translate(520,250)">
            <text x="5" xml:space="preserve" y="18.1094" clip-path="url(#clipPath6)" stroke="none"
      >2</text
    >
        </g>
        <g font-family="sans-serif" font-size="14px" transform="translate(380,200)">
            <text x="5" xml:space="preserve" y="18.1094" clip-path="url(#clipPath6)" stroke="none"
      >1</text
    >
        </g>
        <g fill="rgb(255,255,255)" fill-opacity="0" transform="translate(1070,340)" stroke-opacity="0" stroke="rgb(255,255,255)">
            <path d="M0.5 0.5 L88.5 0.5 L99 12.5 L99 59 L0.5 59 L0.5 0.5" stroke="none" clip-path="url(#clipPath7)"/>
        </g>
        <g transform="translate(1070,340)">
            <path fill="none" d="M0.5 0.5 L88.5 0.5 L99 12.5 L99 59 L0.5 59 L0.5 0.5" clip-path="url(#clipPath7)"/>
            <path fill="none" d="M88.5 0.5 L88.5 12.5 L99 12.5" clip-path="url(#clipPath7)"/>
            <text x="5" font-size="14px" y="18.1094" clip-path="url(#clipPath7)" font-family="sans-serif" stroke="none" xml:space="preserve">Web</text>
            <text x="5" font-size="14px" y="50.3281" clip-path="url(#clipPath7)" font-family="sans-serif" stroke="none" xml:space="preserve">Broker</text>
        </g>
        <g fill="rgb(255,255,255)" fill-opacity="0" transform="translate(1070,500)" stroke-opacity="0" stroke="rgb(255,255,255)">
            <path d="M0.5 0.5 L88.5 0.5 L99 12.5 L99 59 L0.5 59 L0.5 0.5" stroke="none" clip-path="url(#clipPath7)"/>
        </g>
        <g transform="translate(1070,500)">
            <path fill="none" d="M0.5 0.5 L88.5 0.5 L99 12.5 L99 59 L0.5 59 L0.5 0.5" clip-path="url(#clipPath7)"/>
            <path fill="none" d="M88.5 0.5 L88.5 12.5 L99 12.5" clip-path="url(#clipPath7)"/>
            <text x="5" font-size="14px" y="18.1094" clip-path="url(#clipPath7)" font-family="sans-serif" stroke="none" xml:space="preserve">Web</text>
            <text x="5" font-size="14px" y="50.3281" clip-path="url(#clipPath7)" font-family="sans-serif" stroke="none" xml:space="preserve">Data</text>
        </g>
        <g fill="rgb(255,255,255)" fill-opacity="0" transform="translate(730,180)" stroke-opacity="0" stroke="rgb(255,255,255)">
            <path d="M0.5 0.5 L116.5 0.5 L116.5 21.6094 L289 21.6094 L289 219 L0.5 219 L0.5 0.5" stroke="none" clip-path="url(#clipPath8)"/>
        </g>
        <g transform="translate(730,180)">
            <path fill="none" d="M0.5 0.5 L116.5 0.5 L116.5 21.6094 L289 21.6094 L289 219 L0.5 219 L0.5 0.5" clip-path="url(#clipPath8)"/>
            <path fill="none" d="M0.5 21.6094 L116.5 21.6094" clip-path="url(#clipPath8)"/>
            <text x="5" font-size="14px" y="16.1094" clip-path="url(#clipPath8)" font-family="sans-serif" stroke="none" xml:space="preserve">navi.sq</text>
        </g>
        <g fill="rgb(255,255,255)" fill-opacity="0" transform="translate(890,260)" stroke-opacity="0" stroke="rgb(255,255,255)">
            <rect x="0.5" y="0.5" clip-path="url(#clipPath9)" width="98.5" rx="6" ry="6" height="28.5" stroke="none"/>
        </g>
        <g transform="translate(890,260)">
            <rect x="0.5" y="0.5" clip-path="url(#clipPath9)" fill="none" width="98.5" rx="6" ry="6" height="28.5"/>
            <text x="26" font-size="14px" y="20.0547" clip-path="url(#clipPath9)" font-family="sans-serif" stroke="none" xml:space="preserve">Cancel</text>
        </g>
        <g fill="rgb(255,255,255)" fill-opacity="0" transform="translate(770,340)" stroke-opacity="0" stroke="rgb(255,255,255)">
            <rect x="0.5" y="0.5" clip-path="url(#clipPath10)" width="148.5" rx="6" ry="6" height="28.5" stroke="none"/>
        </g>
        <g transform="translate(770,340)">
            <rect x="0.5" y="0.5" clip-path="url(#clipPath10)" fill="none" width="148.5" rx="6" ry="6" height="28.5"/>
            <text x="6" font-size="14px" y="20.0547" clip-path="url(#clipPath10)" font-family="sans-serif" stroke="none" xml:space="preserve">Try To Place Orders</text>
        </g>
        <g fill="rgb(204,204,204)" fill-opacity="0.4902" transform="translate(770,510)" stroke-opacity="0.4902" stroke="rgb(204,204,204)">
            <rect x="0.5" y="0.5" clip-path="url(#clipPath11)" width="88.5" rx="6" ry="6" height="28.5" stroke="none"/>
        </g>
        <g transform="translate(770,510)">
            <rect x="0.5" y="0.5" clip-path="url(#clipPath11)" fill="none" width="88.5" rx="6" ry="6" height="28.5"/>
            <text x="12" font-size="14px" y="20.0547" clip-path="url(#clipPath11)" font-family="sans-serif" stroke="none" xml:space="preserve">Fetch TW</text>
        </g>
        <g fill="rgb(204,204,204)" fill-opacity="0.4902" transform="translate(470,280)" stroke-opacity="0.4902" stroke="rgb(204,204,204)">
            <rect x="0.5" y="0.5" clip-path="url(#clipPath12)" width="138.5" rx="6" ry="6" height="28.5" stroke="none"/>
        </g>
        <g transform="translate(470,280)">
            <rect x="0.5" y="0.5" clip-path="url(#clipPath12)" fill="none" width="138.5" rx="6" ry="6" height="28.5"/>
            <text x="7" font-size="14px" y="20.0547" clip-path="url(#clipPath12)" font-family="sans-serif" stroke="none" xml:space="preserve">Observe Positions</text>
        </g>
        <g fill="rgb(204,204,204)" fill-opacity="0.4902" transform="translate(470,220)" stroke-opacity="0.4902" stroke="rgb(204,204,204)">
            <rect x="0.5" y="0.5" clip-path="url(#clipPath9)" width="98.5" rx="6" ry="6" height="28.5" stroke="none"/>
        </g>
        <g transform="translate(470,220)">
            <rect x="0.5" y="0.5" clip-path="url(#clipPath9)" fill="none" width="98.5" rx="6" ry="6" height="28.5"/>
            <text x="3" font-size="14px" y="20.0547" clip-path="url(#clipPath9)" font-family="sans-serif" stroke="none" xml:space="preserve">Sync Options</text>
        </g>
        <g fill="rgb(255,255,255)" fill-opacity="0" transform="translate(1070,260)" stroke-opacity="0" stroke="rgb(255,255,255)">
            <circle r="9.25" clip-path="url(#clipPath13)" cx="9.75" cy="9.75" stroke="none"/>
        </g>
        <g transform="translate(1070,260)">
            <circle fill="none" r="9.25" clip-path="url(#clipPath13)" cx="9.75" cy="9.75"/>
            <circle r="6.2273" clip-path="url(#clipPath13)" cx="10" cy="10" stroke="none"/>
        </g>
        <g fill="rgb(255,255,255)" fill-opacity="0" transform="translate(1070,260)" stroke-opacity="0" stroke="rgb(255,255,255)">
            <circle fill="none" r="6.2273" clip-path="url(#clipPath13)" cx="10" cy="10"/>
        </g>
        <g fill="rgb(204,204,204)" fill-opacity="0.4902" transform="translate(470,510)" stroke-opacity="0.4902" stroke="rgb(204,204,204)">
            <rect x="0.5" y="0.5" clip-path="url(#clipPath12)" width="138.5" rx="6" ry="6" height="28.5" stroke="none"/>
        </g>
        <g transform="translate(470,510)">
            <rect x="0.5" y="0.5" clip-path="url(#clipPath12)" fill="none" width="138.5" rx="6" ry="6" height="28.5"/>
            <text x="27" font-size="14px" y="20.0547" clip-path="url(#clipPath12)" font-family="sans-serif" stroke="none" xml:space="preserve">Observe TW</text>
        </g>
        <g fill="rgb(255,255,255)" fill-opacity="0" transform="translate(470,340)" stroke-opacity="0" stroke="rgb(255,255,255)">
            <rect x="0.5" y="0.5" clip-path="url(#clipPath9)" width="98.5" rx="6" ry="6" height="28.5" stroke="none"/>
        </g>
        <g transform="translate(470,340)">
            <rect x="0.5" y="0.5" clip-path="url(#clipPath9)" fill="none" width="98.5" rx="6" ry="6" height="28.5"/>
            <text x="24" font-size="14px" y="20.0547" clip-path="url(#clipPath9)" font-family="sans-serif" stroke="none" xml:space="preserve">Launch</text>
        </g>
        <g transform="translate(340,220)">
            <circle r="8.75" clip-path="url(#clipPath13)" cx="10.25" cy="10.25" stroke="none"/>
            <circle fill="none" r="8.75" clip-path="url(#clipPath13)" cx="10.25" cy="10.25"/>
        </g>
        <g fill="rgb(255,255,255)" fill-opacity="0" transform="translate(440,180)" stroke-opacity="0" stroke="rgb(255,255,255)">
            <path d="M0.5 0.5 L80.5 0.5 L80.5 21.6094 L199 21.6094 L199 219 L0.5 219 L0.5 0.5" stroke="none" clip-path="url(#clipPath14)"/>
        </g>
        <g transform="translate(440,180)">
            <path fill="none" d="M0.5 0.5 L80.5 0.5 L80.5 21.6094 L199 21.6094 L199 219 L0.5 219 L0.5 0.5" clip-path="url(#clipPath14)"/>
            <path fill="none" d="M0.5 21.6094 L80.5 21.6094" clip-path="url(#clipPath14)"/>
            <text x="5" font-size="14px" y="16.1094" clip-path="url(#clipPath14)" font-family="sans-serif" stroke="none" xml:space="preserve">flow.sq</text>
        </g>
        <g fill="blue" transform="translate(780,300)" stroke="blue">
            <path fill="none" d="M60.5 40.5 L60.5 10.5" clip-path="url(#clipPath15)"/>
            <path fill="none" d="M60.5 10.5 L10.5 10.5" clip-path="url(#clipPath15)"/>
            <path fill="none" d="M10.5 10.5 L10.5 40.5" clip-path="url(#clipPath15)"/>
            <path fill="none" d="M67 29.2417 L60.5 40.5 L54 29.2417" clip-path="url(#clipPath15)"/>
        </g>
        <g fill="red" transform="translate(560,340)" stroke="red">
            <path fill="none" d="M210.5 10.5 L10.5 10.5" clip-path="url(#clipPath16)"/>
            <path fill="none" d="M199.2417 4 L210.5 10.5 L199.2417 17" clip-path="url(#clipPath16)"/>
        </g>
        <g stroke-dasharray="8,5" stroke-miterlimit="5" transform="translate(910,340)" stroke-linecap="butt">
            <path fill="none" d="M10.5 10.5 L160.5 10.5" clip-path="url(#clipPath17)"/>
            <path fill="none" stroke-miterlimit="10" stroke-dasharray="none" d="M149.2417 17 L160.5 10.5 L149.2417 4" clip-path="url(#clipPath17)" stroke-linecap="square"/>
        </g>
        <g stroke-dasharray="8,5" stroke-miterlimit="5" transform="translate(850,510)" stroke-linecap="butt">
            <path fill="none" d="M220.5 10.5 L10.5 10.5" clip-path="url(#clipPath18)"/>
            <path fill="none" stroke-miterlimit="10" stroke-dasharray="none" d="M21.7583 4 L10.5 10.5 L21.7583 17" clip-path="url(#clipPath18)" stroke-linecap="square"/>
        </g>
        <g fill="blue" transform="translate(780,530)" stroke="blue">
            <path fill="none" d="M10.5 10.5 L10.5 40.5" clip-path="url(#clipPath15)"/>
            <path fill="none" d="M10.5 40.5 L60.5 40.5" clip-path="url(#clipPath15)"/>
            <path fill="none" d="M60.5 40.5 L60.5 10.5" clip-path="url(#clipPath15)"/>
            <path fill="none" d="M4 21.7583 L10.5 10.5 L17 21.7583" clip-path="url(#clipPath15)"/>
        </g>
        <g fill="red" transform="translate(600,510)" stroke="red">
            <path fill="none" d="M170.5 10.5 L10.5 10.5" clip-path="url(#clipPath19)"/>
            <path fill="none" d="M159.2417 4 L170.5 10.5 L159.2417 17" clip-path="url(#clipPath19)"/>
        </g>
        <g fill="red" transform="translate(500,360)" stroke="red">
            <path fill="none" d="M10.5 150.5 L10.5 10.5" clip-path="url(#clipPath20)"/>
            <path fill="none" d="M17 139.2417 L10.5 150.5 L4 139.2417" clip-path="url(#clipPath20)"/>
        </g>
        <g fill="red" transform="translate(500,300)" stroke="red">
            <path fill="none" d="M10.5 40.5 L10.5 10.5" clip-path="url(#clipPath21)"/>
            <path fill="none" d="M17 29.2417 L10.5 40.5 L4 29.2417" clip-path="url(#clipPath21)"/>
        </g>
        <g fill="red" transform="translate(500,240)" stroke="red">
            <path fill="none" d="M10.5 40.5 L10.5 10.5" clip-path="url(#clipPath21)"/>
            <path fill="none" d="M17 29.2417 L10.5 40.5 L4 29.2417" clip-path="url(#clipPath21)"/>
        </g>
        <g fill="red" transform="translate(890,280)" stroke="red">
            <path fill="none" d="M10.5 10.5 L10.5 60.5" clip-path="url(#clipPath22)"/>
            <path fill="none" d="M4 21.7583 L10.5 10.5 L17 21.7583" clip-path="url(#clipPath22)"/>
        </g>
        <g fill="blue" stroke-miterlimit="5" stroke-dasharray="8,5" transform="translate(830,360)" stroke-linecap="butt" stroke="blue">
            <path fill="none" d="M10.5 10.5 L10.5 150.5" clip-path="url(#clipPath20)"/>
            <path fill="none" stroke-miterlimit="10" stroke-dasharray="none" d="M4 21.7583 L10.5 10.5 L17 21.7583" clip-path="url(#clipPath20)" stroke-linecap="square"/>
        </g>
        <g fill="blue" stroke-miterlimit="5" stroke-dasharray="8,5" transform="translate(780,360)" stroke-linecap="butt" stroke="blue">
            <path fill="none" d="M10.5 150.5 L10.5 10.5" clip-path="url(#clipPath20)"/>
            <path fill="none" stroke-miterlimit="10" stroke-dasharray="none" d="M17 139.2417 L10.5 150.5 L4 139.2417" clip-path="url(#clipPath20)" stroke-linecap="square"/>
        </g>
        <g fill="red" transform="translate(980,260)" stroke="red">
            <path fill="none" d="M90.5 10.5 L10.5 10.5" clip-path="url(#clipPath23)"/>
            <path fill="none" d="M79.2417 4 L90.5 10.5 L79.2417 17" clip-path="url(#clipPath23)"/>
        </g>
        <g fill="red" transform="translate(350,220)" stroke="red">
            <path fill="none" d="M120.5 10.5 L10.5 10.5" clip-path="url(#clipPath12)"/>
            <path fill="none" d="M109.2417 4 L120.5 10.5 L109.2417 17" clip-path="url(#clipPath12)"/>
        </g>
    </g>
</svg>
