<?xml version="1.0" encoding="UTF-8"?><!DOCTYPE svg PUBLIC '-//W3C//DTD SVG 1.0//EN'
        'http://www.w3.org/TR/2001/REC-SVG-20010904/DTD/svg10.dtd'>
<svg fill-opacity="1" color-rendering="auto" color-interpolation="auto" text-rendering="auto" stroke="black" stroke-linecap="square" width="500" stroke-miterlimit="10" shape-rendering="auto" stroke-opacity="1" fill="black" stroke-dasharray="none" font-weight="normal" stroke-width="1" viewBox="170 180 500 420" height="420" xmlns="http://www.w3.org/2000/svg" font-family="'Dialog'" font-style="normal" stroke-linejoin="miter" font-size="12px" stroke-dashoffset="0" image-rendering="auto"><!--Generated by the Batik Graphics2D SVG Generator-->
    <defs id="genericDefs"/>
    <g>
        <defs id="defs1">
            <clipPath clipPathUnits="userSpaceOnUse" id="clipPath1">
                <path d="M0 0 L2147483647 0 L2147483647 2147483647 L0 2147483647 L0 0 Z"/>
            </clipPath>
            <clipPath clipPathUnits="userSpaceOnUse" id="clipPath2">
                <path d="M0 0 L0 380 L460 380 L460 0 Z"/>
            </clipPath>
            <clipPath clipPathUnits="userSpaceOnUse" id="clipPath3">
                <path d="M0 0 L0 30 L100 30 L100 0 Z"/>
            </clipPath>
            <clipPath clipPathUnits="userSpaceOnUse" id="clipPath4">
                <path d="M0 0 L0 30 L90 30 L90 0 Z"/>
            </clipPath>
            <clipPath clipPathUnits="userSpaceOnUse" id="clipPath5">
                <path d="M0 0 L0 30 L110 30 L110 0 Z"/>
            </clipPath>
            <clipPath clipPathUnits="userSpaceOnUse" id="clipPath6">
                <path d="M0 0 L0 30 L170 30 L170 0 Z"/>
            </clipPath>
            <clipPath clipPathUnits="userSpaceOnUse" id="clipPath7">
                <path d="M0 0 L0 80 L190 80 L190 0 Z"/>
            </clipPath>
            <clipPath clipPathUnits="userSpaceOnUse" id="clipPath8">
                <path d="M0 0 L0 140 L100 140 L100 0 Z"/>
            </clipPath>
            <clipPath clipPathUnits="userSpaceOnUse" id="clipPath9">
                <path d="M0 0 L0 150 L140 150 L140 0 Z"/>
            </clipPath>
            <clipPath clipPathUnits="userSpaceOnUse" id="clipPath10">
                <path d="M0 0 L0 150 L120 150 L120 0 Z"/>
            </clipPath>
            <clipPath clipPathUnits="userSpaceOnUse" id="clipPath11">
                <path d="M0 0 L0 90 L90 90 L90 0 Z"/>
            </clipPath>
            <clipPath clipPathUnits="userSpaceOnUse" id="clipPath12">
                <path d="M0 0 L0 110 L100 110 L100 0 Z"/>
            </clipPath>
        </defs>
        <g fill="white" transform="translate(190,200)" stroke="white">
            <rect x="0.5" width="458.5" height="378.5" y="0.5" clip-path="url(#clipPath2)" stroke="none"/>
            <rect fill="none" x="0.5" width="458.5" height="378.5" y="0.5" clip-path="url(#clipPath2)"/>
        </g>
        <g fill="rgb(187,187,187)" fill-opacity="0.4902" transform="translate(420,300)" stroke-opacity="0.4902" stroke="rgb(187,187,187)">
            <rect x="0.5" width="98.5" height="28.5" y="0.5" clip-path="url(#clipPath3)" stroke="none"/>
        </g>
        <g transform="translate(420,300)">
            <rect fill="none" x="0.5" width="98.5" height="28.5" y="0.5" clip-path="url(#clipPath3)"/>
            <text x="5" font-size="14px" y="18.1094" clip-path="url(#clipPath3)" font-family="sans-serif" stroke="none" xml:space="preserve">TmpCsv</text>
        </g>
        <g fill="rgb(187,187,187)" fill-opacity="0.4902" transform="translate(550,430)" stroke-opacity="0.4902" stroke="rgb(187,187,187)">
            <rect x="0.5" width="88.5" height="28.5" y="0.5" clip-path="url(#clipPath4)" stroke="none"/>
        </g>
        <g transform="translate(550,430)">
            <rect fill="none" x="0.5" width="88.5" height="28.5" y="0.5" clip-path="url(#clipPath4)"/>
            <text x="5" font-size="14px" y="18.1094" clip-path="url(#clipPath4)" font-family="sans-serif" stroke="none" xml:space="preserve">StoreCsv</text>
        </g>
        <g fill="rgb(187,187,187)" fill-opacity="0.4902" transform="translate(280,430)" stroke-opacity="0.4902" stroke="rgb(187,187,187)">
            <rect x="0.5" width="108.5" height="28.5" y="0.5" clip-path="url(#clipPath5)" stroke="none"/>
        </g>
        <g transform="translate(280,430)">
            <rect fill="none" x="0.5" width="108.5" height="28.5" y="0.5" clip-path="url(#clipPath5)"/>
            <text x="5" font-size="14px" y="18.1094" clip-path="url(#clipPath5)" font-family="sans-serif" stroke="none" xml:space="preserve">Series(s)</text>
        </g>
        <g fill="rgb(187,187,187)" fill-opacity="0.4902" transform="translate(280,540)" stroke-opacity="0.4902" stroke="rgb(187,187,187)">
            <rect x="0.5" width="108.5" height="28.5" y="0.5" clip-path="url(#clipPath5)" stroke="none"/>
        </g>
        <g transform="translate(280,540)">
            <rect fill="none" x="0.5" width="108.5" height="28.5" y="0.5" clip-path="url(#clipPath5)"/>
            <text x="5" font-size="14px" y="18.1094" clip-path="url(#clipPath5)" font-family="sans-serif" stroke="none" xml:space="preserve">H2</text>
        </g>
        <g fill="rgb(255,255,255)" fill-opacity="0" transform="translate(200,210)" stroke-opacity="0" stroke="rgb(255,255,255)">
            <rect x="0.5" width="168.5" height="28.5" y="0.5" clip-path="url(#clipPath6)" stroke="none"/>
        </g>
        <g transform="translate(200,210)">
            <rect fill="none" x="0.5" width="168.5" height="28.5" y="0.5" clip-path="url(#clipPath6)"/>
            <text x="5" font-size="14px" y="18.1094" clip-path="url(#clipPath6)" font-family="sans-serif" stroke="none" xml:space="preserve">SnapShot Lifecycle</text>
        </g>
        <g fill="rgb(187,187,187)" fill-opacity="0.4902" transform="translate(420,210)" stroke-opacity="0.4902" stroke="rgb(187,187,187)">
            <rect x="0.5" width="98.5" height="28.5" y="0.5" clip-path="url(#clipPath3)" stroke="none"/>
        </g>
        <g transform="translate(420,210)">
            <rect fill="none" x="0.5" width="98.5" height="28.5" y="0.5" clip-path="url(#clipPath3)"/>
            <text x="5" font-size="14px" y="18.1094" clip-path="url(#clipPath3)" font-family="sans-serif" stroke="none" xml:space="preserve">Web</text>
        </g>
        <g fill="blue" transform="translate(380,420)" stroke="blue">
            <path fill="none" d="M10.5 20.5 L170.5 20.5" clip-path="url(#clipPath7)"/>
            <path fill="none" d="M21.7583 27 L10.5 20.5 L21.7583 14" clip-path="url(#clipPath7)"/>
            <text x="69.1396" font-size="14px" y="16" clip-path="url(#clipPath7)" font-family="sans-serif" stroke="none" xml:space="preserve">get all</text>
            <text x="85.6172" font-size="14px" y="32.1094" clip-path="url(#clipPath7)" font-family="sans-serif" stroke="none" xml:space="preserve">+</text>
            <text x="68.2485" font-size="14px" y="48.2188" clip-path="url(#clipPath7)" font-family="sans-serif" stroke="none" xml:space="preserve">merge</text>
            <text x="77.6318" font-size="14px" y="64.3281" clip-path="url(#clipPath7)" font-family="sans-serif" stroke="none" xml:space="preserve">into</text>
        </g>
        <g fill="blue" transform="translate(200,430)" stroke="blue">
            <path fill="none" d="M80.5 10.5 L10.5 10.5" clip-path="url(#clipPath8)"/>
            <path fill="none" d="M10.5 10.5 L10.5 120.5" clip-path="url(#clipPath8)"/>
            <path fill="none" d="M10.5 120.5 L80.5 120.5" clip-path="url(#clipPath8)"/>
            <path fill="none" d="M69.2417 4 L80.5 10.5 L69.2417 17" clip-path="url(#clipPath8)"/>
            <text x="14" font-size="14px" y="48.8906" clip-path="url(#clipPath8)" font-family="sans-serif" stroke="none" xml:space="preserve">get all</text>
            <text x="14" font-size="14px" y="65" clip-path="url(#clipPath8)" font-family="sans-serif" stroke="none" xml:space="preserve">+</text>
            <text x="14" font-size="14px" y="81.1094" clip-path="url(#clipPath8)" font-family="sans-serif" stroke="none" xml:space="preserve">merge</text>
            <text x="14" font-size="14px" y="97.2188" clip-path="url(#clipPath8)" font-family="sans-serif" stroke="none" xml:space="preserve">into</text>
        </g>
        <g fill="red" transform="translate(300,300)" stroke="red">
            <path fill="none" d="M10.5 130.5 L10.5 10.5" clip-path="url(#clipPath9)"/>
            <path fill="none" d="M10.5 10.5 L120.5 10.5" clip-path="url(#clipPath9)"/>
            <path fill="none" d="M17 119.2417 L10.5 130.5 L4 119.2417" clip-path="url(#clipPath9)"/>
            <text x="14" font-size="14px" y="53.8906" clip-path="url(#clipPath9)" font-family="sans-serif" stroke="none" xml:space="preserve">read</text>
            <text x="14" font-size="14px" y="70" clip-path="url(#clipPath9)" font-family="sans-serif" stroke="none" xml:space="preserve">+</text>
            <text x="14" font-size="14px" y="86.1094" clip-path="url(#clipPath9)" font-family="sans-serif" stroke="none" xml:space="preserve">merge</text>
            <text x="14" font-size="14px" y="102.2188" clip-path="url(#clipPath9)" font-family="sans-serif" stroke="none" xml:space="preserve">into</text>
        </g>
        <g fill="red" transform="translate(510,300)" stroke="red">
            <path fill="none" d="M60.5 130.5 L60.5 10.5" clip-path="url(#clipPath10)"/>
            <path fill="none" d="M60.5 10.5 L10.5 10.5" clip-path="url(#clipPath10)"/>
            <path fill="none" d="M67 119.2417 L60.5 130.5 L54 119.2417" clip-path="url(#clipPath10)"/>
            <text x="64" font-size="14px" y="53.8906" clip-path="url(#clipPath10)" font-family="sans-serif" stroke="none" xml:space="preserve">read</text>
            <text x="64" font-size="14px" y="70" clip-path="url(#clipPath10)" font-family="sans-serif" stroke="none" xml:space="preserve">+</text>
            <text x="64" font-size="14px" y="86.1094" clip-path="url(#clipPath10)" font-family="sans-serif" stroke="none" xml:space="preserve">merge</text>
            <text x="64" font-size="14px" y="102.2188" clip-path="url(#clipPath10)" font-family="sans-serif" stroke="none" xml:space="preserve">into</text>
        </g>
        <g fill="red" transform="translate(460,230)" stroke="red">
            <path fill="none" d="M10.5 70.5 L10.5 10.5" clip-path="url(#clipPath11)"/>
            <path fill="none" d="M17 59.2417 L10.5 70.5 L4 59.2417" clip-path="url(#clipPath11)"/>
            <text x="14" font-size="14px" y="48.0547" clip-path="url(#clipPath11)" font-family="sans-serif" stroke="none" xml:space="preserve">download</text>
        </g>
        <g fill="red" transform="translate(300,450)" stroke="red">
            <path fill="none" d="M10.5 90.5 L10.5 10.5" clip-path="url(#clipPath12)"/>
            <path fill="none" d="M17 79.2417 L10.5 90.5 L4 79.2417" clip-path="url(#clipPath12)"/>
            <text x="14" font-size="14px" y="50" clip-path="url(#clipPath12)" font-family="sans-serif" stroke="none" xml:space="preserve">persist</text>
            <text x="14" font-size="14px" y="66.1094" clip-path="url(#clipPath12)" font-family="sans-serif" stroke="none" xml:space="preserve">touched to</text>
        </g>
    </g>
</svg>
