<?xml version="1.0" encoding="UTF-8"?><!DOCTYPE svg PUBLIC '-//W3C//DTD SVG 1.0//EN'
        'http://www.w3.org/TR/2001/REC-SVG-20010904/DTD/svg10.dtd'>
<svg fill-opacity="1" color-rendering="auto" color-interpolation="auto" text-rendering="auto" stroke="black" stroke-linecap="square" width="660" stroke-miterlimit="10" shape-rendering="auto" stroke-opacity="1" fill="black" stroke-dasharray="none" font-weight="normal" stroke-width="1" viewBox="310 200 660 450" height="450" xmlns="http://www.w3.org/2000/svg" font-family="'Dialog'" font-style="normal" stroke-linejoin="miter" font-size="12px" stroke-dashoffset="0" image-rendering="auto"><!--Generated by the Batik Graphics2D SVG Generator-->
    <defs id="genericDefs"/>
    <g>
        <defs id="defs1">
            <clipPath clipPathUnits="userSpaceOnUse" id="clipPath1">
                <path d="M0 0 L2147483647 0 L2147483647 2147483647 L0 2147483647 L0 0 Z"/>
            </clipPath>
            <clipPath clipPathUnits="userSpaceOnUse" id="clipPath2">
                <path d="M0 0 L0 410 L620 410 L620 0 Z"/>
            </clipPath>
            <clipPath clipPathUnits="userSpaceOnUse" id="clipPath3">
                <path d="M0 0 L0 50 L110 50 L110 0 Z"/>
            </clipPath>
            <clipPath clipPathUnits="userSpaceOnUse" id="clipPath4">
                <path d="M0 0 L0 50 L150 50 L150 0 Z"/>
            </clipPath>
            <clipPath clipPathUnits="userSpaceOnUse" id="clipPath5">
                <path d="M0 0 L0 30 L80 30 L80 0 Z"/>
            </clipPath>
            <clipPath clipPathUnits="userSpaceOnUse" id="clipPath6">
                <path d="M0 0 L0 30 L60 30 L60 0 Z"/>
            </clipPath>
            <clipPath clipPathUnits="userSpaceOnUse" id="clipPath7">
                <path d="M0 0 L0 40 L80 40 L80 0 Z"/>
            </clipPath>
            <clipPath clipPathUnits="userSpaceOnUse" id="clipPath8">
                <path d="M0 0 L0 40 L150 40 L150 0 Z"/>
            </clipPath>
            <clipPath clipPathUnits="userSpaceOnUse" id="clipPath9">
                <path d="M0 0 L0 50 L120 50 L120 0 Z"/>
            </clipPath>
            <clipPath clipPathUnits="userSpaceOnUse" id="clipPath10">
                <path d="M0 0 L0 170 L100 170 L100 0 Z"/>
            </clipPath>
            <clipPath clipPathUnits="userSpaceOnUse" id="clipPath11">
                <path d="M0 0 L0 160 L100 160 L100 0 Z"/>
            </clipPath>
            <clipPath clipPathUnits="userSpaceOnUse" id="clipPath12">
                <path d="M0 0 L0 130 L100 130 L100 0 Z"/>
            </clipPath>
            <clipPath clipPathUnits="userSpaceOnUse" id="clipPath13">
                <path d="M0 0 L0 170 L190 170 L190 0 Z"/>
            </clipPath>
            <clipPath clipPathUnits="userSpaceOnUse" id="clipPath14">
                <path d="M0 0 L0 30 L190 30 L190 0 Z"/>
            </clipPath>
            <clipPath clipPathUnits="userSpaceOnUse" id="clipPath15">
                <path d="M0 0 L0 50 L70 50 L70 0 Z"/>
            </clipPath>
            <clipPath clipPathUnits="userSpaceOnUse" id="clipPath16">
                <path d="M0 0 L0 140 L60 140 L60 0 Z"/>
            </clipPath>
            <clipPath clipPathUnits="userSpaceOnUse" id="clipPath17">
                <path d="M0 0 L0 300 L80 300 L80 0 Z"/>
            </clipPath>
            <clipPath clipPathUnits="userSpaceOnUse" id="clipPath18">
                <path d="M0 0 L0 180 L110 180 L110 0 Z"/>
            </clipPath>
        </defs>
        <g fill="white" transform="translate(330,220)" stroke="white">
            <rect x="0.5" width="618.5" height="408.5" y="0.5" clip-path="url(#clipPath2)" stroke="none"/>
            <rect fill="none" x="0.5" width="618.5" height="408.5" y="0.5" clip-path="url(#clipPath2)"/>
        </g>
        <g font-family="sans-serif" font-size="14px" transform="translate(660,230)">
            <text x="5" xml:space="preserve" y="18.1094" clip-path="url(#clipPath3)" stroke="none">put into</text>
            <text x="5" xml:space="preserve" y="34.2188" clip-path="url(#clipPath3)" stroke="none">TradeService</text>
        </g>
        <g fill="rgb(220,100,180)" font-size="14px" font-family="sans-serif" transform="translate(710,500)" stroke="rgb(220,100,180)">
            <text x="5" xml:space="preserve" y="18.1094" clip-path="url(#clipPath4)" stroke="none">RESUBMIT</text>
            <text x="5" xml:space="preserve" y="34.2188" clip-path="url(#clipPath4)" stroke="none">(with lower limit)</text>
        </g>
        <g fill="rgb(220,100,180)" font-size="14px" font-family="sans-serif" transform="translate(670,330)" stroke="rgb(220,100,180)">
            <text x="5" xml:space="preserve" y="18.1094" clip-path="url(#clipPath5)" stroke="none">CANCEL</text>
        </g>
        <g fill="rgb(220,100,180)" font-size="14px" font-family="sans-serif" transform="translate(620,590)" stroke="rgb(220,100,180)">
            <text x="5" xml:space="preserve" y="18.1094" clip-path="url(#clipPath6)" stroke="none">SELL</text>
        </g>
        <g font-family="sans-serif" font-size="14px" transform="translate(390,340)">
            <text x="5" xml:space="preserve" y="18.1094" clip-path="url(#clipPath3)" stroke="none">submit the</text>
            <text x="5" xml:space="preserve" y="34.2188" clip-path="url(#clipPath3)" stroke="none">WEB form</text>
        </g>
        <g fill="rgb(255,255,255)" fill-opacity="0" transform="translate(350,430)" stroke-opacity="0" stroke="rgb(255,255,255)">
            <rect x="0.5" y="0.5" clip-path="url(#clipPath7)" width="78.5" rx="8" ry="8" height="38.5" stroke="none"/>
        </g>
        <g transform="translate(350,430)">
            <rect x="0.5" y="0.5" clip-path="url(#clipPath7)" fill="none" width="78.5" rx="8" ry="8" height="38.5"/>
            <text x="21" font-size="14px" y="25.0547" clip-path="url(#clipPath7)" font-family="sans-serif" stroke="none" xml:space="preserve">NULL</text>
        </g>
        <g fill="rgb(255,255,255)" fill-opacity="0" transform="translate(780,260)" stroke-opacity="0" stroke="rgb(255,255,255)">
            <rect x="0.5" y="0.5" clip-path="url(#clipPath8)" width="148.5" rx="8" ry="8" height="38.5" stroke="none"/>
        </g>
        <g transform="translate(780,260)">
            <rect x="0.5" y="0.5" clip-path="url(#clipPath8)" fill="none" width="148.5" rx="8" ry="8" height="38.5"/>
            <text x="10" font-size="14px" y="25.0547" clip-path="url(#clipPath8)" font-family="sans-serif" stroke="none" xml:space="preserve">CLOSE_EXECUTED</text>
        </g>
        <g fill="rgb(180,220,100)" fill-opacity="0.098" transform="translate(780,430)" stroke-opacity="0.098" stroke="rgb(180,220,100)">
            <rect x="0.5" y="0.5" clip-path="url(#clipPath8)" width="148.5" rx="8" ry="8" height="38.5" stroke="none"/>
        </g>
        <g transform="translate(780,430)">
            <rect x="0.5" y="0.5" clip-path="url(#clipPath8)" fill="none" width="148.5" rx="8" ry="8" height="38.5"/>
            <text x="16" font-size="14px" y="25.0547" clip-path="url(#clipPath8)" font-family="sans-serif" stroke="none" xml:space="preserve">CLOSE_PENDING</text>
        </g>
        <g fill="rgb(180,220,100)" fill-opacity="0.098" transform="translate(780,570)" stroke-opacity="0.098" stroke="rgb(180,220,100)">
            <rect x="0.5" y="0.5" clip-path="url(#clipPath8)" width="148.5" rx="8" ry="8" height="38.5" stroke="none"/>
        </g>
        <g transform="translate(780,570)">
            <rect x="0.5" y="0.5" clip-path="url(#clipPath8)" fill="none" width="148.5" rx="8" ry="8" height="38.5"/>
            <text x="22" font-size="14px" y="25.0547" clip-path="url(#clipPath8)" font-family="sans-serif" stroke="none" xml:space="preserve">CLOSE_ISSUED</text>
        </g>
        <g fill="rgb(180,220,100)" fill-opacity="0.4" transform="translate(470,570)" stroke-opacity="0.4" stroke="rgb(180,220,100)">
            <rect x="0.5" y="0.5" clip-path="url(#clipPath8)" width="148.5" rx="8" ry="8" height="38.5" stroke="none"/>
        </g>
        <g transform="translate(470,570)">
            <rect x="0.5" y="0.5" clip-path="url(#clipPath8)" fill="none" width="148.5" rx="8" ry="8" height="38.5"/>
            <text x="14" font-size="14px" y="25.0547" clip-path="url(#clipPath8)" font-family="sans-serif" stroke="none" xml:space="preserve">OPEN_EXECUTED</text>
        </g>
        <g fill="rgb(180,220,100)" fill-opacity="0.098" transform="translate(470,430)" stroke-opacity="0.098" stroke="rgb(180,220,100)">
            <rect x="0.5" y="0.5" clip-path="url(#clipPath8)" width="148.5" rx="8" ry="8" height="38.5" stroke="none"/>
        </g>
        <g transform="translate(470,430)">
            <rect x="0.5" y="0.5" clip-path="url(#clipPath8)" fill="none" width="148.5" rx="8" ry="8" height="38.5"/>
            <text x="20" font-size="14px" y="25.0547" clip-path="url(#clipPath8)" font-family="sans-serif" stroke="none" xml:space="preserve">OPEN_PENDING</text>
        </g>
        <g fill="rgb(180,220,100)" fill-opacity="0.098" transform="translate(470,260)" stroke-opacity="0.098" stroke="rgb(180,220,100)">
            <rect x="0.5" y="0.5" clip-path="url(#clipPath8)" width="148.5" rx="8" ry="8" height="38.5" stroke="none"/>
        </g>
        <g transform="translate(470,260)">
            <rect x="0.5" y="0.5" clip-path="url(#clipPath8)" fill="none" width="148.5" rx="8" ry="8" height="38.5"/>
            <text x="26" font-size="14px" y="25.0547" clip-path="url(#clipPath8)" font-family="sans-serif" stroke="none" xml:space="preserve">OPEN_ISSUED</text>
        </g>
        <g fill="rgb(220,100,180)" stroke-width="2" transform="translate(700,540)" stroke="rgb(220,100,180)">
            <path fill="none" d="M10.5 10.5 L100.5 10.5" clip-path="url(#clipPath9)"/>
            <path fill="none" d="M100.5 10.5 L100.5 30.5" clip-path="url(#clipPath9)"/>
        </g>
        <g fill="rgb(220,100,180)" stroke-width="2" transform="translate(700,440)" stroke="rgb(220,100,180)">
            <path fill="none" d="M10.5 150.5 L10.5 10.5" clip-path="url(#clipPath10)"/>
            <path fill="none" d="M10.5 10.5 L80.5 10.5" clip-path="url(#clipPath10)"/>
        </g>
        <g stroke-dasharray="8,5" stroke-miterlimit="5" transform="translate(840,290)" stroke-linecap="butt">
            <path fill="none" d="M10.5 10.5 L10.5 140.5" clip-path="url(#clipPath11)"/>
            <path fill="none" stroke-miterlimit="10" stroke-dasharray="none" d="M4 21.7583 L10.5 10.5 L17 21.7583" clip-path="url(#clipPath11)" stroke-linecap="square"/>
        </g>
        <g font-family="sans-serif" font-size="14px" transform="translate(840,290)">
            <text x="14" xml:space="preserve" y="66.9453" clip-path="url(#clipPath11)" stroke="none">observe in</text>
            <text x="14" xml:space="preserve" y="83.0547" clip-path="url(#clipPath11)" stroke="none">WEB</text>
            <text x="14" xml:space="preserve" y="99.1641" clip-path="url(#clipPath11)" stroke="none">dashboard</text>
        </g>
        <g stroke-dasharray="8,5" stroke-miterlimit="5" transform="translate(840,460)" stroke-linecap="butt">
            <path fill="none" d="M10.5 10.5 L10.5 110.5" clip-path="url(#clipPath12)"/>
            <path fill="none" stroke-miterlimit="10" stroke-dasharray="none" d="M4 21.7583 L10.5 10.5 L17 21.7583" clip-path="url(#clipPath12)" stroke-linecap="square"/>
        </g>
        <g font-family="sans-serif" font-size="14px" transform="translate(840,460)">
            <text x="14" xml:space="preserve" y="51.9453" clip-path="url(#clipPath12)" stroke="none">observe in</text>
            <text x="14" xml:space="preserve" y="68.0547" clip-path="url(#clipPath12)" stroke="none">WEB</text>
            <text x="14" xml:space="preserve" y="84.1641" clip-path="url(#clipPath12)" stroke="none">dashboard</text>
        </g>
        <g fill="rgb(220,100,180)" stroke-width="2" transform="translate(610,440)" stroke="rgb(220,100,180)">
            <path fill="none" d="M170.5 150.5 L60.5 150.5" clip-path="url(#clipPath13)"/>
            <path fill="none" d="M60.5 150.5 L60.5 10.5" clip-path="url(#clipPath13)"/>
            <path fill="none" d="M60.5 10.5 L10.5 10.5" clip-path="url(#clipPath13)"/>
            <path fill="none" d="M159.2417 144 L170.5 150.5 L159.2417 157" clip-path="url(#clipPath13)"/>
        </g>
        <g fill="rgb(220,100,180)" stroke-width="2" transform="translate(610,580)" stroke="rgb(220,100,180)">
            <path fill="none" d="M170.5 10.5 L10.5 10.5" clip-path="url(#clipPath14)"/>
            <path fill="none" d="M159.2417 4 L170.5 10.5 L159.2417 17" clip-path="url(#clipPath14)"/>
        </g>
        <g stroke-miterlimit="5" stroke-dasharray="1,2" stroke-width="3" transform="translate(610,240)" stroke-linecap="butt">
            <path fill="none" d="M50.5 10.5 L10.5 30.5" clip-path="url(#clipPath15)"/>
        </g>
        <g fill="rgb(180,220,100)" stroke-width="2" transform="translate(380,460)" stroke="rgb(180,220,100)">
            <path fill="none" d="M10.5 10.5 L10.5 120.5" clip-path="url(#clipPath16)"/>
            <path fill="none" d="M4 21.7583 L10.5 10.5 L17 21.7583" clip-path="url(#clipPath16)"/>
            <text x="14" font-size="14px" y="73.0547" clip-path="url(#clipPath16)" font-family="sans-serif" stroke="none" xml:space="preserve">BUY</text>
        </g>
        <g fill="rgb(220,100,180)" stroke-width="2" transform="translate(610,270)" stroke="rgb(220,100,180)">
            <path fill="none" d="M60.5 280.5 L60.5 10.5" clip-path="url(#clipPath17)"/>
            <path fill="none" d="M60.5 10.5 L10.5 10.5" clip-path="url(#clipPath17)"/>
        </g>
        <g stroke-dasharray="8,5" stroke-miterlimit="5" transform="translate(530,460)" stroke-linecap="butt">
            <path fill="none" d="M10.5 110.5 L10.5 10.5" clip-path="url(#clipPath12)"/>
            <path fill="none" stroke-miterlimit="10" stroke-dasharray="none" d="M17 99.2417 L10.5 110.5 L4 99.2417" clip-path="url(#clipPath12)" stroke-linecap="square"/>
        </g>
        <g font-family="sans-serif" font-size="14px" transform="translate(530,460)">
            <text x="14" xml:space="preserve" y="51.9453" clip-path="url(#clipPath12)" stroke="none">observe in</text>
            <text x="14" xml:space="preserve" y="68.0547" clip-path="url(#clipPath12)" stroke="none">WEB</text>
            <text x="14" xml:space="preserve" y="84.1641" clip-path="url(#clipPath12)" stroke="none">dashboard</text>
        </g>
        <g stroke-dasharray="8,5" stroke-miterlimit="5" transform="translate(530,290)" stroke-linecap="butt">
            <path fill="none" d="M10.5 140.5 L10.5 10.5" clip-path="url(#clipPath11)"/>
            <path fill="none" stroke-miterlimit="10" stroke-dasharray="none" d="M17 129.2417 L10.5 140.5 L4 129.2417" clip-path="url(#clipPath11)" stroke-linecap="square"/>
        </g>
        <g font-family="sans-serif" font-size="14px" transform="translate(530,290)">
            <text x="14" xml:space="preserve" y="66.9453" clip-path="url(#clipPath11)" stroke="none">observe in</text>
            <text x="14" xml:space="preserve" y="83.0547" clip-path="url(#clipPath11)" stroke="none">WEB</text>
            <text x="14" xml:space="preserve" y="99.1641" clip-path="url(#clipPath11)" stroke="none">dashboard</text>
        </g>
        <g stroke-dasharray="8,5" stroke-miterlimit="5" transform="translate(380,270)" stroke-linecap="butt">
            <path fill="none" d="M90.5 10.5 L10.5 10.5" clip-path="url(#clipPath18)"/>
            <path fill="none" d="M10.5 10.5 L10.5 160.5" clip-path="url(#clipPath18)"/>
            <path fill="none" stroke-miterlimit="10" stroke-dasharray="none" d="M79.2417 4 L90.5 10.5 L79.2417 17" clip-path="url(#clipPath18)" stroke-linecap="square"/>
        </g>
    </g>
</svg>
