<?xml version="1.0" encoding="UTF-8"?><!DOCTYPE svg PUBLIC '-//W3C//DTD SVG 1.0//EN'
        'http://www.w3.org/TR/2001/REC-SVG-20010904/DTD/svg10.dtd'>
<svg fill-opacity="1" color-rendering="auto" color-interpolation="auto" text-rendering="auto" stroke="black" stroke-linecap="square" width="800" stroke-miterlimit="10" shape-rendering="auto" stroke-opacity="1" fill="black" stroke-dasharray="none" font-weight="normal" stroke-width="1" viewBox="700 650 800 600" height="600" xmlns="http://www.w3.org/2000/svg" font-family="'Dialog'" font-style="normal" stroke-linejoin="miter" font-size="12px" stroke-dashoffset="0" image-rendering="auto"><!--Generated by the Batik Graphics2D SVG Generator-->
    <defs id="genericDefs"/>
    <g>
        <defs id="defs1">
            <clipPath clipPathUnits="userSpaceOnUse" id="clipPath1">
                <path d="M0 0 L2147483647 0 L2147483647 2147483647 L0 2147483647 L0 0 Z"/>
            </clipPath>
            <clipPath clipPathUnits="userSpaceOnUse" id="clipPath2">
                <path d="M0 0 L0 560 L760 560 L760 0 Z"/>
            </clipPath>
            <clipPath clipPathUnits="userSpaceOnUse" id="clipPath3">
                <path d="M0 0 L0 30 L120 30 L120 0 Z"/>
            </clipPath>
            <clipPath clipPathUnits="userSpaceOnUse" id="clipPath4">
                <path d="M0 0 L0 30 L270 30 L270 0 Z"/>
            </clipPath>
            <clipPath clipPathUnits="userSpaceOnUse" id="clipPath5">
                <path d="M0 0 L0 30 L210 30 L210 0 Z"/>
            </clipPath>
            <clipPath clipPathUnits="userSpaceOnUse" id="clipPath6">
                <path d="M0 0 L0 50 L90 50 L90 0 Z"/>
            </clipPath>
            <clipPath clipPathUnits="userSpaceOnUse" id="clipPath7">
                <path d="M0 0 L0 60 L90 60 L90 0 Z"/>
            </clipPath>
            <clipPath clipPathUnits="userSpaceOnUse" id="clipPath8">
                <path d="M0 0 L0 20 L20 20 L20 0 Z"/>
            </clipPath>
            <clipPath clipPathUnits="userSpaceOnUse" id="clipPath9">
                <path d="M0 0 L0 20 L130 20 L130 0 Z"/>
            </clipPath>
            <clipPath clipPathUnits="userSpaceOnUse" id="clipPath10">
                <path d="M0 0 L0 20 L140 20 L140 0 Z"/>
            </clipPath>
            <clipPath clipPathUnits="userSpaceOnUse" id="clipPath11">
                <path d="M0 0 L0 20 L50 20 L50 0 Z"/>
            </clipPath>
            <clipPath clipPathUnits="userSpaceOnUse" id="clipPath12">
                <path d="M0 0 L0 20 L100 20 L100 0 Z"/>
            </clipPath>
            <clipPath clipPathUnits="userSpaceOnUse" id="clipPath13">
                <path d="M0 0 L0 20 L180 20 L180 0 Z"/>
            </clipPath>
            <clipPath clipPathUnits="userSpaceOnUse" id="clipPath14">
                <path d="M0 0 L0 90 L200 90 L200 0 Z"/>
            </clipPath>
            <clipPath clipPathUnits="userSpaceOnUse" id="clipPath15">
                <path d="M0 0 L0 90 L290 90 L290 0 Z"/>
            </clipPath>
            <clipPath clipPathUnits="userSpaceOnUse" id="clipPath16">
                <path d="M0 0 L0 190 L80 190 L80 0 Z"/>
            </clipPath>
            <clipPath clipPathUnits="userSpaceOnUse" id="clipPath17">
                <path d="M0 0 L0 120 L90 120 L90 0 Z"/>
            </clipPath>
            <clipPath clipPathUnits="userSpaceOnUse" id="clipPath18">
                <path d="M0 0 L0 200 L30 200 L30 0 Z"/>
            </clipPath>
            <clipPath clipPathUnits="userSpaceOnUse" id="clipPath19">
                <path d="M0 0 L0 230 L30 230 L30 0 Z"/>
            </clipPath>
            <clipPath clipPathUnits="userSpaceOnUse" id="clipPath20">
                <path d="M0 0 L0 130 L30 130 L30 0 Z"/>
            </clipPath>
            <clipPath clipPathUnits="userSpaceOnUse" id="clipPath21">
                <path d="M0 0 L0 480 L710 480 L710 0 Z"/>
            </clipPath>
            <clipPath clipPathUnits="userSpaceOnUse" id="clipPath22">
                <path d="M0 0 L0 540 L750 540 L750 0 Z"/>
            </clipPath>
            <clipPath clipPathUnits="userSpaceOnUse" id="clipPath23">
                <path d="M0 0 L0 110 L150 110 L150 0 Z"/>
            </clipPath>
            <clipPath clipPathUnits="userSpaceOnUse" id="clipPath24">
                <path d="M0 0 L0 180 L150 180 L150 0 Z"/>
            </clipPath>
            <clipPath clipPathUnits="userSpaceOnUse" id="clipPath25">
                <path d="M0 0 L0 130 L410 130 L410 0 Z"/>
            </clipPath>
        </defs>
        <g fill="white" transform="translate(720,670)" stroke="white">
            <rect x="0.5" width="758.5" height="558.5" y="0.5" clip-path="url(#clipPath2)" stroke="none"/>
            <rect fill="none" x="0.5" width="758.5" height="558.5" y="0.5" clip-path="url(#clipPath2)"/>
        </g>
        <g stroke-miterlimit="5" stroke-dasharray="1,2" stroke-width="1.4" transform="translate(1010,790)" stroke-linecap="butt">
            <path fill="none" d="M100.5 10.5 L10.5 10.5" clip-path="url(#clipPath3)"/>
        </g>
        <g stroke-miterlimit="5" stroke-dasharray="1,2" stroke-width="1.4" transform="translate(890,880)" stroke-linecap="butt">
            <path fill="none" d="M250.5 10.5 L10.5 10.5" clip-path="url(#clipPath4)"/>
        </g>
        <g stroke-miterlimit="5" stroke-dasharray="1,2" stroke-width="1.4" transform="translate(920,980)" stroke-linecap="butt">
            <path fill="none" d="M190.5 10.5 L10.5 10.5" clip-path="url(#clipPath5)"/>
        </g>
        <g stroke-miterlimit="5" stroke-dasharray="1,2" stroke-width="1.4" transform="translate(1110,990)" stroke-linecap="butt">
            <path fill="none" d="M70.5 30.5 L40.5 30.5" clip-path="url(#clipPath6)"/>
            <path fill="none" d="M40.5 30.5 L10.5 10.5" clip-path="url(#clipPath6)"/>
        </g>
        <g stroke-miterlimit="5" stroke-dasharray="1,2" stroke-width="1.4" transform="translate(1110,940)" stroke-linecap="butt">
            <path fill="none" d="M70.5 10.5 L40.5 10.5" clip-path="url(#clipPath7)"/>
            <path fill="none" d="M40.5 10.5 L10.5 40.5" clip-path="url(#clipPath7)"/>
        </g>
        <g fill="white" transform="translate(1250,730)" stroke="white">
            <circle r="9.25" clip-path="url(#clipPath8)" cx="9.75" cy="9.75" stroke="none"/>
            <circle fill="none" r="9.25" clip-path="url(#clipPath8)" cx="9.75" cy="9.75" stroke="black"/>
        </g>
        <g font-size="14px" font-weight="bold" font-family="sans-serif" transform="translate(1250,730)">
            <text x="5" xml:space="preserve" y="15.0547" clip-path="url(#clipPath8)" stroke="none"
      >9</text
    >
        </g>
        <g fill="white" transform="translate(1230,900)" stroke="white">
            <circle r="9.25" clip-path="url(#clipPath8)" cx="9.75" cy="9.75" stroke="none"/>
            <circle fill="none" r="9.25" clip-path="url(#clipPath8)" cx="9.75" cy="9.75" stroke="black"/>
        </g>
        <g font-size="14px" font-weight="bold" font-family="sans-serif" transform="translate(1230,900)">
            <text x="5" xml:space="preserve" y="15.0547" clip-path="url(#clipPath8)" stroke="none"
      >8</text
    >
        </g>
        <g fill="white" transform="translate(1250,750)" stroke="white">
            <circle r="9.25" clip-path="url(#clipPath8)" cx="9.75" cy="9.75" stroke="none"/>
            <circle fill="none" r="9.25" clip-path="url(#clipPath8)" cx="9.75" cy="9.75" stroke="black"/>
        </g>
        <g font-size="14px" font-weight="bold" font-family="sans-serif" transform="translate(1250,750)">
            <text x="5" xml:space="preserve" y="15.0547" clip-path="url(#clipPath8)" stroke="none"
      >7</text
    >
        </g>
        <g fill="rgb(106,27,154)" fill-opacity="0.2" transform="translate(830,1190)" stroke-opacity="0.2" stroke="rgb(106,27,154)">
            <rect x="0.5" width="128.5" height="18.5" y="0.5" clip-path="url(#clipPath9)" stroke="none"/>
        </g>
        <g transform="translate(830,1190)">
            <rect fill="none" x="0.5" width="128.5" height="18.5" y="0.5" clip-path="url(#clipPath9)"/>
            <text x="5" font-size="14px" y="15.0547" clip-path="url(#clipPath9)" font-family="sans-serif" stroke="none" xml:space="preserve">LockKeeper</text>
        </g>
        <g fill="rgb(46,125,50)" fill-opacity="0.2" transform="translate(830,1150)" stroke-opacity="0.2" stroke="rgb(46,125,50)">
            <rect x="0.5" width="128.5" height="18.5" y="0.5" clip-path="url(#clipPath9)" stroke="none"/>
        </g>
        <g transform="translate(830,1150)">
            <rect fill="none" x="0.5" width="128.5" height="18.5" y="0.5" clip-path="url(#clipPath9)"/>
            <text x="5" font-size="14px" y="15.0547" clip-path="url(#clipPath9)" font-family="sans-serif" stroke="none" xml:space="preserve">Series</text>
        </g>
        <g fill="white" transform="translate(840,770)" stroke="white">
            <circle r="9.25" clip-path="url(#clipPath8)" cx="9.75" cy="9.75" stroke="none"/>
            <circle fill="none" r="9.25" clip-path="url(#clipPath8)" cx="9.75" cy="9.75" stroke="black"/>
        </g>
        <g font-size="14px" font-weight="bold" font-family="sans-serif" transform="translate(840,770)">
            <text x="-2" xml:space="preserve" y="15.0547" clip-path="url(#clipPath8)" stroke="none"
      >1.5</text
    >
        </g>
        <g fill="rgb(120,120,120)" fill-opacity="0.4902" transform="translate(1110,790)" stroke-opacity="0.4902" stroke="rgb(120,120,120)">
            <rect x="0.5" width="138.5" height="18.5" y="0.5" clip-path="url(#clipPath10)" stroke="none"/>
        </g>
        <g transform="translate(1110,790)">
            <rect fill="none" x="0.5" width="138.5" height="18.5" y="0.5" clip-path="url(#clipPath10)"/>
        </g>
        <g fill="white" transform="translate(1230,920)" stroke="white">
            <circle r="9.25" clip-path="url(#clipPath8)" cx="9.75" cy="9.75" stroke="none"/>
            <circle fill="none" r="9.25" clip-path="url(#clipPath8)" cx="9.75" cy="9.75" stroke="black"/>
        </g>
        <g font-size="14px" font-weight="bold" font-family="sans-serif" transform="translate(1230,920)">
            <text x="5" xml:space="preserve" y="15.0547" clip-path="url(#clipPath8)" stroke="none"
      >6</text
    >
        </g>
        <g fill="white" transform="translate(1250,790)" stroke="white">
            <rect x="0.5" width="138.5" height="18.5" y="0.5" clip-path="url(#clipPath10)" stroke="none"/>
            <rect x="0.5" y="0.5" clip-path="url(#clipPath10)" fill="none" width="138.5" height="18.5" stroke="black"/>
        </g>
        <g font-family="sans-serif" font-size="14px" transform="translate(1250,790)">
            <text x="5" xml:space="preserve" y="15.0547" clip-path="url(#clipPath10)" stroke="none"
      >.getLock().safeWait()</text
    >
        </g>
        <g fill="white" transform="translate(1030,960)" stroke="white">
            <circle r="9.25" clip-path="url(#clipPath8)" cx="9.75" cy="9.75" stroke="none"/>
            <circle fill="none" r="9.25" clip-path="url(#clipPath8)" cx="9.75" cy="9.75" stroke="black"/>
        </g>
        <g font-size="14px" font-weight="bold" font-family="sans-serif" transform="translate(1030,960)">
            <text x="5" xml:space="preserve" y="15.0547" clip-path="url(#clipPath8)" stroke="none"
      >5</text
    >
        </g>
        <g fill="white" transform="translate(1250,770)" stroke="white">
            <circle r="9.25" clip-path="url(#clipPath8)" cx="9.75" cy="9.75" stroke="none"/>
            <circle fill="none" r="9.25" clip-path="url(#clipPath8)" cx="9.75" cy="9.75" stroke="black"/>
        </g>
        <g font-size="14px" font-weight="bold" font-family="sans-serif" transform="translate(1250,770)">
            <text x="5" xml:space="preserve" y="15.0547" clip-path="url(#clipPath8)" stroke="none"
      >4</text
    >
        </g>
        <g fill="white" transform="translate(1110,770)" stroke="white">
            <circle r="9.25" clip-path="url(#clipPath8)" cx="9.75" cy="9.75" stroke="none"/>
            <circle fill="none" r="9.25" clip-path="url(#clipPath8)" cx="9.75" cy="9.75" stroke="black"/>
        </g>
        <g font-size="14px" font-weight="bold" font-family="sans-serif" transform="translate(1110,770)">
            <text x="-2" xml:space="preserve" y="15.0547" clip-path="url(#clipPath8)" stroke="none"
      >3.5</text
    >
        </g>
        <g fill="white" transform="translate(1180,990)" stroke="white">
            <circle r="9.25" clip-path="url(#clipPath8)" cx="9.75" cy="9.75" stroke="none"/>
            <circle fill="none" r="9.25" clip-path="url(#clipPath8)" cx="9.75" cy="9.75" stroke="black"/>
        </g>
        <g font-size="14px" font-weight="bold" font-family="sans-serif" transform="translate(1180,990)">
            <text x="5" xml:space="preserve" y="15.0547" clip-path="url(#clipPath8)" stroke="none"
      >3</text
    >
        </g>
        <g fill="white" transform="translate(1010,960)" stroke="white">
            <circle r="9.25" clip-path="url(#clipPath8)" cx="9.75" cy="9.75" stroke="none"/>
            <circle fill="none" r="9.25" clip-path="url(#clipPath8)" cx="9.75" cy="9.75" stroke="black"/>
        </g>
        <g font-size="14px" font-weight="bold" font-family="sans-serif" transform="translate(1010,960)">
            <text x="5" xml:space="preserve" y="15.0547" clip-path="url(#clipPath8)" stroke="none"
      >2</text
    >
        </g>
        <g fill="white" transform="translate(800,960)" stroke="white">
            <circle r="9.25" clip-path="url(#clipPath8)" cx="9.75" cy="9.75" stroke="none"/>
            <circle fill="none" r="9.25" clip-path="url(#clipPath8)" cx="9.75" cy="9.75" stroke="black"/>
        </g>
        <g font-size="14px" font-weight="bold" font-family="sans-serif" transform="translate(800,960)">
            <text x="5" xml:space="preserve" y="15.0547" clip-path="url(#clipPath8)" stroke="none"
      >1</text
    >
        </g>
        <g fill="white" transform="translate(1230,940)" stroke="white">
            <rect x="0.5" width="138.5" height="18.5" y="0.5" clip-path="url(#clipPath10)" stroke="none"/>
            <rect x="0.5" y="0.5" clip-path="url(#clipPath10)" fill="none" width="138.5" height="18.5" stroke="black"/>
        </g>
        <g font-family="sans-serif" font-size="14px" transform="translate(1230,940)">
            <text x="5" xml:space="preserve" y="15.0547" clip-path="url(#clipPath10)" stroke="none"
      >.getLock().safeWait()</text
    >
        </g>
        <g fill="rgb(120,120,120)" fill-opacity="0.4902" transform="translate(1180,940)" stroke-opacity="0.4902" stroke="rgb(120,120,120)">
            <rect x="0.5" width="48.5" height="18.5" y="0.5" clip-path="url(#clipPath11)" stroke="none"/>
        </g>
        <g transform="translate(1180,940)">
            <rect fill="none" x="0.5" width="48.5" height="18.5" y="0.5" clip-path="url(#clipPath11)"/>
        </g>
        <g fill="rgb(255,255,255)" fill-opacity="0" transform="translate(1110,980)" stroke-opacity="0" stroke="rgb(255,255,255)">
            <path d="M10.5 1.5 L19 10.5 L10.5 19 L1.5 10.5 L10.5 1.5" stroke="none" clip-path="url(#clipPath8)"/>
        </g>
        <g transform="translate(1110,980)">
            <path fill="none" d="M10.5 1.5 L19 10.5 L10.5 19 L1.5 10.5 L10.5 1.5" clip-path="url(#clipPath8)"/>
        </g>
        <g fill="white" transform="translate(1180,1010)" stroke="white">
            <rect x="0.5" width="138.5" height="18.5" y="0.5" clip-path="url(#clipPath10)" stroke="none"/>
            <rect x="0.5" y="0.5" clip-path="url(#clipPath10)" fill="none" width="138.5" height="18.5" stroke="black"/>
        </g>
        <g font-family="sans-serif" font-size="14px" transform="translate(1180,1010)">
            <text x="5" xml:space="preserve" y="15.0547" clip-path="url(#clipPath10)" stroke="none"
      >.getLock().safeWait()</text
    >
        </g>
        <g fill="white" transform="translate(1010,980)" stroke="white">
            <rect x="0.5" width="98.5" height="18.5" y="0.5" clip-path="url(#clipPath12)" stroke="none"/>
            <rect x="0.5" y="0.5" clip-path="url(#clipPath12)" fill="none" width="98.5" height="18.5" stroke="black"/>
        </g>
        <g font-family="sans-serif" font-size="14px" transform="translate(1010,980)">
            <text x="5" xml:space="preserve" y="15.0547" clip-path="url(#clipPath12)" stroke="none"
      >.shouldStart()</text
    >
        </g>
        <g fill="rgb(154,106,27)" fill-opacity="0.2" transform="translate(770,880)" stroke-opacity="0.2" stroke="rgb(154,106,27)">
            <rect x="0.5" width="128.5" height="18.5" y="0.5" clip-path="url(#clipPath9)" stroke="none"/>
        </g>
        <g transform="translate(770,880)">
            <rect fill="none" x="0.5" width="128.5" height="18.5" y="0.5" clip-path="url(#clipPath9)"/>
            <text x="5" font-size="14px" y="15.0547" clip-path="url(#clipPath9)" font-family="sans-serif" stroke="none" xml:space="preserve">JobKeeper</text>
        </g>
        <g fill="rgb(21,101,192)" fill-opacity="0.2" transform="translate(800,980)" stroke-opacity="0.2" stroke="rgb(21,101,192)">
            <rect x="0.5" width="128.5" height="18.5" y="0.5" clip-path="url(#clipPath9)" stroke="none"/>
        </g>
        <g transform="translate(800,980)">
            <rect fill="none" x="0.5" width="128.5" height="18.5" y="0.5" clip-path="url(#clipPath9)"/>
            <text x="5" font-size="14px" y="15.0547" clip-path="url(#clipPath9)" font-family="sans-serif" stroke="none" xml:space="preserve">TradeSqJob.run()</text>
        </g>
        <g fill="rgb(21,101,192)" fill-opacity="0.2" transform="translate(840,790)" stroke-opacity="0.2" stroke="rgb(21,101,192)">
            <rect x="0.5" width="178.5" height="18.5" y="0.5" clip-path="url(#clipPath13)" stroke="none"/>
        </g>
        <g transform="translate(840,790)">
            <rect fill="none" x="0.5" width="178.5" height="18.5" y="0.5" clip-path="url(#clipPath13)"/>
            <text x="5" font-size="14px" y="15.0547" clip-path="url(#clipPath13)" font-family="sans-serif" stroke="none" xml:space="preserve">PaperObserveTwJob.run()</text>
        </g>
        <g stroke-linecap="butt" transform="translate(1180,950)" fill="rgb(21,101,192)" stroke-dasharray="8,5" stroke="rgb(21,101,192)" stroke-width="1.4" stroke-miterlimit="5">
            <path fill="none" d="M10.5 10.5 L10.5 30.5" clip-path="url(#clipPath14)"/>
            <path fill="none" d="M10.5 30.5 L180.5 30.5" clip-path="url(#clipPath14)"/>
            <path fill="none" d="M180.5 30.5 L180.5 10.5" clip-path="url(#clipPath14)"/>
            <path fill="white" d="M4 21.7583 L10.5 10.5 L17 21.7583 L4 21.7583" clip-path="url(#clipPath14)" stroke="none"/>
            <path fill="none" stroke-miterlimit="10" stroke-dasharray="none" d="M4 21.7583 L10.5 10.5 L17 21.7583 L4 21.7583" clip-path="url(#clipPath14)" stroke-linecap="square"/>
        </g>
        <g stroke-linecap="butt" transform="translate(1110,800)" fill="rgb(21,101,192)" stroke-dasharray="8,5" stroke="rgb(21,101,192)" stroke-width="1.4" stroke-miterlimit="5">
            <path fill="none" d="M10.5 10.5 L10.5 30.5" clip-path="url(#clipPath15)"/>
            <path fill="none" d="M10.5 30.5 L270.5 30.5" clip-path="url(#clipPath15)"/>
            <path fill="none" d="M270.5 30.5 L270.5 10.5" clip-path="url(#clipPath15)"/>
            <path fill="white" d="M4 21.7583 L10.5 10.5 L17 21.7583 L4 21.7583" clip-path="url(#clipPath15)" stroke="none"/>
            <path fill="none" stroke-miterlimit="10" stroke-dasharray="none" d="M4 21.7583 L10.5 10.5 L17 21.7583 L4 21.7583" clip-path="url(#clipPath15)" stroke-linecap="square"/>
        </g>
        <g stroke-linecap="butt" transform="translate(1050,990)" fill="rgb(46,125,50)" stroke-dasharray="8,5" stroke="rgb(46,125,50)" stroke-width="1.4" stroke-miterlimit="5">
            <path fill="none" d="M10.5 10.5 L10.5 170.5" clip-path="url(#clipPath16)"/>
            <path fill="none" stroke-miterlimit="10" stroke-dasharray="none" d="M4 21.7583 L10.5 10.5 L17 21.7583" clip-path="url(#clipPath16)" stroke-linecap="square"/>
            <path stroke-miterlimit="10" stroke-dasharray="none" d="M4 159.2417 L10.5 170.5 L17 159.2417 L4 159.2417" clip-path="url(#clipPath16)" stroke-linecap="square" stroke="none"/>
            <path fill="none" stroke-miterlimit="10" stroke-dasharray="none" d="M4 159.2417 L10.5 170.5 L17 159.2417 L4 159.2417" clip-path="url(#clipPath16)" stroke-linecap="square"/>
        </g>
        <g fill="rgb(46,125,50)" font-size="14px" stroke-width="1.4" font-family="sans-serif" transform="translate(1050,990)" stroke="rgb(46,125,50)">
            <text x="14" xml:space="preserve" y="98.0547" clip-path="url(#clipPath16)" stroke="none"
      >is not</text
      >
            <text x="14" xml:space="preserve" y="114.1641" clip-path="url(#clipPath16)" stroke="none">empty?</text>
        </g>
        <g stroke-linecap="butt" transform="translate(1050,790)" fill="rgb(154,106,27)" stroke-dasharray="8,5" stroke="rgb(154,106,27)" stroke-width="1.4" stroke-miterlimit="5">
            <path fill="none" d="M10.5 100.5 L10.5 10.5" clip-path="url(#clipPath17)"/>
            <path fill="white" d="M17 89.2417 L10.5 100.5 L4 89.2417 L17 89.2417" clip-path="url(#clipPath17)" stroke="none"/>
            <path fill="none" stroke-miterlimit="10" stroke-dasharray="none" d="M17 89.2417 L10.5 100.5 L4 89.2417 L17 89.2417" clip-path="url(#clipPath17)" stroke-linecap="square"/>
        </g>
        <g fill="rgb(154,106,27)" font-size="14px" stroke-width="1.4" font-family="sans-serif" transform="translate(1050,790)" stroke="rgb(154,106,27)">
            <text x="14" xml:space="preserve" y="63.0547" clip-path="url(#clipPath17)" stroke="none"
      >add(this)</text
    >
        </g>
        <g stroke-linecap="butt" transform="translate(1180,1020)" fill="rgb(106,27,154)" stroke-dasharray="8,5" stroke="rgb(106,27,154)" stroke-width="1.4" stroke-miterlimit="5">
            <path fill="none" d="M10.5 10.5 L10.5 180.5" clip-path="url(#clipPath18)"/>
            <path fill="white" d="M4 21.7583 L10.5 10.5 L17 21.7583 L4 21.7583" clip-path="url(#clipPath18)" stroke="none"/>
            <path fill="none" stroke-miterlimit="10" stroke-dasharray="none" d="M4 21.7583 L10.5 10.5 L17 21.7583 L4 21.7583" clip-path="url(#clipPath18)" stroke-linecap="square"/>
        </g>
        <g stroke-linecap="butt" transform="translate(1360,930)" fill="rgb(106,27,154)" stroke-dasharray="8,5" stroke="rgb(106,27,154)" stroke-width="1.4" stroke-miterlimit="5">
            <path fill="none" d="M10.5 10.5 L100.5 10.5" clip-path="url(#clipPath3)"/>
            <path fill="white" d="M21.7583 17 L10.5 10.5 L21.7583 4 L21.7583 17" clip-path="url(#clipPath3)" stroke="none"/>
            <path fill="none" stroke-miterlimit="10" stroke-dasharray="none" d="M21.7583 17 L10.5 10.5 L21.7583 4 L21.7583 17" clip-path="url(#clipPath3)" stroke-linecap="square"/>
        </g>
        <g stroke-linecap="butt" transform="translate(1360,950)" fill="rgb(106,27,154)" stroke-dasharray="8,5" stroke="rgb(106,27,154)" stroke-width="1.4" stroke-miterlimit="5">
            <path fill="none" d="M100.5 10.5 L10.5 10.5" clip-path="url(#clipPath3)"/>
            <path fill="white" d="M89.2417 4 L100.5 10.5 L89.2417 17 L89.2417 4" clip-path="url(#clipPath3)" stroke="none"/>
            <path fill="none" stroke-miterlimit="10" stroke-dasharray="none" d="M89.2417 4 L100.5 10.5 L89.2417 17 L89.2417 4" clip-path="url(#clipPath3)" stroke-linecap="square"/>
        </g>
        <g stroke-linecap="butt" transform="translate(1090,990)" fill="rgb(106,27,154)" stroke-dasharray="8,5" stroke="rgb(106,27,154)" stroke-width="1.4" stroke-miterlimit="5">
            <path fill="none" d="M10.5 210.5 L10.5 10.5" clip-path="url(#clipPath19)"/>
            <path fill="white" d="M17 199.2417 L10.5 210.5 L4 199.2417 L17 199.2417" clip-path="url(#clipPath19)" stroke="none"/>
            <path fill="none" stroke-miterlimit="10" stroke-dasharray="none" d="M17 199.2417 L10.5 210.5 L4 199.2417 L17 199.2417" clip-path="url(#clipPath19)" stroke-linecap="square"/>
        </g>
        <g stroke-linecap="butt" transform="translate(1370,680)" fill="rgb(106,27,154)" stroke-dasharray="8,5" stroke="rgb(106,27,154)" stroke-width="1.4" stroke-miterlimit="5">
            <path fill="none" d="M10.5 10.5 L10.5 110.5" clip-path="url(#clipPath20)"/>
            <path fill="white" d="M4 21.7583 L10.5 10.5 L17 21.7583 L4 21.7583" clip-path="url(#clipPath20)" stroke="none"/>
            <path fill="none" stroke-miterlimit="10" stroke-dasharray="none" d="M4 21.7583 L10.5 10.5 L17 21.7583 L4 21.7583" clip-path="url(#clipPath20)" stroke-linecap="square"/>
        </g>
        <g stroke-linecap="butt" transform="translate(1290,680)" fill="rgb(106,27,154)" stroke-dasharray="8,5" stroke="rgb(106,27,154)" stroke-width="1.4" stroke-miterlimit="5">
            <path fill="none" d="M10.5 110.5 L10.5 10.5" clip-path="url(#clipPath20)"/>
            <path fill="white" d="M17 99.2417 L10.5 110.5 L4 99.2417 L17 99.2417" clip-path="url(#clipPath20)" stroke="none"/>
            <path fill="none" stroke-miterlimit="10" stroke-dasharray="none" d="M17 99.2417 L10.5 110.5 L4 99.2417 L17 99.2417" clip-path="url(#clipPath20)" stroke-linecap="square"/>
        </g>
        <g stroke-linecap="butt" transform="translate(1030,990)" fill="rgb(106,27,154)" stroke-dasharray="8,5" stroke="rgb(106,27,154)" stroke-width="1.4" stroke-miterlimit="5">
            <path fill="none" d="M10.5 10.5 L10.5 210.5" clip-path="url(#clipPath19)"/>
            <path fill="white" d="M4 21.7583 L10.5 10.5 L17 21.7583 L4 21.7583" clip-path="url(#clipPath19)" stroke="none"/>
            <path fill="none" stroke-miterlimit="10" stroke-dasharray="none" d="M4 21.7583 L10.5 10.5 L17 21.7583 L4 21.7583" clip-path="url(#clipPath19)" stroke-linecap="square"/>
        </g>
        <g stroke-linecap="butt" transform="translate(1290,1020)" fill="rgb(106,27,154)" stroke-dasharray="8,5" stroke="rgb(106,27,154)" stroke-width="1.4" stroke-miterlimit="5">
            <path fill="none" d="M10.5 180.5 L10.5 10.5" clip-path="url(#clipPath18)"/>
            <path fill="white" d="M17 169.2417 L10.5 180.5 L4 169.2417 L17 169.2417" clip-path="url(#clipPath18)" stroke="none"/>
            <path fill="none" stroke-miterlimit="10" stroke-dasharray="none" d="M17 169.2417 L10.5 180.5 L4 169.2417 L17 169.2417" clip-path="url(#clipPath18)" stroke-linecap="square"/>
        </g>
        <g stroke-linecap="butt" transform="translate(750,700)" fill="rgb(46,125,50)" stroke-dasharray="1,2" stroke="rgb(46,125,50)" stroke-width="1.4" stroke-miterlimit="5">
            <path fill="none" d="M210.5 460.5 L690.5 460.5" clip-path="url(#clipPath21)"/>
            <path fill="none" d="M690.5 460.5 L690.5 10.5" clip-path="url(#clipPath21)"/>
            <path fill="none" d="M690.5 10.5 L10.5 10.5" clip-path="url(#clipPath21)"/>
            <path fill="none" d="M10.5 10.5 L10.5 460.5" clip-path="url(#clipPath21)"/>
            <path fill="none" d="M10.5 460.5 L80.5 460.5" clip-path="url(#clipPath21)"/>
        </g>
        <g stroke-linecap="butt" transform="translate(730,680)" fill="rgb(106,27,154)" stroke-dasharray="1,2" stroke="rgb(106,27,154)" stroke-width="1.4" stroke-miterlimit="5">
            <path fill="none" d="M230.5 520.5 L730.5 520.5" clip-path="url(#clipPath22)"/>
            <path fill="none" d="M730.5 520.5 L730.5 10.5" clip-path="url(#clipPath22)"/>
            <path fill="none" d="M730.5 10.5 L10.5 10.5" clip-path="url(#clipPath22)"/>
            <path fill="none" d="M10.5 10.5 L10.5 520.5" clip-path="url(#clipPath22)"/>
            <path fill="none" d="M10.5 520.5 L100.5 520.5" clip-path="url(#clipPath22)"/>
        </g>
        <g stroke-linecap="butt" transform="translate(1120,700)" fill="rgb(46,125,50)" stroke-dasharray="8,5" stroke="rgb(46,125,50)" stroke-width="1.4" stroke-miterlimit="5">
            <path fill="none" d="M10.5 10.5 L10.5 90.5" clip-path="url(#clipPath23)"/>
            <path fill="white" d="M4 21.7583 L10.5 10.5 L17 21.7583 L4 21.7583" clip-path="url(#clipPath23)" stroke="none"/>
            <path fill="none" stroke-miterlimit="10" stroke-dasharray="none" d="M4 21.7583 L10.5 10.5 L17 21.7583 L4 21.7583" clip-path="url(#clipPath23)" stroke-linecap="square"/>
        </g>
        <g fill="rgb(46,125,50)" font-size="14px" stroke-width="1.4" font-family="sans-serif" transform="translate(1120,700)" stroke="rgb(46,125,50)">
            <text x="14" xml:space="preserve" y="50" clip-path="url(#clipPath23)" stroke="none"
      >put()</text
      >
            <text x="14" xml:space="preserve" y="66.1094" clip-path="url(#clipPath23)" stroke="none">notifyObservers()</text>
        </g>
        <g stroke-linecap="butt" transform="translate(910,990)" fill="rgb(46,125,50)" stroke-dasharray="8,5" stroke="rgb(46,125,50)" stroke-width="1.4" stroke-miterlimit="5">
            <path fill="none" d="M10.5 160.5 L10.5 10.5" clip-path="url(#clipPath24)"/>
            <path fill="white" d="M17 149.2417 L10.5 160.5 L4 149.2417 L17 149.2417" clip-path="url(#clipPath24)" stroke="none"/>
            <path fill="none" stroke-miterlimit="10" stroke-dasharray="none" d="M17 149.2417 L10.5 160.5 L4 149.2417 L17 149.2417" clip-path="url(#clipPath24)" stroke-linecap="square"/>
        </g>
        <g fill="rgb(46,125,50)" font-size="14px" stroke-width="1.4" font-family="sans-serif" transform="translate(910,990)" stroke="rgb(46,125,50)">
            <text x="14" xml:space="preserve" y="101.1094" clip-path="url(#clipPath24)" stroke="none"
      >addObserver(this)</text
    >
        </g>
        <g stroke-linecap="butt" transform="translate(1050,880)" fill="rgb(154,106,27)" stroke-dasharray="8,5" stroke="rgb(154,106,27)" stroke-width="1.4" stroke-miterlimit="5">
            <path fill="none" d="M10.5 100.5 L10.5 10.5" clip-path="url(#clipPath17)"/>
            <path fill="none" stroke-miterlimit="10" stroke-dasharray="none" d="M17 89.2417 L10.5 100.5 L4 89.2417" clip-path="url(#clipPath17)" stroke-linecap="square"/>
            <path stroke-miterlimit="10" stroke-dasharray="none" d="M17 21.7583 L10.5 10.5 L4 21.7583 L17 21.7583" clip-path="url(#clipPath17)" stroke-linecap="square" stroke="none"/>
            <path fill="none" stroke-miterlimit="10" stroke-dasharray="none" d="M17 21.7583 L10.5 10.5 L4 21.7583 L17 21.7583" clip-path="url(#clipPath17)" stroke-linecap="square"/>
        </g>
        <g fill="rgb(154,106,27)" font-size="14px" stroke-width="1.4" font-family="sans-serif" transform="translate(1050,880)" stroke="rgb(154,106,27)">
            <text x="14" xml:space="preserve" y="46.9453" clip-path="url(#clipPath17)" stroke="none"
      >is dep</text
      >
            <text x="14" xml:space="preserve" y="63.0547" clip-path="url(#clipPath17)" stroke="none">job</text>
            <text x="14" xml:space="preserve" y="79.1641" clip-path="url(#clipPath17)" stroke="none">present?</text>
        </g>
        <g stroke-linecap="butt" transform="translate(1010,990)" fill="rgb(21,101,192)" stroke-dasharray="8,5" stroke="rgb(21,101,192)" stroke-width="1.4" stroke-miterlimit="5">
            <path fill="none" d="M10.5 10.5 L10.5 70.5" clip-path="url(#clipPath25)"/>
            <path fill="none" d="M10.5 70.5 L390.5 70.5" clip-path="url(#clipPath25)"/>
            <path fill="none" d="M390.5 70.5 L390.5 30.5" clip-path="url(#clipPath25)"/>
            <path fill="none" d="M390.5 30.5 L310.5 30.5" clip-path="url(#clipPath25)"/>
            <path fill="white" d="M4 21.7583 L10.5 10.5 L17 21.7583 L4 21.7583" clip-path="url(#clipPath25)" stroke="none"/>
            <path fill="none" stroke-miterlimit="10" stroke-dasharray="none" d="M4 21.7583 L10.5 10.5 L17 21.7583 L4 21.7583" clip-path="url(#clipPath25)" stroke-linecap="square"/>
        </g>
        <g stroke-linecap="butt" transform="translate(910,880)" fill="rgb(154,106,27)" stroke-dasharray="8,5" stroke="rgb(154,106,27)" stroke-width="1.4" stroke-miterlimit="5">
            <path fill="none" d="M10.5 10.5 L10.5 100.5" clip-path="url(#clipPath17)"/>
            <path fill="white" d="M4 21.7583 L10.5 10.5 L17 21.7583 L4 21.7583" clip-path="url(#clipPath17)" stroke="none"/>
            <path fill="none" stroke-miterlimit="10" stroke-dasharray="none" d="M4 21.7583 L10.5 10.5 L17 21.7583 L4 21.7583" clip-path="url(#clipPath17)" stroke-linecap="square"/>
        </g>
        <g fill="rgb(154,106,27)" font-size="14px" stroke-width="1.4" font-family="sans-serif" transform="translate(910,880)" stroke="rgb(154,106,27)">
            <text x="14" xml:space="preserve" y="63.0547" clip-path="url(#clipPath17)" stroke="none"
      >add(this)</text
    >
        </g>
    </g>
</svg>
