<?xml version="1.0" encoding="UTF-8"?><!DOCTYPE svg PUBLIC '-//W3C//DTD SVG 1.0//EN'
        'http://www.w3.org/TR/2001/REC-SVG-20010904/DTD/svg10.dtd'><!--suppress ALL -->
<svg fill-opacity="1" xmlns:xlink="http://www.w3.org/1999/xlink" color-rendering="auto" color-interpolation="auto" text-rendering="auto" stroke="black" stroke-linecap="square" width="1160" stroke-miterlimit="10" shape-rendering="auto" stroke-opacity="1" fill="black" stroke-dasharray="none" font-weight="normal" stroke-width="1" viewBox="160 180 1160 260" height="260" xmlns="http://www.w3.org/2000/svg" font-family="'Dialog'" font-style="normal" stroke-linejoin="miter" font-size="12px" stroke-dashoffset="0" image-rendering="auto"><!--Generated by the Batik Graphics2D SVG Generator-->
    <defs id="genericDefs"/>
    <g>
        <defs id="defs1">
            <clipPath clipPathUnits="userSpaceOnUse" id="clipPath1">
                <path d="M0 0 L2147483647 0 L2147483647 2147483647 L0 2147483647 L0 0 Z"/>
            </clipPath>
            <clipPath clipPathUnits="userSpaceOnUse" id="clipPath2">
                <path d="M0 0 L0 220 L640 220 L640 0 Z"/>
            </clipPath>
            <clipPath clipPathUnits="userSpaceOnUse" id="clipPath3">
                <path d="M0 0 L0 60 L100 60 L100 0 Z"/>
            </clipPath>
            <clipPath clipPathUnits="userSpaceOnUse" id="clipPath4">
                <path d="M0 0 L0 30 L100 30 L100 0 Z"/>
            </clipPath>
            <clipPath clipPathUnits="userSpaceOnUse" id="clipPath5">
                <path d="M0 0 L0 90 L140 90 L140 0 Z"/>
            </clipPath>
            <clipPath clipPathUnits="userSpaceOnUse" id="clipPath6">
                <path d="M0 0 L0 20 L20 20 L20 0 Z"/>
            </clipPath>
            <clipPath clipPathUnits="userSpaceOnUse" id="clipPath7">
                <path d="M0 0 L0 80 L30 80 L30 0 Z"/>
            </clipPath>
            <clipPath clipPathUnits="userSpaceOnUse" id="clipPath8">
                <path d="M0 0 L0 30 L90 30 L90 0 Z"/>
            </clipPath>
            <clipPath clipPathUnits="userSpaceOnUse" id="clipPath9">
                <path d="M0 0 L0 30 L110 30 L110 0 Z"/>
            </clipPath>
        </defs>
        <g fill="white" transform="translate(180,200)" stroke="white">
            <rect x="0.5" width="638.5" height="218.5" y="0.5" clip-path="url(#clipPath2)" stroke="none"/>
            <rect fill="none" x="0.5" width="638.5" height="218.5" y="0.5" clip-path="url(#clipPath2)"/>
        </g>
        <g fill="rgb(255,255,255)" fill-opacity="0" transform="translate(450,340)" stroke-opacity="0" stroke="rgb(255,255,255)">
            <path d="M0.5 0.5 L88.5 0.5 L99 12.5 L99 59 L0.5 59 L0.5 0.5" stroke="none" clip-path="url(#clipPath3)"/>
        </g>
        <g transform="translate(450,340)">
            <path fill="none" d="M0.5 0.5 L88.5 0.5 L99 12.5 L99 59 L0.5 59 L0.5 0.5" clip-path="url(#clipPath3)"/>
            <path fill="none" d="M88.5 0.5 L88.5 12.5 L99 12.5" clip-path="url(#clipPath3)"/>
            <text x="5" font-size="14px" y="18.1094" clip-path="url(#clipPath3)" font-family="sans-serif" stroke="none" xml:space="preserve">Web</text>
            <text x="5" font-size="14px" y="50.3281" clip-path="url(#clipPath3)" font-family="sans-serif" stroke="none" xml:space="preserve">Selenium</text>
        </g>
        <g fill="rgb(255,255,255)" fill-opacity="0" transform="translate(630,260)" stroke-opacity="0" stroke="rgb(255,255,255)">
            <rect x="0.5" y="0.5" clip-path="url(#clipPath4)" width="98.5" rx="6" ry="6" height="28.5" stroke="none"/>
        </g>
        <g transform="translate(630,260)">
            <rect x="0.5" y="0.5" clip-path="url(#clipPath4)" fill="none" width="98.5" rx="6" ry="6" height="28.5"/>
            <text x="13" font-size="14px" y="20.0547" clip-path="url(#clipPath4)" font-family="sans-serif" stroke="none" xml:space="preserve">Save Data</text>
        </g>
        <g fill="rgb(255,255,255)" fill-opacity="0" transform="translate(610,220)" stroke-opacity="0" stroke="rgb(255,255,255)">
            <path d="M0.5 0.5 L56.5 0.5 L56.5 21.6094 L139 21.6094 L139 89 L0.5 89 L0.5 0.5" stroke="none" clip-path="url(#clipPath5)"/>
        </g>
        <g transform="translate(610,220)">
            <path fill="none" d="M0.5 0.5 L56.5 0.5 L56.5 21.6094 L139 21.6094 L139 89 L0.5 89 L0.5 0.5" clip-path="url(#clipPath5)"/>
            <path fill="none" d="M0.5 21.6094 L56.5 21.6094" clip-path="url(#clipPath5)"/>
            <text x="5" font-size="14px" y="16.1094" clip-path="url(#clipPath5)" font-family="sans-serif" stroke="none" xml:space="preserve">store</text>
        </g>
        <g fill="rgb(255,255,255)" fill-opacity="0" transform="translate(450,260)" stroke-opacity="0" stroke="rgb(255,255,255)">
            <rect x="0.5" y="0.5" clip-path="url(#clipPath4)" width="98.5" rx="6" ry="6" height="28.5" stroke="none"/>
        </g>
        <g transform="translate(450,260)">
            <rect x="0.5" y="0.5" clip-path="url(#clipPath4)" fill="none" width="98.5" rx="6" ry="6" height="28.5"/>
            <text x="11" font-size="14px" y="20.0547" clip-path="url(#clipPath4)" font-family="sans-serif" stroke="none" xml:space="preserve">Fetch Data</text>
        </g>
        <g fill="rgb(255,255,255)" fill-opacity="0" transform="translate(630,340)" stroke-opacity="0" stroke="rgb(255,255,255)">
            <path d="M0.5 0.5 L88.5 0.5 L99 12.5 L99 59 L0.5 59 L0.5 0.5" stroke="none" clip-path="url(#clipPath3)"/>
        </g>
        <g transform="translate(630,340)">
            <path fill="none" d="M0.5 0.5 L88.5 0.5 L99 12.5 L99 59 L0.5 59 L0.5 0.5" clip-path="url(#clipPath3)"/>
            <path fill="none" d="M88.5 0.5 L88.5 12.5 L99 12.5" clip-path="url(#clipPath3)"/>
            <text x="5" font-size="14px" y="18.1094" clip-path="url(#clipPath3)" font-family="sans-serif" stroke="none" xml:space="preserve">CSV</text>
            <text x="5" font-size="14px" y="50.3281" clip-path="url(#clipPath3)" font-family="sans-serif" stroke="none" xml:space="preserve">~/quotes/t</text>
        </g>
        <g fill="rgb(255,255,255)" fill-opacity="0" transform="translate(270,260)" stroke-opacity="0" stroke="rgb(255,255,255)">
            <rect x="0.5" y="0.5" clip-path="url(#clipPath4)" width="98.5" rx="6" ry="6" height="28.5" stroke="none"/>
        </g>
        <g transform="translate(270,260)">
            <rect x="0.5" y="0.5" clip-path="url(#clipPath4)" fill="none" width="98.5" rx="6" ry="6" height="28.5"/>
            <text x="11" font-size="14px" y="20.0547" clip-path="url(#clipPath4)" font-family="sans-serif" stroke="none" xml:space="preserve">Launch Job</text>
        </g>
        <g fill="rgb(255,255,255)" fill-opacity="0" transform="translate(790,260)" stroke-opacity="0" stroke="rgb(255,255,255)">
            <circle r="9.25" clip-path="url(#clipPath6)" cx="9.75" cy="9.75" stroke="none"/>
        </g>
        <g transform="translate(790,260)">
            <circle fill="none" r="9.25" clip-path="url(#clipPath6)" cx="9.75" cy="9.75"/>
            <circle r="6.2273" clip-path="url(#clipPath6)" cx="10" cy="10" stroke="none"/>
        </g>
        <g fill="rgb(255,255,255)" fill-opacity="0" transform="translate(790,260)" stroke-opacity="0" stroke="rgb(255,255,255)">
            <circle fill="none" r="6.2273" clip-path="url(#clipPath6)" cx="10" cy="10"/>
        </g>
        <g transform="translate(190,260)">
            <circle r="8.75" clip-path="url(#clipPath6)" cx="10.25" cy="10.25" stroke="none"/>
            <circle fill="none" r="8.75" clip-path="url(#clipPath6)" cx="10.25" cy="10.25"/>
        </g>
        <g fill="rgb(255,255,255)" fill-opacity="0" transform="translate(250,220)" stroke-opacity="0" stroke="rgb(255,255,255)">
            <path d="M0.5 0.5 L56.5 0.5 L56.5 21.6094 L139 21.6094 L139 89 L0.5 89 L0.5 0.5" stroke="none" clip-path="url(#clipPath5)"/>
        </g>
        <g transform="translate(250,220)">
            <path fill="none" d="M0.5 0.5 L56.5 0.5 L56.5 21.6094 L139 21.6094 L139 89 L0.5 89 L0.5 0.5" clip-path="url(#clipPath5)"/>
            <path fill="none" d="M0.5 21.6094 L56.5 21.6094" clip-path="url(#clipPath5)"/>
            <text x="5" font-size="14px" y="16.1094" clip-path="url(#clipPath5)" font-family="sans-serif" stroke="none" xml:space="preserve">flow</text>
        </g>
        <g fill="rgb(255,255,255)" fill-opacity="0" transform="translate(430,220)" stroke-opacity="0" stroke="rgb(255,255,255)">
            <path d="M0.5 0.5 L56.5 0.5 L56.5 21.6094 L139 21.6094 L139 89 L0.5 89 L0.5 0.5" stroke="none" clip-path="url(#clipPath5)"/>
        </g>
        <g transform="translate(430,220)">
            <path fill="none" d="M0.5 0.5 L56.5 0.5 L56.5 21.6094 L139 21.6094 L139 89 L0.5 89 L0.5 0.5" clip-path="url(#clipPath5)"/>
            <path fill="none" d="M0.5 21.6094 L56.5 21.6094" clip-path="url(#clipPath5)"/>
            <text x="5" font-size="14px" y="16.1094" clip-path="url(#clipPath5)" font-family="sans-serif" stroke="none" xml:space="preserve">navi</text>
        </g>
        <g stroke-dasharray="8,5" stroke-miterlimit="5" transform="translate(670,280)" stroke-linecap="butt">
            <path fill="none" d="M10.5 10.5 L10.5 60.5" clip-path="url(#clipPath7)"/>
            <path fill="none" stroke-miterlimit="10" stroke-dasharray="none" d="M4 49.2417 L10.5 60.5 L17 49.2417" clip-path="url(#clipPath7)" stroke-linecap="square"/>
        </g>
        <g fill="red" transform="translate(720,260)" stroke="red">
            <path fill="none" d="M70.5 10.5 L10.5 10.5" clip-path="url(#clipPath8)"/>
            <path fill="none" d="M59.2417 4 L70.5 10.5 L59.2417 17" clip-path="url(#clipPath8)"/>
        </g>
        <g fill="red" transform="translate(540,260)" stroke="red">
            <path fill="none" d="M90.5 10.5 L10.5 10.5" clip-path="url(#clipPath9)"/>
            <path fill="none" d="M79.2417 4 L90.5 10.5 L79.2417 17" clip-path="url(#clipPath9)"/>
        </g>
        <g stroke-dasharray="8,5" stroke-miterlimit="5" transform="translate(490,280)" stroke-linecap="butt">
            <path fill="none" d="M10.5 60.5 L10.5 10.5" clip-path="url(#clipPath7)"/>
            <path fill="none" stroke-miterlimit="10" stroke-dasharray="none" d="M17 21.7583 L10.5 10.5 L4 21.7583" clip-path="url(#clipPath7)" stroke-linecap="square"/>
        </g>
        <g fill="red" transform="translate(360,260)" stroke="red">
            <path fill="none" d="M90.5 10.5 L10.5 10.5" clip-path="url(#clipPath9)"/>
            <path fill="none" d="M79.2417 4 L90.5 10.5 L79.2417 17" clip-path="url(#clipPath9)"/>
        </g>
        <g fill="red" transform="translate(200,260)" stroke="red">
            <path fill="none" d="M70.5 10.5 L10.5 10.5" clip-path="url(#clipPath8)"/>
            <path fill="none" d="M59.2417 4 L70.5 10.5 L59.2417 17" clip-path="url(#clipPath8)"/>
        </g>
    </g>
</svg>
