<?xml version="1.0" encoding="UTF-8"?><!DOCTYPE svg PUBLIC '-//W3C//DTD SVG 1.0//EN'
        'http://www.w3.org/TR/2001/REC-SVG-20010904/DTD/svg10.dtd'><!--suppress ALL -->
<svg fill-opacity="1" xmlns:xlink="http://www.w3.org/1999/xlink" color-rendering="auto" color-interpolation="auto" text-rendering="auto" stroke="black" stroke-linecap="square" width="1160" stroke-miterlimit="10" shape-rendering="auto" stroke-opacity="1" fill="black" stroke-dasharray="none" font-weight="normal" stroke-width="1" viewBox="480 390 1160 260" height="260" xmlns="http://www.w3.org/2000/svg" font-family="'Dialog'" font-style="normal" stroke-linejoin="miter" font-size="12px" stroke-dashoffset="0" image-rendering="auto"><!--Generated by the Batik Graphics2D SVG Generator-->
    <defs id="genericDefs"/>
    <g>
        <defs id="defs1">
            <clipPath clipPathUnits="userSpaceOnUse" id="clipPath1">
                <path d="M0 0 L2147483647 0 L2147483647 2147483647 L0 2147483647 L0 0 Z"/>
            </clipPath>
            <clipPath clipPathUnits="userSpaceOnUse" id="clipPath2">
                <path d="M0 0 L0 220 L690 220 L690 0 Z"/>
            </clipPath>
            <clipPath clipPathUnits="userSpaceOnUse" id="clipPath3">
                <path d="M0 0 L0 60 L150 60 L150 0 Z"/>
            </clipPath>
            <clipPath clipPathUnits="userSpaceOnUse" id="clipPath4">
                <path d="M0 0 L0 60 L100 60 L100 0 Z"/>
            </clipPath>
            <clipPath clipPathUnits="userSpaceOnUse" id="clipPath5">
                <path d="M0 0 L0 30 L100 30 L100 0 Z"/>
            </clipPath>
            <clipPath clipPathUnits="userSpaceOnUse" id="clipPath6">
                <path d="M0 0 L0 90 L320 90 L320 0 Z"/>
            </clipPath>
            <clipPath clipPathUnits="userSpaceOnUse" id="clipPath7">
                <path d="M0 0 L0 60 L110 60 L110 0 Z"/>
            </clipPath>
            <clipPath clipPathUnits="userSpaceOnUse" id="clipPath8">
                <path d="M0 0 L0 20 L20 20 L20 0 Z"/>
            </clipPath>
            <clipPath clipPathUnits="userSpaceOnUse" id="clipPath9">
                <path d="M0 0 L0 90 L140 90 L140 0 Z"/>
            </clipPath>
            <clipPath clipPathUnits="userSpaceOnUse" id="clipPath10">
                <path d="M0 0 L0 80 L60 80 L60 0 Z"/>
            </clipPath>
            <clipPath clipPathUnits="userSpaceOnUse" id="clipPath11">
                <path d="M0 0 L0 30 L90 30 L90 0 Z"/>
            </clipPath>
            <clipPath clipPathUnits="userSpaceOnUse" id="clipPath12">
                <path d="M0 0 L0 30 L110 30 L110 0 Z"/>
            </clipPath>
            <clipPath clipPathUnits="userSpaceOnUse" id="clipPath13">
                <path d="M0 0 L0 80 L30 80 L30 0 Z"/>
            </clipPath>
        </defs>
        <g fill="white" transform="translate(500,410)" stroke="white">
            <rect x="0.5" width="688.5" height="218.5" y="0.5" clip-path="url(#clipPath2)" stroke="none"/>
            <rect fill="none" x="0.5" width="688.5" height="218.5" y="0.5" clip-path="url(#clipPath2)"/>
        </g>
        <g fill="rgb(255,255,255)" fill-opacity="0" transform="translate(1020,550)" stroke-opacity="0" stroke="rgb(255,255,255)">
            <path d="M0.5 0.5 L138.5 0.5 L149 12.5 L149 59 L0.5 59 L0.5 0.5" stroke="none" clip-path="url(#clipPath3)"/>
        </g>
        <g transform="translate(1020,550)">
            <path fill="none" d="M0.5 0.5 L138.5 0.5 L149 12.5 L149 59 L0.5 59 L0.5 0.5" clip-path="url(#clipPath3)"/>
            <path fill="none" d="M138.5 0.5 L138.5 12.5 L149 12.5" clip-path="url(#clipPath3)"/>
            <text x="5" font-size="14px" y="18.1094" clip-path="url(#clipPath3)" font-family="sans-serif" stroke="none" xml:space="preserve">CSV</text>
            <text x="5" font-size="14px" y="50.3281" clip-path="url(#clipPath3)" font-family="sans-serif" stroke="none" xml:space="preserve">~/quotes/processe</text>
        </g>
        <g fill="rgb(255,255,255)" fill-opacity="0" transform="translate(770,550)" stroke-opacity="0" stroke="rgb(255,255,255)">
            <path d="M0.5 0.5 L88.5 0.5 L99 12.5 L99 59 L0.5 59 L0.5 0.5" stroke="none" clip-path="url(#clipPath4)"/>
        </g>
        <g transform="translate(770,550)">
            <path fill="none" d="M0.5 0.5 L88.5 0.5 L99 12.5 L99 59 L0.5 59 L0.5 0.5" clip-path="url(#clipPath4)"/>
            <path fill="none" d="M88.5 0.5 L88.5 12.5 L99 12.5" clip-path="url(#clipPath4)"/>
            <text x="5" font-size="14px" y="18.1094" clip-path="url(#clipPath4)" font-family="sans-serif" stroke="none" xml:space="preserve">CSV</text>
            <text x="5" font-size="14px" y="50.3281" clip-path="url(#clipPath4)" font-family="sans-serif" stroke="none" xml:space="preserve">~/quotes/t</text>
        </g>
        <g fill="rgb(255,255,255)" fill-opacity="0" transform="translate(950,470)" stroke-opacity="0" stroke="rgb(255,255,255)">
            <rect x="0.5" y="0.5" clip-path="url(#clipPath5)" width="98.5" rx="6" ry="6" height="28.5" stroke="none"/>
        </g>
        <g transform="translate(950,470)">
            <rect x="0.5" y="0.5" clip-path="url(#clipPath5)" fill="none" width="98.5" rx="6" ry="6" height="28.5"/>
            <text x="13" font-size="14px" y="20.0547" clip-path="url(#clipPath5)" font-family="sans-serif" stroke="none" xml:space="preserve">Save Data</text>
        </g>
        <g fill="rgb(255,255,255)" fill-opacity="0" transform="translate(750,430)" stroke-opacity="0" stroke="rgb(255,255,255)">
            <path d="M0.5 0.5 L128.5 0.5 L128.5 21.6094 L319 21.6094 L319 89 L0.5 89 L0.5 0.5" stroke="none" clip-path="url(#clipPath6)"/>
        </g>
        <g transform="translate(750,430)">
            <path fill="none" d="M0.5 0.5 L128.5 0.5 L128.5 21.6094 L319 21.6094 L319 89 L0.5 89 L0.5 0.5" clip-path="url(#clipPath6)"/>
            <path fill="none" d="M0.5 21.6094 L128.5 21.6094" clip-path="url(#clipPath6)"/>
            <text x="5" font-size="14px" y="16.1094" clip-path="url(#clipPath6)" font-family="sans-serif" stroke="none" xml:space="preserve">store</text>
        </g>
        <g fill="rgb(255,255,255)" fill-opacity="0" transform="translate(770,470)" stroke-opacity="0" stroke="rgb(255,255,255)">
            <rect x="0.5" y="0.5" clip-path="url(#clipPath5)" width="98.5" rx="6" ry="6" height="28.5" stroke="none"/>
        </g>
        <g transform="translate(770,470)">
            <rect x="0.5" y="0.5" clip-path="url(#clipPath5)" fill="none" width="98.5" rx="6" ry="6" height="28.5"/>
            <text x="13" font-size="14px" y="20.0547" clip-path="url(#clipPath5)" font-family="sans-serif" stroke="none" xml:space="preserve">Read Data</text>
        </g>
        <g fill="rgb(255,255,255)" fill-opacity="0" transform="translate(900,550)" stroke-opacity="0" stroke="rgb(255,255,255)">
            <path d="M0.5 0.5 L98.5 0.5 L109 12.5 L109 59 L0.5 59 L0.5 0.5" stroke="none" clip-path="url(#clipPath7)"/>
        </g>
        <g transform="translate(900,550)">
            <path fill="none" d="M0.5 0.5 L98.5 0.5 L109 12.5 L109 59 L0.5 59 L0.5 0.5" clip-path="url(#clipPath7)"/>
            <path fill="none" d="M98.5 0.5 L98.5 12.5 L109 12.5" clip-path="url(#clipPath7)"/>
            <text x="5" font-size="14px" y="18.1094" clip-path="url(#clipPath7)" font-family="sans-serif" stroke="none" xml:space="preserve">SQL</text>
            <text x="5" font-size="14px" y="50.3281" clip-path="url(#clipPath7)" font-family="sans-serif" stroke="none" xml:space="preserve">T_SNAPSHOT</text>
        </g>
        <g fill="rgb(255,255,255)" fill-opacity="0" transform="translate(590,470)" stroke-opacity="0" stroke="rgb(255,255,255)">
            <rect x="0.5" y="0.5" clip-path="url(#clipPath5)" width="98.5" rx="6" ry="6" height="28.5" stroke="none"/>
        </g>
        <g transform="translate(590,470)">
            <rect x="0.5" y="0.5" clip-path="url(#clipPath5)" fill="none" width="98.5" rx="6" ry="6" height="28.5"/>
            <text x="11" font-size="14px" y="20.0547" clip-path="url(#clipPath5)" font-family="sans-serif" stroke="none" xml:space="preserve">Launch Job</text>
        </g>
        <g fill="rgb(255,255,255)" fill-opacity="0" transform="translate(1110,470)" stroke-opacity="0" stroke="rgb(255,255,255)">
            <circle r="9.25" clip-path="url(#clipPath8)" cx="9.75" cy="9.75" stroke="none"/>
        </g>
        <g transform="translate(1110,470)">
            <circle fill="none" r="9.25" clip-path="url(#clipPath8)" cx="9.75" cy="9.75"/>
            <circle r="6.2273" clip-path="url(#clipPath8)" cx="10" cy="10" stroke="none"/>
        </g>
        <g fill="rgb(255,255,255)" fill-opacity="0" transform="translate(1110,470)" stroke-opacity="0" stroke="rgb(255,255,255)">
            <circle fill="none" r="6.2273" clip-path="url(#clipPath8)" cx="10" cy="10"/>
        </g>
        <g transform="translate(510,470)">
            <circle r="8.75" clip-path="url(#clipPath8)" cx="10.25" cy="10.25" stroke="none"/>
            <circle fill="none" r="8.75" clip-path="url(#clipPath8)" cx="10.25" cy="10.25"/>
        </g>
        <g fill="rgb(255,255,255)" fill-opacity="0" transform="translate(570,430)" stroke-opacity="0" stroke="rgb(255,255,255)">
            <path d="M0.5 0.5 L56.5 0.5 L56.5 21.6094 L139 21.6094 L139 89 L0.5 89 L0.5 0.5" stroke="none" clip-path="url(#clipPath9)"/>
        </g>
        <g transform="translate(570,430)">
            <path fill="none" d="M0.5 0.5 L56.5 0.5 L56.5 21.6094 L139 21.6094 L139 89 L0.5 89 L0.5 0.5" clip-path="url(#clipPath9)"/>
            <path fill="none" d="M0.5 21.6094 L56.5 21.6094" clip-path="url(#clipPath9)"/>
            <text x="5" font-size="14px" y="16.1094" clip-path="url(#clipPath9)" font-family="sans-serif" stroke="none" xml:space="preserve">flow</text>
        </g>
        <g stroke-dasharray="8,5" stroke-miterlimit="5" transform="translate(1010,490)" stroke-linecap="butt">
            <path fill="none" d="M10.5 10.5 L40.5 60.5" clip-path="url(#clipPath10)"/>
            <path fill="none" stroke-miterlimit="10" stroke-dasharray="none" d="M29.1339 54.1903 L40.5 60.5 L40.2813 47.5018" clip-path="url(#clipPath10)" stroke-linecap="square"/>
        </g>
        <g stroke-dasharray="8,5" stroke-miterlimit="5" transform="translate(950,490)" stroke-linecap="butt">
            <path fill="none" d="M40.5 10.5 L10.5 60.5" clip-path="url(#clipPath10)"/>
            <path fill="none" stroke-miterlimit="10" stroke-dasharray="none" d="M10.7187 47.5018 L10.5 60.5 L21.8661 54.1903" clip-path="url(#clipPath10)" stroke-linecap="square"/>
        </g>
        <g fill="red" transform="translate(1040,470)" stroke="red">
            <path fill="none" d="M70.5 10.5 L10.5 10.5" clip-path="url(#clipPath11)"/>
            <path fill="none" d="M59.2417 4 L70.5 10.5 L59.2417 17" clip-path="url(#clipPath11)"/>
        </g>
        <g fill="red" transform="translate(860,470)" stroke="red">
            <path fill="none" d="M90.5 10.5 L10.5 10.5" clip-path="url(#clipPath12)"/>
            <path fill="none" d="M79.2417 4 L90.5 10.5 L79.2417 17" clip-path="url(#clipPath12)"/>
        </g>
        <g stroke-dasharray="8,5" stroke-miterlimit="5" transform="translate(810,490)" stroke-linecap="butt">
            <path fill="none" d="M10.5 60.5 L10.5 10.5" clip-path="url(#clipPath13)"/>
            <path fill="none" stroke-miterlimit="10" stroke-dasharray="none" d="M17 21.7583 L10.5 10.5 L4 21.7583" clip-path="url(#clipPath13)" stroke-linecap="square"/>
        </g>
        <g fill="red" transform="translate(680,470)" stroke="red">
            <path fill="none" d="M90.5 10.5 L10.5 10.5" clip-path="url(#clipPath12)"/>
            <path fill="none" d="M79.2417 4 L90.5 10.5 L79.2417 17" clip-path="url(#clipPath12)"/>
        </g>
        <g fill="red" transform="translate(520,470)" stroke="red">
            <path fill="none" d="M70.5 10.5 L10.5 10.5" clip-path="url(#clipPath11)"/>
            <path fill="none" d="M59.2417 4 L70.5 10.5 L59.2417 17" clip-path="url(#clipPath11)"/>
        </g>
    </g>
</svg>
