<?xml version="1.0" encoding="UTF-8"?><!DOCTYPE svg PUBLIC '-//W3C//DTD SVG 1.0//EN'
        'http://www.w3.org/TR/2001/REC-SVG-20010904/DTD/svg10.dtd'>
<svg fill-opacity="1" color-rendering="auto" color-interpolation="auto" text-rendering="auto" stroke="black" stroke-linecap="square" width="570" stroke-miterlimit="10" shape-rendering="auto" stroke-opacity="1" fill="black" stroke-dasharray="none" font-weight="normal" stroke-width="1" viewBox="290 20 570 870" height="870" xmlns="http://www.w3.org/2000/svg" font-family="'Dialog'" font-style="normal" stroke-linejoin="miter" font-size="12px" stroke-dashoffset="0" image-rendering="auto"><!--Generated by the Batik Graphics2D SVG Generator-->
    <defs id="genericDefs"/>
    <g>
        <defs id="defs1">
            <clipPath clipPathUnits="userSpaceOnUse" id="clipPath1">
                <path d="M0 0 L2147483647 0 L2147483647 2147483647 L0 2147483647 L0 0 Z"/>
            </clipPath>
            <clipPath clipPathUnits="userSpaceOnUse" id="clipPath2">
                <path d="M0 0 L0 830 L530 830 L530 0 Z"/>
            </clipPath>
            <clipPath clipPathUnits="userSpaceOnUse" id="clipPath3">
                <path d="M0 0 L0 60 L30 60 L30 0 Z"/>
            </clipPath>
            <clipPath clipPathUnits="userSpaceOnUse" id="clipPath4">
                <path d="M0 0 L0 70 L100 70 L100 0 Z"/>
            </clipPath>
            <clipPath clipPathUnits="userSpaceOnUse" id="clipPath5">
                <path d="M0 0 L0 30 L100 30 L100 0 Z"/>
            </clipPath>
            <clipPath clipPathUnits="userSpaceOnUse" id="clipPath6">
                <path d="M0 0 L0 40 L100 40 L100 0 Z"/>
            </clipPath>
            <clipPath clipPathUnits="userSpaceOnUse" id="clipPath7">
                <path d="M0 0 L0 180 L30 180 L30 0 Z"/>
            </clipPath>
            <clipPath clipPathUnits="userSpaceOnUse" id="clipPath8">
                <path d="M0 0 L0 40 L60 40 L60 0 Z"/>
            </clipPath>
            <clipPath clipPathUnits="userSpaceOnUse" id="clipPath9">
                <path d="M0 0 L0 30 L110 30 L110 0 Z"/>
            </clipPath>
            <clipPath clipPathUnits="userSpaceOnUse" id="clipPath10">
                <path d="M0 0 L0 90 L50 90 L50 0 Z"/>
            </clipPath>
            <clipPath clipPathUnits="userSpaceOnUse" id="clipPath11">
                <path d="M0 0 L0 50 L60 50 L60 0 Z"/>
            </clipPath>
            <clipPath clipPathUnits="userSpaceOnUse" id="clipPath12">
                <path d="M0 0 L0 50 L120 50 L120 0 Z"/>
            </clipPath>
            <clipPath clipPathUnits="userSpaceOnUse" id="clipPath13">
                <path d="M0 0 L0 100 L130 100 L130 0 Z"/>
            </clipPath>
            <clipPath clipPathUnits="userSpaceOnUse" id="clipPath14">
                <path d="M0 0 L0 110 L130 110 L130 0 Z"/>
            </clipPath>
            <clipPath clipPathUnits="userSpaceOnUse" id="clipPath15">
                <path d="M0 0 L0 110 L180 110 L180 0 Z"/>
            </clipPath>
            <clipPath clipPathUnits="userSpaceOnUse" id="clipPath16">
                <path d="M0 0 L0 190 L130 190 L130 0 Z"/>
            </clipPath>
            <clipPath clipPathUnits="userSpaceOnUse" id="clipPath17">
                <path d="M0 0 L0 50 L130 50 L130 0 Z"/>
            </clipPath>
            <clipPath clipPathUnits="userSpaceOnUse" id="clipPath18">
                <path d="M0 0 L0 70 L180 70 L180 0 Z"/>
            </clipPath>
            <clipPath clipPathUnits="userSpaceOnUse" id="clipPath19">
                <path d="M0 0 L0 50 L180 50 L180 0 Z"/>
            </clipPath>
            <clipPath clipPathUnits="userSpaceOnUse" id="clipPath20">
                <path d="M0 0 L0 70 L130 70 L130 0 Z"/>
            </clipPath>
        </defs>
        <g fill="white" transform="translate(310,40)" stroke="white">
            <rect x="0.5" width="528.5" height="828.5" y="0.5" clip-path="url(#clipPath2)" stroke="none"/>
            <rect fill="none" x="0.5" width="528.5" height="828.5" y="0.5" clip-path="url(#clipPath2)"/>
        </g>
        <g fill="rgb(255,255,255)" fill-opacity="0" transform="translate(390,610)" stroke-opacity="0" stroke="rgb(255,255,255)">
            <rect x="0.5" width="28.5" height="58.5" y="0.5" clip-path="url(#clipPath3)" stroke="none"/>
        </g>
        <g fill="blue" transform="translate(390,610)" stroke="blue">
            <rect fill="none" x="0.5" width="28.5" height="58.5" y="0.5" clip-path="url(#clipPath3)"/>
            <text x="5" font-size="14px" y="18.1094" clip-path="url(#clipPath3)" font-family="sans-serif" stroke="none" xml:space="preserve">tw</text>
        </g>
        <g fill="rgb(255,255,255)" fill-opacity="0" transform="translate(420,780)" stroke-opacity="0" stroke="rgb(255,255,255)">
            <rect x="0.5" width="98.5" height="68.5" y="0.5" clip-path="url(#clipPath4)" stroke="none"/>
        </g>
        <g fill="red" transform="translate(420,780)" stroke="red">
            <rect fill="none" x="0.5" width="98.5" height="68.5" y="0.5" clip-path="url(#clipPath4)"/>
            <text x="5" font-size="14px" y="18.1094" clip-path="url(#clipPath4)" font-family="sans-serif" stroke="none" xml:space="preserve">trade</text>
        </g>
        <g fill="rgb(255,255,255)" fill-opacity="0" transform="translate(420,610)" stroke-opacity="0" stroke="rgb(255,255,255)">
            <rect x="0.5" width="98.5" height="28.5" y="0.5" clip-path="url(#clipPath5)" stroke="none"/>
        </g>
        <g fill="blue" transform="translate(420,610)" stroke="blue">
            <rect fill="none" x="0.5" width="98.5" height="28.5" y="0.5" clip-path="url(#clipPath5)"/>
            <text x="5" font-size="14px" y="18.1094" clip-path="url(#clipPath5)" font-family="sans-serif" stroke="none" xml:space="preserve">observe</text>
        </g>
        <g fill="rgb(255,255,255)" fill-opacity="0" transform="translate(420,740)" stroke-opacity="0" stroke="rgb(255,255,255)">
            <rect x="0.5" width="98.5" height="38.5" y="0.5" clip-path="url(#clipPath6)" stroke="none"/>
        </g>
        <g fill="red" transform="translate(420,740)" stroke="red">
            <rect fill="none" x="0.5" width="98.5" height="38.5" y="0.5" clip-path="url(#clipPath6)"/>
            <text x="5" font-size="14px" y="18.1094" clip-path="url(#clipPath6)" font-family="sans-serif" stroke="none" xml:space="preserve">observe</text>
            <text x="5" font-size="14px" y="34.2188" clip-path="url(#clipPath6)" font-family="sans-serif" stroke="none" xml:space="preserve">-positions</text>
        </g>
        <g fill="rgb(255,255,255)" fill-opacity="0" transform="translate(420,670)" stroke-opacity="0" stroke="rgb(255,255,255)">
            <rect x="0.5" width="98.5" height="28.5" y="0.5" clip-path="url(#clipPath5)" stroke="none"/>
        </g>
        <g fill="red" transform="translate(420,670)" stroke="red">
            <rect fill="none" x="0.5" width="98.5" height="28.5" y="0.5" clip-path="url(#clipPath5)"/>
            <text x="5" font-size="14px" y="18.1094" clip-path="url(#clipPath5)" font-family="sans-serif" stroke="none" xml:space="preserve">observe</text>
        </g>
        <g fill="rgb(255,255,255)" fill-opacity="0" transform="translate(420,700)" stroke-opacity="0" stroke="rgb(255,255,255)">
            <rect x="0.5" width="98.5" height="38.5" y="0.5" clip-path="url(#clipPath6)" stroke="none"/>
        </g>
        <g fill="red" transform="translate(420,700)" stroke="red">
            <rect fill="none" x="0.5" width="98.5" height="38.5" y="0.5" clip-path="url(#clipPath6)"/>
            <text x="5" font-size="14px" y="18.1094" clip-path="url(#clipPath6)" font-family="sans-serif" stroke="none" xml:space="preserve">sync</text>
            <text x="5" font-size="14px" y="34.2188" clip-path="url(#clipPath6)" font-family="sans-serif" stroke="none" xml:space="preserve">-options</text>
        </g>
        <g fill="rgb(255,255,255)" fill-opacity="0" transform="translate(420,640)" stroke-opacity="0" stroke="rgb(255,255,255)">
            <rect x="0.5" width="98.5" height="28.5" y="0.5" clip-path="url(#clipPath5)" stroke="none"/>
        </g>
        <g fill="blue" transform="translate(420,640)" stroke="blue">
            <rect fill="none" x="0.5" width="98.5" height="28.5" y="0.5" clip-path="url(#clipPath5)"/>
            <text x="5" font-size="14px" y="18.1094" clip-path="url(#clipPath5)" font-family="sans-serif" stroke="none" xml:space="preserve">download</text>
        </g>
        <g fill="rgb(255,255,255)" fill-opacity="0" transform="translate(390,670)" stroke-opacity="0" stroke="rgb(255,255,255)">
            <rect x="0.5" width="28.5" height="178.5" y="0.5" clip-path="url(#clipPath7)" stroke="none"/>
        </g>
        <g fill="red" transform="translate(390,670)" stroke="red">
            <rect fill="none" x="0.5" width="28.5" height="178.5" y="0.5" clip-path="url(#clipPath7)"/>
            <text x="5" font-size="14px" y="18.1094" clip-path="url(#clipPath7)" font-family="sans-serif" stroke="none" xml:space="preserve">sq</text>
        </g>
        <g fill="rgb(255,255,255)" fill-opacity="0" transform="translate(390,410)" stroke-opacity="0" stroke="rgb(255,255,255)">
            <rect x="0.5" width="28.5" height="178.5" y="0.5" clip-path="url(#clipPath7)" stroke="none"/>
        </g>
        <g fill="red" transform="translate(390,410)" stroke="red">
            <rect fill="none" x="0.5" width="28.5" height="178.5" y="0.5" clip-path="url(#clipPath7)"/>
            <text x="5" font-size="14px" y="18.1094" clip-path="url(#clipPath7)" font-family="sans-serif" stroke="none" xml:space="preserve">sq</text>
        </g>
        <g fill="rgb(255,255,255)" fill-opacity="0" transform="translate(390,350)" stroke-opacity="0" stroke="rgb(255,255,255)">
            <rect x="0.5" width="28.5" height="58.5" y="0.5" clip-path="url(#clipPath3)" stroke="none"/>
        </g>
        <g fill="blue" transform="translate(390,350)" stroke="blue">
            <rect fill="none" x="0.5" width="28.5" height="58.5" y="0.5" clip-path="url(#clipPath3)"/>
            <text x="5" font-size="14px" y="18.1094" clip-path="url(#clipPath3)" font-family="sans-serif" stroke="none" xml:space="preserve">tw</text>
        </g>
        <g fill="rgb(255,255,255)" fill-opacity="0" transform="translate(420,520)" stroke-opacity="0" stroke="rgb(255,255,255)">
            <rect x="0.5" width="98.5" height="68.5" y="0.5" clip-path="url(#clipPath4)" stroke="none"/>
        </g>
        <g fill="red" transform="translate(420,520)" stroke="red">
            <rect fill="none" x="0.5" width="98.5" height="68.5" y="0.5" clip-path="url(#clipPath4)"/>
            <text x="5" font-size="14px" y="18.1094" clip-path="url(#clipPath4)" font-family="sans-serif" stroke="none" xml:space="preserve">trade</text>
        </g>
        <g fill="rgb(255,255,255)" fill-opacity="0" transform="translate(420,350)" stroke-opacity="0" stroke="rgb(255,255,255)">
            <rect x="0.5" width="98.5" height="28.5" y="0.5" clip-path="url(#clipPath5)" stroke="none"/>
        </g>
        <g fill="blue" transform="translate(420,350)" stroke="blue">
            <rect fill="none" x="0.5" width="98.5" height="28.5" y="0.5" clip-path="url(#clipPath5)"/>
            <text x="5" font-size="14px" y="18.1094" clip-path="url(#clipPath5)" font-family="sans-serif" stroke="none" xml:space="preserve">observe</text>
        </g>
        <g fill="rgb(255,255,255)" fill-opacity="0" transform="translate(420,480)" stroke-opacity="0" stroke="rgb(255,255,255)">
            <rect x="0.5" width="98.5" height="38.5" y="0.5" clip-path="url(#clipPath6)" stroke="none"/>
        </g>
        <g fill="red" transform="translate(420,480)" stroke="red">
            <rect fill="none" x="0.5" width="98.5" height="38.5" y="0.5" clip-path="url(#clipPath6)"/>
            <text x="5" font-size="14px" y="18.1094" clip-path="url(#clipPath6)" font-family="sans-serif" stroke="none" xml:space="preserve">observe</text>
            <text x="5" font-size="14px" y="34.2188" clip-path="url(#clipPath6)" font-family="sans-serif" stroke="none" xml:space="preserve">-positions</text>
        </g>
        <g fill="rgb(255,255,255)" fill-opacity="0" transform="translate(420,410)" stroke-opacity="0" stroke="rgb(255,255,255)">
            <rect x="0.5" width="98.5" height="28.5" y="0.5" clip-path="url(#clipPath5)" stroke="none"/>
        </g>
        <g fill="red" transform="translate(420,410)" stroke="red">
            <rect fill="none" x="0.5" width="98.5" height="28.5" y="0.5" clip-path="url(#clipPath5)"/>
            <text x="5" font-size="14px" y="18.1094" clip-path="url(#clipPath5)" font-family="sans-serif" stroke="none" xml:space="preserve">observe</text>
        </g>
        <g fill="rgb(255,255,255)" fill-opacity="0" transform="translate(420,440)" stroke-opacity="0" stroke="rgb(255,255,255)">
            <rect x="0.5" width="98.5" height="38.5" y="0.5" clip-path="url(#clipPath6)" stroke="none"/>
        </g>
        <g fill="red" transform="translate(420,440)" stroke="red">
            <rect fill="none" x="0.5" width="98.5" height="38.5" y="0.5" clip-path="url(#clipPath6)"/>
            <text x="5" font-size="14px" y="18.1094" clip-path="url(#clipPath6)" font-family="sans-serif" stroke="none" xml:space="preserve">sync</text>
            <text x="5" font-size="14px" y="34.2188" clip-path="url(#clipPath6)" font-family="sans-serif" stroke="none" xml:space="preserve">-options</text>
        </g>
        <g fill="rgb(255,255,255)" fill-opacity="0" transform="translate(420,380)" stroke-opacity="0" stroke="rgb(255,255,255)">
            <rect x="0.5" width="98.5" height="28.5" y="0.5" clip-path="url(#clipPath5)" stroke="none"/>
        </g>
        <g fill="blue" transform="translate(420,380)" stroke="blue">
            <rect fill="none" x="0.5" width="98.5" height="28.5" y="0.5" clip-path="url(#clipPath5)"/>
            <text x="5" font-size="14px" y="18.1094" clip-path="url(#clipPath5)" font-family="sans-serif" stroke="none" xml:space="preserve">download</text>
        </g>
        <g fill="rgb(255,255,255)" fill-opacity="0" transform="translate(670,640)" stroke-opacity="0" stroke="rgb(255,255,255)">
            <rect x="0.5" width="58.5" height="38.5" y="0.5" clip-path="url(#clipPath8)" stroke="none"/>
        </g>
        <g fill="blue" transform="translate(670,640)" stroke="blue">
            <rect fill="none" x="0.5" width="58.5" height="38.5" y="0.5" clip-path="url(#clipPath8)"/>
            <text x="5" font-size="14px" y="18.1094" clip-path="url(#clipPath8)" font-family="sans-serif" stroke="none" xml:space="preserve">Under-</text>
            <text x="5" font-size="14px" y="34.2188" clip-path="url(#clipPath8)" font-family="sans-serif" stroke="none" xml:space="preserve">lying</text>
        </g>
        <g fill="rgb(255,255,255)" fill-opacity="0" transform="translate(620,730)" stroke-opacity="0" stroke="rgb(255,255,255)">
            <rect x="0.5" width="108.5" height="28.5" y="0.5" clip-path="url(#clipPath9)" stroke="none"/>
        </g>
        <g fill="red" transform="translate(620,730)" stroke="red">
            <rect fill="none" x="0.5" width="108.5" height="28.5" y="0.5" clip-path="url(#clipPath9)"/>
            <text x="5" font-size="14px" y="18.1094" clip-path="url(#clipPath9)" font-family="sans-serif" stroke="none" xml:space="preserve">Position</text>
        </g>
        <g fill="rgb(255,255,255)" fill-opacity="0" transform="translate(620,760)" stroke-opacity="0" stroke="rgb(255,255,255)">
            <rect x="0.5" width="108.5" height="28.5" y="0.5" clip-path="url(#clipPath9)" stroke="none"/>
        </g>
        <g fill="red" transform="translate(620,760)" stroke="red">
            <rect fill="none" x="0.5" width="108.5" height="28.5" y="0.5" clip-path="url(#clipPath9)"/>
            <text x="5" font-size="14px" y="18.1094" clip-path="url(#clipPath9)" font-family="sans-serif" stroke="none" xml:space="preserve">Trade</text>
        </g>
        <g fill="rgb(255,255,255)" fill-opacity="0" transform="translate(620,610)" stroke-opacity="0" stroke="rgb(255,255,255)">
            <rect x="0.5" width="108.5" height="28.5" y="0.5" clip-path="url(#clipPath9)" stroke="none"/>
        </g>
        <g fill="rgb(171,71,188)" transform="translate(620,610)" stroke="rgb(171,71,188)">
            <rect fill="none" x="0.5" width="108.5" height="28.5" y="0.5" clip-path="url(#clipPath9)"/>
            <text x="5" font-size="14px" y="18.1094" clip-path="url(#clipPath9)" font-family="sans-serif" stroke="none" xml:space="preserve">Series</text>
        </g>
        <g fill="rgb(255,255,255)" fill-opacity="0" transform="translate(620,640)" stroke-opacity="0" stroke="rgb(255,255,255)">
            <rect x="0.5" width="48.5" height="88.5" y="0.5" clip-path="url(#clipPath10)" stroke="none"/>
        </g>
        <g fill="rgb(171,71,188)" transform="translate(620,640)" stroke="rgb(171,71,188)">
            <rect fill="none" x="0.5" width="48.5" height="88.5" y="0.5" clip-path="url(#clipPath10)"/>
            <text x="5" font-size="14px" y="18.1094" clip-path="url(#clipPath10)" font-family="sans-serif" stroke="none" xml:space="preserve">Asset</text>
        </g>
        <g fill="rgb(255,255,255)" fill-opacity="0" transform="translate(670,680)" stroke-opacity="0" stroke="rgb(255,255,255)">
            <rect x="0.5" width="58.5" height="48.5" y="0.5" clip-path="url(#clipPath11)" stroke="none"/>
        </g>
        <g fill="red" transform="translate(670,680)" stroke="red">
            <rect fill="none" x="0.5" width="58.5" height="48.5" y="0.5" clip-path="url(#clipPath11)"/>
            <text x="5" font-size="14px" y="18.1094" clip-path="url(#clipPath11)" font-family="sans-serif" stroke="none" xml:space="preserve">Option</text>
        </g>
        <g fill="rgb(255,255,255)" fill-opacity="0" transform="translate(670,420)" stroke-opacity="0" stroke="rgb(255,255,255)">
            <rect x="0.5" width="58.5" height="48.5" y="0.5" clip-path="url(#clipPath11)" stroke="none"/>
        </g>
        <g fill="red" transform="translate(670,420)" stroke="red">
            <rect fill="none" x="0.5" width="58.5" height="48.5" y="0.5" clip-path="url(#clipPath11)"/>
            <text x="5" font-size="14px" y="18.1094" clip-path="url(#clipPath11)" font-family="sans-serif" stroke="none" xml:space="preserve">Option</text>
        </g>
        <g fill="rgb(255,255,255)" fill-opacity="0" transform="translate(670,380)" stroke-opacity="0" stroke="rgb(255,255,255)">
            <rect x="0.5" width="58.5" height="38.5" y="0.5" clip-path="url(#clipPath8)" stroke="none"/>
        </g>
        <g fill="blue" transform="translate(670,380)" stroke="blue">
            <rect fill="none" x="0.5" width="58.5" height="38.5" y="0.5" clip-path="url(#clipPath8)"/>
            <text x="5" font-size="14px" y="18.1094" clip-path="url(#clipPath8)" font-family="sans-serif" stroke="none" xml:space="preserve">Under-</text>
            <text x="5" font-size="14px" y="34.2188" clip-path="url(#clipPath8)" font-family="sans-serif" stroke="none" xml:space="preserve">lying</text>
        </g>
        <g fill="rgb(255,255,255)" fill-opacity="0" transform="translate(620,470)" stroke-opacity="0" stroke="rgb(255,255,255)">
            <rect x="0.5" width="108.5" height="28.5" y="0.5" clip-path="url(#clipPath9)" stroke="none"/>
        </g>
        <g fill="red" transform="translate(620,470)" stroke="red">
            <rect fill="none" x="0.5" width="108.5" height="28.5" y="0.5" clip-path="url(#clipPath9)"/>
            <text x="5" font-size="14px" y="18.1094" clip-path="url(#clipPath9)" font-family="sans-serif" stroke="none" xml:space="preserve">Position</text>
        </g>
        <g fill="rgb(255,255,255)" fill-opacity="0" transform="translate(620,500)" stroke-opacity="0" stroke="rgb(255,255,255)">
            <rect x="0.5" width="108.5" height="28.5" y="0.5" clip-path="url(#clipPath9)" stroke="none"/>
        </g>
        <g fill="red" transform="translate(620,500)" stroke="red">
            <rect fill="none" x="0.5" width="108.5" height="28.5" y="0.5" clip-path="url(#clipPath9)"/>
            <text x="5" font-size="14px" y="18.1094" clip-path="url(#clipPath9)" font-family="sans-serif" stroke="none" xml:space="preserve">Trade</text>
        </g>
        <g fill="rgb(255,255,255)" fill-opacity="0" transform="translate(620,350)" stroke-opacity="0" stroke="rgb(255,255,255)">
            <rect x="0.5" width="108.5" height="28.5" y="0.5" clip-path="url(#clipPath9)" stroke="none"/>
        </g>
        <g fill="rgb(171,71,188)" transform="translate(620,350)" stroke="rgb(171,71,188)">
            <rect fill="none" x="0.5" width="108.5" height="28.5" y="0.5" clip-path="url(#clipPath9)"/>
            <text x="5" font-size="14px" y="18.1094" clip-path="url(#clipPath9)" font-family="sans-serif" stroke="none" xml:space="preserve">Series</text>
        </g>
        <g fill="rgb(255,255,255)" fill-opacity="0" transform="translate(620,380)" stroke-opacity="0" stroke="rgb(255,255,255)">
            <rect x="0.5" width="48.5" height="88.5" y="0.5" clip-path="url(#clipPath10)" stroke="none"/>
        </g>
        <g fill="rgb(171,71,188)" transform="translate(620,380)" stroke="rgb(171,71,188)">
            <rect fill="none" x="0.5" width="48.5" height="88.5" y="0.5" clip-path="url(#clipPath10)"/>
            <text x="5" font-size="14px" y="18.1094" clip-path="url(#clipPath10)" font-family="sans-serif" stroke="none" xml:space="preserve">Asset</text>
        </g>
        <g fill="rgb(255,255,255)" fill-opacity="0" transform="translate(390,90)" stroke-opacity="0" stroke="rgb(255,255,255)">
            <rect x="0.5" width="28.5" height="58.5" y="0.5" clip-path="url(#clipPath3)" stroke="none"/>
        </g>
        <g fill="blue" transform="translate(390,90)" stroke="blue">
            <rect fill="none" x="0.5" width="28.5" height="58.5" y="0.5" clip-path="url(#clipPath3)"/>
            <text x="5" font-size="14px" y="18.1094" clip-path="url(#clipPath3)" font-family="sans-serif" stroke="none" xml:space="preserve">tw</text>
        </g>
        <g fill="rgb(255,255,255)" fill-opacity="0" transform="translate(390,150)" stroke-opacity="0" stroke="rgb(255,255,255)">
            <rect x="0.5" width="28.5" height="178.5" y="0.5" clip-path="url(#clipPath7)" stroke="none"/>
        </g>
        <g fill="red" transform="translate(390,150)" stroke="red">
            <rect fill="none" x="0.5" width="28.5" height="178.5" y="0.5" clip-path="url(#clipPath7)"/>
            <text x="5" font-size="14px" y="18.1094" clip-path="url(#clipPath7)" font-family="sans-serif" stroke="none" xml:space="preserve">sq</text>
        </g>
        <g fill="rgb(255,255,255)" fill-opacity="0" transform="translate(420,60)" stroke-opacity="0" stroke="rgb(255,255,255)">
            <rect x="0.5" width="98.5" height="28.5" y="0.5" clip-path="url(#clipPath5)" stroke="none"/>
        </g>
        <g transform="translate(420,60)">
            <rect fill="none" x="0.5" width="98.5" height="28.5" y="0.5" clip-path="url(#clipPath5)"/>
            <text x="5" font-size="14px" y="18.1094" clip-path="url(#clipPath5)" font-family="sans-serif" stroke="none" xml:space="preserve">Jobs</text>
        </g>
        <g fill="rgb(255,255,255)" fill-opacity="0" transform="translate(620,60)" stroke-opacity="0" stroke="rgb(255,255,255)">
            <rect x="0.5" width="108.5" height="28.5" y="0.5" clip-path="url(#clipPath9)" stroke="none"/>
        </g>
        <g transform="translate(620,60)">
            <rect fill="none" x="0.5" width="108.5" height="28.5" y="0.5" clip-path="url(#clipPath9)"/>
            <text x="5" font-size="14px" y="18.1094" clip-path="url(#clipPath9)" font-family="sans-serif" stroke="none" xml:space="preserve">Services</text>
        </g>
        <g fill="rgb(255,255,255)" fill-opacity="0" transform="translate(420,260)" stroke-opacity="0" stroke="rgb(255,255,255)">
            <rect x="0.5" width="98.5" height="68.5" y="0.5" clip-path="url(#clipPath4)" stroke="none"/>
        </g>
        <g fill="red" transform="translate(420,260)" stroke="red">
            <rect fill="none" x="0.5" width="98.5" height="68.5" y="0.5" clip-path="url(#clipPath4)"/>
            <text x="5" font-size="14px" y="18.1094" clip-path="url(#clipPath4)" font-family="sans-serif" stroke="none" xml:space="preserve">trade</text>
        </g>
        <g fill="rgb(255,255,255)" fill-opacity="0" transform="translate(420,90)" stroke-opacity="0" stroke="rgb(255,255,255)">
            <rect x="0.5" width="98.5" height="28.5" y="0.5" clip-path="url(#clipPath5)" stroke="none"/>
        </g>
        <g fill="blue" transform="translate(420,90)" stroke="blue">
            <rect fill="none" x="0.5" width="98.5" height="28.5" y="0.5" clip-path="url(#clipPath5)"/>
            <text x="5" font-size="14px" y="18.1094" clip-path="url(#clipPath5)" font-family="sans-serif" stroke="none" xml:space="preserve">observe</text>
        </g>
        <g fill="rgb(255,255,255)" fill-opacity="0" transform="translate(670,160)" stroke-opacity="0" stroke="rgb(255,255,255)">
            <rect x="0.5" width="58.5" height="48.5" y="0.5" clip-path="url(#clipPath11)" stroke="none"/>
        </g>
        <g fill="red" transform="translate(670,160)" stroke="red">
            <rect fill="none" x="0.5" width="58.5" height="48.5" y="0.5" clip-path="url(#clipPath11)"/>
            <text x="5" font-size="14px" y="18.1094" clip-path="url(#clipPath11)" font-family="sans-serif" stroke="none" xml:space="preserve">Option</text>
        </g>
        <g fill="rgb(255,255,255)" fill-opacity="0" transform="translate(670,120)" stroke-opacity="0" stroke="rgb(255,255,255)">
            <rect x="0.5" width="58.5" height="38.5" y="0.5" clip-path="url(#clipPath8)" stroke="none"/>
        </g>
        <g fill="blue" transform="translate(670,120)" stroke="blue">
            <rect fill="none" x="0.5" width="58.5" height="38.5" y="0.5" clip-path="url(#clipPath8)"/>
            <text x="5" font-size="14px" y="18.1094" clip-path="url(#clipPath8)" font-family="sans-serif" stroke="none" xml:space="preserve">Under-</text>
            <text x="5" font-size="14px" y="34.2188" clip-path="url(#clipPath8)" font-family="sans-serif" stroke="none" xml:space="preserve">lying</text>
        </g>
        <g fill="rgb(255,255,255)" fill-opacity="0" transform="translate(620,210)" stroke-opacity="0" stroke="rgb(255,255,255)">
            <rect x="0.5" width="108.5" height="28.5" y="0.5" clip-path="url(#clipPath9)" stroke="none"/>
        </g>
        <g fill="red" transform="translate(620,210)" stroke="red">
            <rect fill="none" x="0.5" width="108.5" height="28.5" y="0.5" clip-path="url(#clipPath9)"/>
            <text x="5" font-size="14px" y="18.1094" clip-path="url(#clipPath9)" font-family="sans-serif" stroke="none" xml:space="preserve">Position</text>
        </g>
        <g fill="rgb(255,255,255)" fill-opacity="0" transform="translate(620,240)" stroke-opacity="0" stroke="rgb(255,255,255)">
            <rect x="0.5" width="108.5" height="28.5" y="0.5" clip-path="url(#clipPath9)" stroke="none"/>
        </g>
        <g fill="red" transform="translate(620,240)" stroke="red">
            <rect fill="none" x="0.5" width="108.5" height="28.5" y="0.5" clip-path="url(#clipPath9)"/>
            <text x="5" font-size="14px" y="18.1094" clip-path="url(#clipPath9)" font-family="sans-serif" stroke="none" xml:space="preserve">Trade</text>
        </g>
        <g fill="rgb(255,255,255)" fill-opacity="0" transform="translate(620,90)" stroke-opacity="0" stroke="rgb(255,255,255)">
            <rect x="0.5" width="108.5" height="28.5" y="0.5" clip-path="url(#clipPath9)" stroke="none"/>
        </g>
        <g fill="rgb(171,71,188)" transform="translate(620,90)" stroke="rgb(171,71,188)">
            <rect fill="none" x="0.5" width="108.5" height="28.5" y="0.5" clip-path="url(#clipPath9)"/>
            <text x="5" font-size="14px" y="18.1094" clip-path="url(#clipPath9)" font-family="sans-serif" stroke="none" xml:space="preserve">Series</text>
        </g>
        <g fill="rgb(255,255,255)" fill-opacity="0" transform="translate(620,120)" stroke-opacity="0" stroke="rgb(255,255,255)">
            <rect x="0.5" width="48.5" height="88.5" y="0.5" clip-path="url(#clipPath10)" stroke="none"/>
        </g>
        <g fill="rgb(171,71,188)" transform="translate(620,120)" stroke="rgb(171,71,188)">
            <rect fill="none" x="0.5" width="48.5" height="88.5" y="0.5" clip-path="url(#clipPath10)"/>
            <text x="5" font-size="14px" y="18.1094" clip-path="url(#clipPath10)" font-family="sans-serif" stroke="none" xml:space="preserve">Asset</text>
        </g>
        <g fill="rgb(255,255,255)" fill-opacity="0" transform="translate(420,220)" stroke-opacity="0" stroke="rgb(255,255,255)">
            <rect x="0.5" width="98.5" height="38.5" y="0.5" clip-path="url(#clipPath6)" stroke="none"/>
        </g>
        <g fill="red" transform="translate(420,220)" stroke="red">
            <rect fill="none" x="0.5" width="98.5" height="38.5" y="0.5" clip-path="url(#clipPath6)"/>
            <text x="5" font-size="14px" y="18.1094" clip-path="url(#clipPath6)" font-family="sans-serif" stroke="none" xml:space="preserve">observe</text>
            <text x="5" font-size="14px" y="34.2188" clip-path="url(#clipPath6)" font-family="sans-serif" stroke="none" xml:space="preserve">-positions</text>
        </g>
        <g fill="rgb(255,255,255)" fill-opacity="0" transform="translate(420,150)" stroke-opacity="0" stroke="rgb(255,255,255)">
            <rect x="0.5" width="98.5" height="28.5" y="0.5" clip-path="url(#clipPath5)" stroke="none"/>
        </g>
        <g fill="red" transform="translate(420,150)" stroke="red">
            <rect fill="none" x="0.5" width="98.5" height="28.5" y="0.5" clip-path="url(#clipPath5)"/>
            <text x="5" font-size="14px" y="18.1094" clip-path="url(#clipPath5)" font-family="sans-serif" stroke="none" xml:space="preserve">observe</text>
        </g>
        <g fill="rgb(255,255,255)" fill-opacity="0" transform="translate(420,180)" stroke-opacity="0" stroke="rgb(255,255,255)">
            <rect x="0.5" width="98.5" height="38.5" y="0.5" clip-path="url(#clipPath6)" stroke="none"/>
        </g>
        <g fill="red" transform="translate(420,180)" stroke="red">
            <rect fill="none" x="0.5" width="98.5" height="38.5" y="0.5" clip-path="url(#clipPath6)"/>
            <text x="5" font-size="14px" y="18.1094" clip-path="url(#clipPath6)" font-family="sans-serif" stroke="none" xml:space="preserve">sync</text>
            <text x="5" font-size="14px" y="34.2188" clip-path="url(#clipPath6)" font-family="sans-serif" stroke="none" xml:space="preserve">-options</text>
        </g>
        <g fill="rgb(255,255,255)" fill-opacity="0" transform="translate(420,120)" stroke-opacity="0" stroke="rgb(255,255,255)">
            <rect x="0.5" width="98.5" height="28.5" y="0.5" clip-path="url(#clipPath5)" stroke="none"/>
        </g>
        <g fill="blue" transform="translate(420,120)" stroke="blue">
            <rect fill="none" x="0.5" width="98.5" height="28.5" y="0.5" clip-path="url(#clipPath5)"/>
            <text x="5" font-size="14px" y="18.1094" clip-path="url(#clipPath5)" font-family="sans-serif" stroke="none" xml:space="preserve">download</text>
        </g>
        <g stroke-dasharray="8,5" stroke-miterlimit="5" transform="translate(320,770)" stroke-linecap="butt">
            <path fill="none" d="M10.5 20.5 L100.5 20.5" clip-path="url(#clipPath12)"/>
            <path fill="none" stroke-miterlimit="10" stroke-dasharray="none" d="M21.7583 27 L10.5 20.5 L21.7583 14" clip-path="url(#clipPath12)" stroke-linecap="square"/>
        </g>
        <g font-family="sans-serif" font-size="14px" transform="translate(320,770)">
            <text x="35.1523" xml:space="preserve" y="32.1094" clip-path="url(#clipPath12)" stroke="none">Trade</text>
        </g>
        <g stroke-dasharray="8,5" stroke-miterlimit="5" transform="translate(320,450)" stroke-linecap="butt">
            <path fill="none" d="M100.5 20.5 L10.5 20.5" clip-path="url(#clipPath12)"/>
            <path fill="none" stroke-miterlimit="10" stroke-dasharray="none" d="M89.2417 14 L100.5 20.5 L89.2417 27" clip-path="url(#clipPath12)" stroke-linecap="square"/>
        </g>
        <g font-family="sans-serif" font-size="14px" transform="translate(320,450)">
            <text x="25.6733" xml:space="preserve" y="32.1094" clip-path="url(#clipPath12)" stroke="none">Strategy</text>
        </g>
        <g stroke-dasharray="8,5" stroke-miterlimit="5" transform="translate(720,130)" stroke-linecap="butt">
            <path fill="none" d="M10.5 20.5 L100.5 20.5" clip-path="url(#clipPath12)"/>
            <path fill="none" stroke-miterlimit="10" stroke-dasharray="none" d="M21.7583 27 L10.5 20.5 L21.7583 14" clip-path="url(#clipPath12)" stroke-linecap="square"/>
        </g>
        <g font-family="sans-serif" font-size="14px" transform="translate(720,130)">
            <text x="25.6733" xml:space="preserve" y="32.1094" clip-path="url(#clipPath12)" stroke="none">Strategy</text>
        </g>
        <g fill="red" stroke-miterlimit="5" stroke-dasharray="8,5" transform="translate(510,770)" stroke-linecap="butt" stroke="red">
            <path fill="none" d="M10.5 70.5 L60.5 70.5" clip-path="url(#clipPath13)"/>
            <path fill="none" d="M60.5 70.5 L110.5 10.5" clip-path="url(#clipPath13)"/>
            <path fill="none" stroke-miterlimit="10" stroke-dasharray="none" d="M21.7583 77 L10.5 70.5 L21.7583 64" clip-path="url(#clipPath13)" stroke-linecap="square"/>
        </g>
        <g fill="red" font-size="14px" font-family="sans-serif" transform="translate(510,770)" stroke="red">
            <text x="27.5073" xml:space="preserve" y="82.1094" clip-path="url(#clipPath13)" stroke="none">11</text>
        </g>
        <g fill="red" stroke-miterlimit="5" stroke-dasharray="8,5" transform="translate(510,740)" stroke-linecap="butt" stroke="red">
            <path fill="none" d="M10.5 80.5 L60.5 80.5" clip-path="url(#clipPath14)"/>
            <path fill="none" d="M60.5 80.5 L110.5 10.5" clip-path="url(#clipPath14)"/>
            <path fill="none" stroke-miterlimit="10" stroke-dasharray="none" d="M21.7583 87 L10.5 80.5 L21.7583 74" clip-path="url(#clipPath14)" stroke-linecap="square"/>
        </g>
        <g fill="red" font-size="14px" font-family="sans-serif" transform="translate(510,740)" stroke="red">
            <text x="27.3198" xml:space="preserve" y="92.1094" clip-path="url(#clipPath14)" stroke="none">10</text>
        </g>
        <g fill="red" stroke-miterlimit="5" stroke-dasharray="8,5" transform="translate(510,710)" stroke-linecap="butt" stroke="red">
            <path fill="none" d="M10.5 90.5 L40.5 90.5" clip-path="url(#clipPath15)"/>
            <path fill="none" d="M40.5 90.5 L100.5 10.5" clip-path="url(#clipPath15)"/>
            <path fill="none" d="M100.5 10.5 L160.5 10.5" clip-path="url(#clipPath15)"/>
            <path fill="none" stroke-miterlimit="10" stroke-dasharray="none" d="M21.7583 97 L10.5 90.5 L21.7583 84" clip-path="url(#clipPath15)" stroke-linecap="square"/>
        </g>
        <g fill="red" font-size="14px" font-family="sans-serif" transform="translate(510,710)" stroke="red">
            <text x="74" xml:space="preserve" y="58.0547" clip-path="url(#clipPath15)" stroke="none">9</text>
        </g>
        <g fill="blue" stroke-miterlimit="5" stroke-dasharray="8,5" transform="translate(510,620)" stroke-linecap="butt" stroke="blue">
            <path fill="none" d="M10.5 170.5 L40.5 150.5" clip-path="url(#clipPath16)"/>
            <path fill="none" d="M40.5 150.5 L100.5 10.5" clip-path="url(#clipPath16)"/>
            <path fill="none" d="M100.5 10.5 L110.5 10.5" clip-path="url(#clipPath16)"/>
            <path fill="none" stroke-miterlimit="10" stroke-dasharray="none" d="M23.473 169.6633 L10.5 170.5 L16.2619 158.8467" clip-path="url(#clipPath16)" stroke-linecap="square"/>
        </g>
        <g fill="blue" font-size="14px" font-family="sans-serif" transform="translate(510,620)" stroke="blue">
            <text x="74" xml:space="preserve" y="96.1094" clip-path="url(#clipPath16)" stroke="none">8</text>
        </g>
        <g fill="blue" stroke-miterlimit="5" stroke-dasharray="8,5" transform="translate(510,600)" stroke-linecap="butt" stroke="blue">
            <path fill="none" d="M110.5 20.5 L10.5 20.5" clip-path="url(#clipPath17)"/>
            <path fill="none" stroke-miterlimit="10" stroke-dasharray="none" d="M99.2417 14 L110.5 20.5 L99.2417 27" clip-path="url(#clipPath17)" stroke-linecap="square"/>
        </g>
        <g fill="blue" font-size="14px" font-family="sans-serif" transform="translate(510,600)" stroke="blue">
            <text x="56.7188" xml:space="preserve" y="32.1094" clip-path="url(#clipPath17)" stroke="none">7</text>
        </g>
        <g fill="blue" stroke-miterlimit="5" stroke-dasharray="8,5" transform="translate(510,620)" stroke-linecap="butt" stroke="blue">
            <path fill="none" d="M10.5 10.5 L30.5 10.5" clip-path="url(#clipPath18)"/>
            <path fill="none" d="M30.5 10.5 L40.5 50.5" clip-path="url(#clipPath18)"/>
            <path fill="none" d="M40.5 50.5 L160.5 50.5" clip-path="url(#clipPath18)"/>
            <path fill="none" stroke-miterlimit="10" stroke-dasharray="none" d="M21.7583 17 L10.5 10.5 L21.7583 4" clip-path="url(#clipPath18)" stroke-linecap="square"/>
        </g>
        <g fill="blue" font-size="14px" font-family="sans-serif" transform="translate(510,620)" stroke="blue">
            <text x="39" xml:space="preserve" y="46.1094" clip-path="url(#clipPath18)" stroke="none">6</text>
        </g>
        <g fill="red" stroke-miterlimit="5" stroke-dasharray="8,5" transform="translate(510,400)" stroke-linecap="butt" stroke="red">
            <path fill="none" d="M10.5 30.5 L40.5 20.5" clip-path="url(#clipPath19)"/>
            <path fill="none" d="M40.5 20.5 L130.5 20.5" clip-path="url(#clipPath19)"/>
            <path fill="none" d="M130.5 20.5 L160.5 30.5" clip-path="url(#clipPath19)"/>
            <path fill="none" stroke-miterlimit="10" stroke-dasharray="none" d="M23.2361 33.1062 L10.5 30.5 L19.1251 20.7734" clip-path="url(#clipPath19)" stroke-linecap="square"/>
        </g>
        <g fill="red" font-size="14px" font-family="sans-serif" transform="translate(510,400)" stroke="red">
            <text x="74.8604" xml:space="preserve" y="16" clip-path="url(#clipPath19)" stroke="none">4.1</text>
        </g>
        <g fill="red" stroke-miterlimit="5" stroke-dasharray="8,5" transform="translate(510,440)" stroke-linecap="butt" stroke="red">
            <path fill="none" d="M10.5 50.5 L40.5 20.5" clip-path="url(#clipPath18)"/>
            <path fill="none" d="M40.5 20.5 L130.5 20.5" clip-path="url(#clipPath18)"/>
            <path fill="none" d="M130.5 20.5 L160.5 10.5" clip-path="url(#clipPath18)"/>
            <path fill="none" stroke-miterlimit="10" stroke-dasharray="none" d="M23.057 47.1354 L10.5 50.5 L13.8646 37.943" clip-path="url(#clipPath18)" stroke-linecap="square"/>
        </g>
        <g fill="red" font-size="14px" font-family="sans-serif" transform="translate(510,440)" stroke="red">
            <text x="74.915" xml:space="preserve" y="32.1094" clip-path="url(#clipPath18)" stroke="none">4.2</text>
        </g>
        <g fill="red" stroke-miterlimit="5" stroke-dasharray="8,5" transform="translate(510,500)" stroke-linecap="butt" stroke="red">
            <path fill="none" d="M110.5 20.5 L40.5 20.5" clip-path="url(#clipPath17)"/>
            <path fill="none" d="M40.5 20.5 L10.5 10.5" clip-path="url(#clipPath17)"/>
            <path fill="none" stroke-miterlimit="10" stroke-dasharray="none" d="M99.2417 14 L110.5 20.5 L99.2417 27" clip-path="url(#clipPath17)" stroke-linecap="square"/>
        </g>
        <g fill="red" font-size="14px" font-family="sans-serif" transform="translate(510,500)" stroke="red">
            <text x="58.4316" xml:space="preserve" y="32.1094" clip-path="url(#clipPath17)" stroke="none">5.2.2</text>
        </g>
        <g fill="red" stroke-miterlimit="5" stroke-dasharray="8,5" transform="translate(510,340)" stroke-linecap="butt" stroke="red">
            <path fill="none" d="M110.5 20.5 L40.5 20.5" clip-path="url(#clipPath13)"/>
            <path fill="none" d="M40.5 20.5 L10.5 80.5" clip-path="url(#clipPath13)"/>
            <path fill="none" stroke-miterlimit="10" stroke-dasharray="none" d="M99.2417 14 L110.5 20.5 L99.2417 27" clip-path="url(#clipPath13)" stroke-linecap="square"/>
        </g>
        <g fill="red" font-size="14px" font-family="sans-serif" transform="translate(510,340)" stroke="red">
            <text x="65.0557" xml:space="preserve" y="32.1094" clip-path="url(#clipPath13)" stroke="none">5.1</text>
        </g>
        <g fill="red" stroke-miterlimit="5" stroke-dasharray="8,5" transform="translate(510,420)" stroke-linecap="butt" stroke="red">
            <path fill="none" d="M160.5 20.5 L40.5 20.5" clip-path="url(#clipPath19)"/>
            <path fill="none" d="M40.5 20.5 L10.5 30.5" clip-path="url(#clipPath19)"/>
            <path fill="none" stroke-miterlimit="10" stroke-dasharray="none" d="M149.2417 14 L160.5 20.5 L149.2417 27" clip-path="url(#clipPath19)" stroke-linecap="square"/>
        </g>
        <g fill="red" font-size="14px" font-family="sans-serif" transform="translate(510,420)" stroke="red">
            <text x="96.6406" xml:space="preserve" y="32.1094" clip-path="url(#clipPath19)" stroke="none">3</text>
        </g>
        <g fill="red" stroke-miterlimit="5" stroke-dasharray="8,5" transform="translate(510,470)" stroke-linecap="butt" stroke="red">
            <path fill="none" d="M110.5 20.5 L40.5 20.5" clip-path="url(#clipPath17)"/>
            <path fill="none" d="M40.5 20.5 L10.5 30.5" clip-path="url(#clipPath17)"/>
            <path fill="none" stroke-miterlimit="10" stroke-dasharray="none" d="M99.2417 14 L110.5 20.5 L99.2417 27" clip-path="url(#clipPath17)" stroke-linecap="square"/>
        </g>
        <g fill="red" font-size="14px" font-family="sans-serif" transform="translate(510,470)" stroke="red">
            <text x="58.377" xml:space="preserve" y="32.1094" clip-path="url(#clipPath17)" stroke="none">5.2.1</text>
        </g>
        <g fill="blue" stroke-miterlimit="5" stroke-dasharray="8,5" transform="translate(510,120)" stroke-linecap="butt" stroke="blue">
            <path fill="none" d="M10.5 20.5 L50.5 30.5" clip-path="url(#clipPath19)"/>
            <path fill="none" d="M50.5 30.5 L160.5 30.5" clip-path="url(#clipPath19)"/>
            <path fill="none" stroke-miterlimit="10" stroke-dasharray="none" d="M19.8457 29.5365 L10.5 20.5 L22.9987 16.9246" clip-path="url(#clipPath19)" stroke-linecap="square"/>
        </g>
        <g fill="blue" font-size="14px" font-family="sans-serif" transform="translate(510,120)" stroke="blue">
            <text x="26.9609" xml:space="preserve" y="37.1094" clip-path="url(#clipPath19)" stroke="none">1</text>
        </g>
        <g fill="blue" stroke-miterlimit="5" stroke-dasharray="8,5" transform="translate(510,80)" stroke-linecap="butt" stroke="blue">
            <path fill="none" d="M110.5 20.5 L50.5 20.5" clip-path="url(#clipPath20)"/>
            <path fill="none" d="M50.5 20.5 L10.5 50.5" clip-path="url(#clipPath20)"/>
            <path fill="none" stroke-miterlimit="10" stroke-dasharray="none" d="M99.2417 14 L110.5 20.5 L99.2417 27" clip-path="url(#clipPath20)" stroke-linecap="square"/>
        </g>
        <g fill="blue" font-size="14px" font-family="sans-serif" transform="translate(510,80)" stroke="blue">
            <text x="76.7656" xml:space="preserve" y="32.1094" clip-path="url(#clipPath20)" stroke="none">2</text>
        </g>
    </g>
</svg>
