<?xml version="1.0" encoding="UTF-8"?><!DOCTYPE svg PUBLIC '-//W3C//DTD SVG 1.0//EN'
        'http://www.w3.org/TR/2001/REC-SVG-20010904/DTD/svg10.dtd'>
<svg fill-opacity="1" color-rendering="auto" color-interpolation="auto" text-rendering="auto" stroke="black" stroke-linecap="square" width="660" stroke-miterlimit="10" shape-rendering="auto" stroke-opacity="1" fill="black" stroke-dasharray="none" font-weight="normal" stroke-width="1" viewBox="170 90 660 330" height="330" xmlns="http://www.w3.org/2000/svg" font-family="'Dialog'" font-style="normal" stroke-linejoin="miter" font-size="12px" stroke-dashoffset="0" image-rendering="auto"><!--Generated by the Batik Graphics2D SVG Generator-->
    <defs id="genericDefs"/>
    <g>
        <defs id="defs1">
            <clipPath clipPathUnits="userSpaceOnUse" id="clipPath1">
                <path d="M0 0 L2147483647 0 L2147483647 2147483647 L0 2147483647 L0 0 Z"/>
            </clipPath>
            <clipPath clipPathUnits="userSpaceOnUse" id="clipPath2">
                <path d="M0 0 L0 290 L590 290 L590 0 Z"/>
            </clipPath>
            <clipPath clipPathUnits="userSpaceOnUse" id="clipPath3">
                <path d="M0 0 L0 30 L130 30 L130 0 Z"/>
            </clipPath>
            <clipPath clipPathUnits="userSpaceOnUse" id="clipPath4">
                <path d="M0 0 L0 70 L190 70 L190 0 Z"/>
            </clipPath>
            <clipPath clipPathUnits="userSpaceOnUse" id="clipPath5">
                <path d="M0 0 L0 40 L90 40 L90 0 Z"/>
            </clipPath>
            <clipPath clipPathUnits="userSpaceOnUse" id="clipPath6">
                <path d="M0 0 L0 30 L80 30 L80 0 Z"/>
            </clipPath>
            <clipPath clipPathUnits="userSpaceOnUse" id="clipPath7">
                <path d="M0 0 L0 180 L120 180 L120 0 Z"/>
            </clipPath>
            <clipPath clipPathUnits="userSpaceOnUse" id="clipPath8">
                <path d="M0 0 L0 230 L130 230 L130 0 Z"/>
            </clipPath>
            <clipPath clipPathUnits="userSpaceOnUse" id="clipPath9">
                <path d="M0 0 L0 30 L90 30 L90 0 Z"/>
            </clipPath>
            <clipPath clipPathUnits="userSpaceOnUse" id="clipPath10">
                <path d="M0 0 L0 40 L70 40 L70 0 Z"/>
            </clipPath>
            <clipPath clipPathUnits="userSpaceOnUse" id="clipPath11">
                <path d="M0 0 L0 50 L30 50 L30 0 Z"/>
            </clipPath>
            <clipPath clipPathUnits="userSpaceOnUse" id="clipPath12">
                <path d="M0 0 L0 30 L110 30 L110 0 Z"/>
            </clipPath>
            <clipPath clipPathUnits="userSpaceOnUse" id="clipPath13">
                <path d="M0 0 L0 80 L110 80 L110 0 Z"/>
            </clipPath>
        </defs>
        <g fill="white" transform="translate(190,110)" stroke="white">
            <rect x="0.5" width="588.5" height="288.5" y="0.5" clip-path="url(#clipPath2)" stroke="none"/>
            <rect fill="none" x="0.5" width="588.5" height="288.5" y="0.5" clip-path="url(#clipPath2)"/>
        </g>
        <g font-family="sans-serif" font-size="14px" transform="translate(310,350)">
            <text x="5" xml:space="preserve" y="18.1094" clip-path="url(#clipPath3)" stroke="none">Common Object</text>
        </g>
        <g font-family="sans-serif" font-size="14px" transform="translate(620,280)">
            <text x="5" xml:space="preserve" y="18.1094" clip-path="url(#clipPath4)" stroke="none">called:</text>
            <text x="5" xml:space="preserve" y="34.2188" clip-path="url(#clipPath4)" stroke="none">FooJsonStore if JSON</text>
            <text x="5" xml:space="preserve" y="50.3281" clip-path="url(#clipPath4)" stroke="none">FooCsvStore if CSV</text>
        </g>
        <g font-family="sans-serif" font-size="14px" transform="translate(200,290)">
            <text x="5" xml:space="preserve" y="18.1094" clip-path="url(#clipPath5)" stroke="none">Template</text>
            <text x="5" xml:space="preserve" y="34.2188" clip-path="url(#clipPath5)" stroke="none">Object</text>
        </g>
        <g fill="rgb(255,255,255)" fill-opacity="0" transform="translate(630,130)" stroke-opacity="0" stroke="rgb(255,255,255)">
            <rect x="0.5" width="78.5" height="28.5" y="0.5" clip-path="url(#clipPath6)" stroke="none"/>
        </g>
        <g fill="rgb(120,120,120)" transform="translate(630,130)" stroke="rgb(120,120,120)">
            <rect fill="none" x="0.5" width="78.5" height="28.5" y="0.5" clip-path="url(#clipPath6)"/>
            <text x="5" font-size="14px" y="18.1094" clip-path="url(#clipPath6)" font-family="sans-serif" stroke="none" xml:space="preserve">MainApp</text>
        </g>
        <g fill="rgb(255,255,255)" fill-opacity="0" transform="translate(630,180)" stroke-opacity="0" stroke="rgb(255,255,255)">
            <rect x="0.5" width="78.5" height="28.5" y="0.5" clip-path="url(#clipPath6)" stroke="none"/>
        </g>
        <g fill="red" transform="translate(630,180)" stroke="red">
            <rect fill="none" x="0.5" width="78.5" height="28.5" y="0.5" clip-path="url(#clipPath6)"/>
            <text x="5" font-size="14px" y="18.1094" clip-path="url(#clipPath6)" font-family="sans-serif" stroke="none" xml:space="preserve">BarJob</text>
        </g>
        <g fill="rgb(255,255,255)" fill-opacity="0" transform="translate(300,150)" stroke-opacity="0" stroke="rgb(255,255,255)">
            <rect x="0.5" width="118.5" height="178.5" y="0.5" clip-path="url(#clipPath7)" stroke="none"/>
        </g>
        <g fill="rgb(120,120,120)" stroke-miterlimit="5" stroke-dasharray="8,5" transform="translate(300,150)" stroke-linecap="butt" stroke="rgb(120,120,120)">
            <rect fill="none" x="0.5" width="118.5" height="178.5" y="0.5" clip-path="url(#clipPath7)"/>
            <text x="5" font-size="14px" y="18.1094" clip-path="url(#clipPath7)" font-family="sans-serif" stroke="none" xml:space="preserve">model</text>
        </g>
        <g fill="rgb(255,255,255)" fill-opacity="0" transform="translate(460,150)" stroke-opacity="0" stroke="rgb(255,255,255)">
            <rect x="0.5" width="128.5" height="228.5" y="0.5" clip-path="url(#clipPath8)" stroke="none"/>
        </g>
        <g fill="rgb(120,120,120)" stroke-miterlimit="5" stroke-dasharray="8,5" transform="translate(460,150)" stroke-linecap="butt" stroke="rgb(120,120,120)">
            <rect fill="none" x="0.5" width="128.5" height="228.5" y="0.5" clip-path="url(#clipPath8)"/>
            <text x="5" font-size="14px" y="18.1094" clip-path="url(#clipPath8)" font-family="sans-serif" stroke="none" xml:space="preserve">store</text>
        </g>
        <g fill="rgb(255,255,255)" fill-opacity="0" transform="translate(480,230)" stroke-opacity="0" stroke="rgb(255,255,255)">
            <rect x="0.5" width="78.5" height="28.5" y="0.5" clip-path="url(#clipPath6)" stroke="none"/>
        </g>
        <g fill="rgb(120,120,120)" transform="translate(480,230)" stroke="rgb(120,120,120)">
            <rect fill="none" x="0.5" width="78.5" height="28.5" y="0.5" clip-path="url(#clipPath6)"/>
            <text x="5" font-size="14px" y="18.1094" clip-path="url(#clipPath6)" font-family="sans-serif" stroke="none" xml:space="preserve">Mapper</text>
        </g>
        <g fill="rgb(255,255,255)" fill-opacity="0" transform="translate(480,330)" stroke-opacity="0" stroke="rgb(255,255,255)">
            <rect x="0.5" width="88.5" height="28.5" y="0.5" clip-path="url(#clipPath9)" stroke="none"/>
        </g>
        <g fill="rgb(120,120,120)" transform="translate(480,330)" stroke="rgb(120,120,120)">
            <rect fill="none" x="0.5" width="88.5" height="28.5" y="0.5" clip-path="url(#clipPath9)"/>
            <text x="5" font-size="14px" y="18.1094" clip-path="url(#clipPath9)" font-family="sans-serif" stroke="none" xml:space="preserve">H2 Session</text>
        </g>
        <g fill="rgb(255,255,255)" fill-opacity="0" transform="translate(630,230)" stroke-opacity="0" stroke="rgb(255,255,255)">
            <rect x="0.5" width="78.5" height="28.5" y="0.5" clip-path="url(#clipPath6)" stroke="none"/>
        </g>
        <g fill="rgb(120,120,120)" transform="translate(630,230)" stroke="rgb(120,120,120)">
            <rect fill="none" x="0.5" width="78.5" height="28.5" y="0.5" clip-path="url(#clipPath6)"/>
            <text x="5" font-size="14px" y="18.1094" clip-path="url(#clipPath6)" font-family="sans-serif" stroke="none" xml:space="preserve">Navigator</text>
        </g>
        <g fill="rgb(255,255,255)" fill-opacity="0" transform="translate(480,180)" stroke-opacity="0" stroke="rgb(255,255,255)">
            <rect x="0.5" width="88.5" height="28.5" y="0.5" clip-path="url(#clipPath9)" stroke="none"/>
        </g>
        <g fill="blue" transform="translate(480,180)" stroke="blue">
            <rect fill="none" x="0.5" width="88.5" height="28.5" y="0.5" clip-path="url(#clipPath9)"/>
            <text x="5" font-size="14px" y="18.1094" clip-path="url(#clipPath9)" font-family="sans-serif" stroke="none" xml:space="preserve">FooService</text>
        </g>
        <g fill="rgb(255,255,255)" fill-opacity="0" transform="translate(320,180)" stroke-opacity="0" stroke="rgb(255,255,255)">
            <rect x="0.5" width="78.5" height="28.5" y="0.5" clip-path="url(#clipPath6)" stroke="none"/>
        </g>
        <g fill="blue" transform="translate(320,180)" stroke="blue">
            <rect fill="none" x="0.5" width="78.5" height="28.5" y="0.5" clip-path="url(#clipPath6)"/>
            <text x="5" font-size="14px" y="18.1094" clip-path="url(#clipPath6)" font-family="sans-serif" stroke="none" xml:space="preserve">FooDto</text>
        </g>
        <g fill="rgb(255,255,255)" fill-opacity="0" transform="translate(480,280)" stroke-opacity="0" stroke="rgb(255,255,255)">
            <rect x="0.5" width="78.5" height="28.5" y="0.5" clip-path="url(#clipPath6)" stroke="none"/>
        </g>
        <g fill="blue" transform="translate(480,280)" stroke="blue">
            <rect fill="none" x="0.5" width="78.5" height="28.5" y="0.5" clip-path="url(#clipPath6)"/>
            <text x="5" font-size="14px" y="18.1094" clip-path="url(#clipPath6)" font-family="sans-serif" stroke="none" xml:space="preserve">FooRepo</text>
        </g>
        <g fill="rgb(255,255,255)" fill-opacity="0" transform="translate(320,280)" stroke-opacity="0" stroke="rgb(255,255,255)">
            <rect x="0.5" width="78.5" height="28.5" y="0.5" clip-path="url(#clipPath6)" stroke="none"/>
        </g>
        <g fill="blue" transform="translate(320,280)" stroke="blue">
            <rect fill="none" x="0.5" width="78.5" height="28.5" y="0.5" clip-path="url(#clipPath6)"/>
            <text x="5" font-size="14px" y="18.1094" clip-path="url(#clipPath6)" font-family="sans-serif" stroke="none" xml:space="preserve">FooEntity</text>
        </g>
        <g stroke-dasharray="8,5" stroke-miterlimit="5" transform="translate(550,290)" stroke-linecap="butt">
            <path fill="none" d="M70.5 20.5 L10.5 10.5" clip-path="url(#clipPath5)"/>
        </g>
        <g stroke-dasharray="8,5" stroke-miterlimit="5" transform="translate(430,340)" stroke-linecap="butt">
            <path fill="none" d="M10.5 20.5 L50.5 10.5" clip-path="url(#clipPath10)"/>
        </g>
        <g stroke-dasharray="8,5" stroke-miterlimit="5" transform="translate(270,290)" stroke-linecap="butt">
            <path fill="none" d="M10.5 20.5 L50.5 10.5" clip-path="url(#clipPath10)"/>
        </g>
        <g fill="rgb(120,120,120)" stroke-miterlimit="5" stroke-dasharray="8,5" transform="translate(640,150)" stroke-linecap="butt" stroke="rgb(120,120,120)">
            <path fill="none" d="M10.5 30.5 L10.5 10.5" clip-path="url(#clipPath11)"/>
        </g>
        <g fill="rgb(120,120,120)" stroke-miterlimit="5" stroke-dasharray="8,5" transform="translate(560,180)" stroke-linecap="butt" stroke="rgb(120,120,120)">
            <path fill="none" d="M70.5 10.5 L10.5 10.5" clip-path="url(#clipPath9)"/>
        </g>
        <g fill="rgb(120,120,120)" stroke-miterlimit="5" stroke-dasharray="8,5" transform="translate(640,200)" stroke-linecap="butt" stroke="rgb(120,120,120)">
            <path fill="none" d="M10.5 30.5 L10.5 10.5" clip-path="url(#clipPath11)"/>
        </g>
        <g fill="rgb(120,120,120)" stroke-miterlimit="5" stroke-dasharray="8,5" transform="translate(390,280)" stroke-linecap="butt" stroke="rgb(120,120,120)">
            <path fill="none" d="M90.5 10.5 L10.5 10.5" clip-path="url(#clipPath12)"/>
        </g>
        <g fill="rgb(120,120,120)" stroke-miterlimit="5" stroke-dasharray="8,5" transform="translate(390,180)" stroke-linecap="butt" stroke="rgb(120,120,120)">
            <path fill="none" d="M90.5 10.5 L10.5 10.5" clip-path="url(#clipPath12)"/>
        </g>
        <g fill="rgb(120,120,120)" stroke-miterlimit="5" stroke-dasharray="8,5" transform="translate(390,180)" stroke-linecap="butt" stroke="rgb(120,120,120)">
            <path fill="none" d="M90.5 60.5 L10.5 10.5" clip-path="url(#clipPath13)"/>
        </g>
        <g fill="rgb(120,120,120)" stroke-miterlimit="5" stroke-dasharray="8,5" transform="translate(390,230)" stroke-linecap="butt" stroke="rgb(120,120,120)">
            <path fill="none" d="M90.5 10.5 L10.5 60.5" clip-path="url(#clipPath13)"/>
        </g>
        <g fill="rgb(120,120,120)" stroke-miterlimit="5" stroke-dasharray="8,5" transform="translate(490,300)" stroke-linecap="butt" stroke="rgb(120,120,120)">
            <path fill="none" d="M10.5 30.5 L10.5 10.5" clip-path="url(#clipPath11)"/>
        </g>
    </g>
</svg>
