<?xml version="1.0" encoding="UTF-8"?><!DOCTYPE svg PUBLIC '-//W3C//DTD SVG 1.0//EN'
        'http://www.w3.org/TR/2001/REC-SVG-20010904/DTD/svg10.dtd'><!--suppress ALL -->
<svg fill-opacity="1" color-rendering="auto" color-interpolation="auto" text-rendering="auto" stroke="black" stroke-linecap="square" width="400" stroke-miterlimit="10" shape-rendering="auto" stroke-opacity="1" fill="black" stroke-dasharray="none" font-weight="normal" stroke-width="1" viewBox="300 330 400 290" height="290" xmlns="http://www.w3.org/2000/svg" font-family="'Dialog'" font-style="normal" stroke-linejoin="miter" font-size="12px" stroke-dashoffset="0" image-rendering="auto"><!--Generated by the Batik Graphics2D SVG Generator-->
    <defs id="genericDefs"/>
    <g>
        <defs id="defs1">
            <clipPath clipPathUnits="userSpaceOnUse" id="clipPath1">
                <path d="M0 0 L2147483647 0 L2147483647 2147483647 L0 2147483647 L0 0 Z"/>
            </clipPath>
            <clipPath clipPathUnits="userSpaceOnUse" id="clipPath2">
                <path d="M0 0 L0 20 L100 20 L100 0 Z"/>
            </clipPath>
            <clipPath clipPathUnits="userSpaceOnUse" id="clipPath3">
                <path d="M0 0 L0 90 L30 90 L30 0 Z"/>
            </clipPath>
            <clipPath clipPathUnits="userSpaceOnUse" id="clipPath4">
                <path d="M0 0 L0 50 L80 50 L80 0 Z"/>
            </clipPath>
            <clipPath clipPathUnits="userSpaceOnUse" id="clipPath5">
                <path d="M0 0 L0 60 L80 60 L80 0 Z"/>
            </clipPath>
            <clipPath clipPathUnits="userSpaceOnUse" id="clipPath6">
                <path d="M0 0 L0 60 L30 60 L30 0 Z"/>
            </clipPath>
            <clipPath clipPathUnits="userSpaceOnUse" id="clipPath7">
                <path d="M0 0 L0 70 L30 70 L30 0 Z"/>
            </clipPath>
            <clipPath clipPathUnits="userSpaceOnUse" id="clipPath8">
                <path d="M0 0 L0 30 L130 30 L130 0 Z"/>
            </clipPath>
        </defs>
        <g fill="rgb(21,101,192)" fill-opacity="0.2" transform="translate(320,550)" stroke-opacity="0.2" stroke="rgb(21,101,192)">
            <rect x="0.5" width="98.5" height="18.5" y="0.5" clip-path="url(#clipPath2)" stroke="none"/>
        </g>
        <g transform="translate(320,550)">
            <rect fill="none" x="0.5" width="98.5" height="18.5" y="0.5" clip-path="url(#clipPath2)"/>
            <text x="5" font-size="14px" y="14.9844" clip-path="url(#clipPath2)" font-family="sans-serif" stroke="none" xml:space="preserve">ObserveTwJob</text>
        </g>
        <g fill="rgb(46,125,50)" fill-opacity="0.2" transform="translate(580,570)" stroke-opacity="0.2" stroke="rgb(46,125,50)">
            <rect x="0.5" width="98.5" height="18.5" y="0.5" clip-path="url(#clipPath2)" stroke="none"/>
        </g>
        <g transform="translate(580,570)">
            <rect fill="none" x="0.5" width="98.5" height="18.5" y="0.5" clip-path="url(#clipPath2)"/>
            <text x="5" font-size="14px" y="14.9844" clip-path="url(#clipPath2)" font-family="sans-serif" stroke="none" xml:space="preserve">FetchAware</text>
        </g>
        <g fill="rgb(46,125,50)" fill-opacity="0.2" transform="translate(580,520)" stroke-opacity="0.2" stroke="rgb(46,125,50)">
            <rect x="0.5" width="98.5" height="18.5" y="0.5" clip-path="url(#clipPath2)" stroke="none"/>
        </g>
        <g transform="translate(580,520)">
            <rect fill="none" x="0.5" width="98.5" height="18.5" y="0.5" clip-path="url(#clipPath2)"/>
            <text x="5" font-size="14px" y="14.9844" clip-path="url(#clipPath2)" font-family="sans-serif" stroke="none" xml:space="preserve">AObserver</text>
        </g>
        <g fill="rgb(21,101,192)" fill-opacity="0.2" transform="translate(430,550)" stroke-opacity="0.2" stroke="rgb(21,101,192)">
            <rect x="0.5" width="98.5" height="18.5" y="0.5" clip-path="url(#clipPath2)" stroke="none"/>
        </g>
        <g transform="translate(430,550)">
            <rect fill="none" x="0.5" width="98.5" height="18.5" y="0.5" clip-path="url(#clipPath2)"/>
            <text x="5" font-size="14px" y="14.9844" clip-path="url(#clipPath2)" font-family="sans-serif" stroke="none" xml:space="preserve">TradeSqJob</text>
        </g>
        <g fill="rgb(46,125,50)" fill-opacity="0.2" transform="translate(580,470)" stroke-opacity="0.2" stroke="rgb(46,125,50)">
            <rect x="0.5" width="98.5" height="18.5" y="0.5" clip-path="url(#clipPath2)" stroke="none"/>
        </g>
        <g transform="translate(580,470)">
            <rect fill="none" x="0.5" width="98.5" height="18.5" y="0.5" clip-path="url(#clipPath2)"/>
            <text x="5" font-size="14px" y="14.9844" clip-path="url(#clipPath2)" font-family="sans-serif" stroke="none" xml:space="preserve">LockAware</text>
        </g>
        <g fill="rgb(21,101,192)" fill-opacity="0.2" transform="translate(380,470)" stroke-opacity="0.2" stroke="rgb(21,101,192)">
            <rect x="0.5" width="98.5" height="18.5" y="0.5" clip-path="url(#clipPath2)" stroke="none"/>
        </g>
        <g transform="translate(380,470)">
            <rect fill="none" x="0.5" width="98.5" height="18.5" y="0.5" clip-path="url(#clipPath2)"/>
            <text x="5" font-size="14px" y="14.9844" clip-path="url(#clipPath2)" font-family="sans-serif" font-style="italic" stroke="none" xml:space="preserve">SJob</text>
        </g>
        <g fill="rgb(21,101,192)" fill-opacity="0.2" transform="translate(380,410)" stroke-opacity="0.2" stroke="rgb(21,101,192)">
            <rect x="0.5" width="98.5" height="18.5" y="0.5" clip-path="url(#clipPath2)" stroke="none"/>
        </g>
        <g transform="translate(380,410)">
            <rect fill="none" x="0.5" width="98.5" height="18.5" y="0.5" clip-path="url(#clipPath2)"/>
            <text x="5" font-size="14px" y="14.9844" clip-path="url(#clipPath2)" font-family="sans-serif" font-style="italic" stroke="none" xml:space="preserve">Job</text>
        </g>
        <g fill="rgb(21,101,192)" fill-opacity="0.2" transform="translate(380,350)" stroke-opacity="0.2" stroke="rgb(21,101,192)">
            <rect x="0.5" width="98.5" height="18.5" y="0.5" clip-path="url(#clipPath2)" stroke="none"/>
        </g>
        <g transform="translate(380,350)">
            <rect fill="none" x="0.5" width="98.5" height="18.5" y="0.5" clip-path="url(#clipPath2)"/>
            <text x="5" font-size="14px" y="14.9844" clip-path="url(#clipPath2)" font-family="sans-serif" font-style="italic" stroke="none" xml:space="preserve">CtxAware</text>
        </g>
        <g stroke-dasharray="8,5" stroke-miterlimit="5" transform="translate(390,480)" stroke-linecap="butt">
            <path fill="none" d="M10.5 11.5 L10.5 70.5" clip-path="url(#clipPath3)"/>
            <path fill="white" d="M4 22.2583 L10.5 11 L17 22.2583 Z" clip-path="url(#clipPath3)" stroke="none"/>
            <path fill="none" stroke-miterlimit="10" stroke-dasharray="none" d="M4 22.2583 L10.5 11 L17 22.2583 Z" clip-path="url(#clipPath3)" stroke-linecap="square"/>
        </g>
        <g transform="translate(520,550)">
            <path fill="none" d="M11.4285 10.8714 L60.5 30.5" clip-path="url(#clipPath4)"/>
            <path fill="white" d="M19.0033 20.902 L10.9642 10.6857 L23.8314 8.8318 Z" clip-path="url(#clipPath4)" stroke="none"/>
            <path fill="none" d="M19.0033 20.902 L10.9642 10.6857 L23.8314 8.8318 Z" clip-path="url(#clipPath4)"/>
        </g>
        <g transform="translate(520,520)">
            <path fill="none" d="M11.3575 39.9855 L60.5 10.5" clip-path="url(#clipPath5)"/>
            <path fill="white" d="M23.9269 40.0241 L10.9287 40.2428 L17.2385 28.8767 Z" clip-path="url(#clipPath5)" stroke="none"/>
            <path fill="none" d="M23.9269 40.0241 L10.9287 40.2428 L17.2385 28.8767 Z" clip-path="url(#clipPath5)"/>
        </g>
        <g stroke-dasharray="8,5" stroke-miterlimit="5" transform="translate(620,480)" stroke-linecap="butt">
            <path fill="none" d="M10.5 11.5 L10.5 40.5" clip-path="url(#clipPath6)"/>
            <path fill="white" d="M4 22.2583 L10.5 11 L17 22.2583 Z" clip-path="url(#clipPath6)" stroke="none"/>
            <path fill="none" stroke-miterlimit="10" stroke-dasharray="none" d="M4 22.2583 L10.5 11 L17 22.2583 Z" clip-path="url(#clipPath6)" stroke-linecap="square"/>
        </g>
        <g stroke-dasharray="8,5" stroke-miterlimit="5" transform="translate(450,480)" stroke-linecap="butt">
            <path fill="none" d="M10.5 11.5 L10.5 70.5" clip-path="url(#clipPath3)"/>
            <path fill="white" d="M4 22.2583 L10.5 11 L17 22.2583 Z" clip-path="url(#clipPath3)" stroke="none"/>
            <path fill="none" stroke-miterlimit="10" stroke-dasharray="none" d="M4 22.2583 L10.5 11 L17 22.2583 Z" clip-path="url(#clipPath3)" stroke-linecap="square"/>
        </g>
        <g stroke-dasharray="8,5" stroke-miterlimit="5" transform="translate(420,420)" stroke-linecap="butt">
            <path fill="none" d="M10.5 11.5 L10.5 50.5" clip-path="url(#clipPath7)"/>
            <path fill="white" d="M4 22.2583 L10.5 11 L17 22.2583 Z" clip-path="url(#clipPath7)" stroke="none"/>
            <path fill="none" stroke-miterlimit="10" stroke-dasharray="none" d="M4 22.2583 L10.5 11 L17 22.2583 Z" clip-path="url(#clipPath7)" stroke-linecap="square"/>
        </g>
        <g transform="translate(470,470)">
            <path fill="none" d="M11.5 10.5 L110.5 10.5" clip-path="url(#clipPath8)"/>
            <path fill="white" d="M22.2583 17 L11 10.5 L22.2583 4 Z" clip-path="url(#clipPath8)" stroke="none"/>
            <path fill="none" d="M22.2583 17 L11 10.5 L22.2583 4 Z" clip-path="url(#clipPath8)"/>
        </g>
        <g stroke-dasharray="8,5" stroke-miterlimit="5" transform="translate(420,360)" stroke-linecap="butt">
            <path fill="none" d="M10.5 11.5 L10.5 50.5" clip-path="url(#clipPath7)"/>
            <path fill="white" d="M4 22.2583 L10.5 11 L17 22.2583 Z" clip-path="url(#clipPath7)" stroke="none"/>
            <path fill="none" stroke-miterlimit="10" stroke-dasharray="none" d="M4 22.2583 L10.5 11 L17 22.2583 Z" clip-path="url(#clipPath7)" stroke-linecap="square"/>
        </g>
    </g>
</svg>
