<?xml version="1.0" encoding="UTF-8"?><!DOCTYPE svg PUBLIC '-//W3C//DTD SVG 1.0//EN'
        'http://www.w3.org/TR/2001/REC-SVG-20010904/DTD/svg10.dtd'><!--suppress ALL -->
<svg fill-opacity="1" xmlns:xlink="http://www.w3.org/1999/xlink" color-rendering="auto" color-interpolation="auto" text-rendering="auto" stroke="black" stroke-linecap="square" width="600" stroke-miterlimit="10" shape-rendering="auto" stroke-opacity="1" fill="black" stroke-dasharray="none" font-weight="normal" stroke-width="1" viewBox="360 370 600 240" height="240" xmlns="http://www.w3.org/2000/svg" font-family="'Dialog'" font-style="normal" stroke-linejoin="miter" font-size="12px" stroke-dashoffset="0" image-rendering="auto"><!--Generated by the Batik Graphics2D SVG Generator-->
    <defs id="genericDefs"/>
    <g>
        <defs id="defs1">
            <clipPath clipPathUnits="userSpaceOnUse" id="clipPath1">
                <path d="M0 0 L2147483647 0 L2147483647 2147483647 L0 2147483647 L0 0 Z"/>
            </clipPath>
            <clipPath clipPathUnits="userSpaceOnUse" id="clipPath2">
                <path d="M0 0 L0 200 L560 200 L560 0 Z"/>
            </clipPath>
            <clipPath clipPathUnits="userSpaceOnUse" id="clipPath3">
                <path d="M0 0 L0 20 L90 20 L90 0 Z"/>
            </clipPath>
            <clipPath clipPathUnits="userSpaceOnUse" id="clipPath4">
                <path d="M0 0 L0 100 L90 100 L90 0 Z"/>
            </clipPath>
            <clipPath clipPathUnits="userSpaceOnUse" id="clipPath5">
                <path d="M0 0 L0 60 L90 60 L90 0 Z"/>
            </clipPath>
            <clipPath clipPathUnits="userSpaceOnUse" id="clipPath6">
                <path d="M0 0 L0 180 L90 180 L90 0 Z"/>
            </clipPath>
            <clipPath clipPathUnits="userSpaceOnUse" id="clipPath7">
                <path d="M0 0 L0 30 L90 30 L90 0 Z"/>
            </clipPath>
        </defs>
        <g fill="white" transform="translate(380,390)" stroke="white">
            <rect x="0.5" width="558.5" height="198.5" y="0.5" clip-path="url(#clipPath2)" stroke="none"/>
            <rect fill="none" x="0.5" width="558.5" height="198.5" y="0.5" clip-path="url(#clipPath2)"/>
        </g>
        <g fill="rgb(21,101,192)" fill-opacity="0.2" transform="translate(540,560)" stroke-opacity="0.2" stroke="rgb(21,101,192)">
            <rect x="0.5" width="88.5" height="18.5" y="0.5" clip-path="url(#clipPath3)" stroke="none"/>
        </g>
        <g transform="translate(540,560)">
            <rect fill="none" x="0.5" width="88.5" height="18.5" y="0.5" clip-path="url(#clipPath3)"/>
            <text x="5" font-size="14px" y="15.0547" clip-path="url(#clipPath3)" font-family="sans-serif" stroke="none" xml:space="preserve">paper-obs-tw</text>
        </g>
        <g fill="rgb(21,101,192)" fill-opacity="0.2" transform="translate(540,520)" stroke-opacity="0.2" stroke="rgb(21,101,192)">
            <rect x="0.5" width="88.5" height="18.5" y="0.5" clip-path="url(#clipPath3)" stroke="none"/>
        </g>
        <g transform="translate(540,520)">
            <rect fill="none" x="0.5" width="88.5" height="18.5" y="0.5" clip-path="url(#clipPath3)"/>
            <text x="5" font-size="14px" y="15.0547" clip-path="url(#clipPath3)" font-family="sans-serif" stroke="none" xml:space="preserve">read-tmp-csv-to-db</text>
        </g>
        <g fill="rgb(154,106,27)" fill-opacity="0.2" transform="translate(690,480)" stroke-opacity="0.2" stroke="rgb(154,106,27)">
            <rect x="0.5" width="88.5" height="98.5" y="0.5" clip-path="url(#clipPath4)" stroke="none"/>
        </g>
        <g transform="translate(690,480)">
            <rect fill="none" x="0.5" width="88.5" height="98.5" y="0.5" clip-path="url(#clipPath4)"/>
            <text x="5" font-size="14px" y="55.0547" clip-path="url(#clipPath4)" font-family="sans-serif" stroke="none" xml:space="preserve">paper-trade</text>
        </g>
        <g fill="rgb(21,101,192)" fill-opacity="0.2" transform="translate(390,520)" stroke-opacity="0.2" stroke="rgb(21,101,192)">
            <rect x="0.5" width="88.5" height="18.5" y="0.5" clip-path="url(#clipPath3)" stroke="none"/>
        </g>
        <g transform="translate(390,520)">
            <rect fill="none" x="0.5" width="88.5" height="18.5" y="0.5" clip-path="url(#clipPath3)"/>
            <text x="5" font-size="14px" y="15.0547" clip-path="url(#clipPath3)" font-family="sans-serif" stroke="none" xml:space="preserve">dl-tw</text>
        </g>
        <g fill="rgb(21,101,192)" fill-opacity="0.2" transform="translate(690,400)" stroke-opacity="0.2" stroke="rgb(21,101,192)">
            <rect x="0.5" width="88.5" height="18.5" y="0.5" clip-path="url(#clipPath3)" stroke="none"/>
        </g>
        <g transform="translate(690,400)">
            <rect fill="none" x="0.5" width="88.5" height="18.5" y="0.5" clip-path="url(#clipPath3)"/>
            <text x="5" font-size="14px" y="15.0547" clip-path="url(#clipPath3)" font-family="sans-serif" stroke="none" xml:space="preserve">obs-tw</text>
        </g>
        <g fill="rgb(154,106,27)" fill-opacity="0.2" transform="translate(690,440)" stroke-opacity="0.2" stroke="rgb(154,106,27)">
            <rect x="0.5" width="88.5" height="18.5" y="0.5" clip-path="url(#clipPath3)" stroke="none"/>
        </g>
        <g transform="translate(690,440)">
            <rect fill="none" x="0.5" width="88.5" height="18.5" y="0.5" clip-path="url(#clipPath3)"/>
            <text x="5" font-size="14px" y="15.0547" clip-path="url(#clipPath3)" font-family="sans-serif" stroke="none" xml:space="preserve">obs-pos-sq</text>
        </g>
        <g fill="rgb(154,106,27)" fill-opacity="0.2" transform="translate(540,440)" stroke-opacity="0.2" stroke="rgb(154,106,27)">
            <rect x="0.5" width="88.5" height="58.5" y="0.5" clip-path="url(#clipPath5)" stroke="none"/>
        </g>
        <g transform="translate(540,440)">
            <rect fill="none" x="0.5" width="88.5" height="58.5" y="0.5" clip-path="url(#clipPath5)"/>
            <text x="5" font-size="14px" y="35.0547" clip-path="url(#clipPath5)" font-family="sans-serif" stroke="none" xml:space="preserve">sync-opt-sq</text>
        </g>
        <g fill="rgb(154,106,27)" fill-opacity="0.2" transform="translate(840,400)" stroke-opacity="0.2" stroke="rgb(154,106,27)">
            <rect x="0.5" width="88.5" height="178.5" y="0.5" clip-path="url(#clipPath6)" stroke="none"/>
        </g>
        <g transform="translate(840,400)">
            <rect fill="none" x="0.5" width="88.5" height="178.5" y="0.5" clip-path="url(#clipPath6)"/>
            <text x="5" font-size="14px" y="95.0547" clip-path="url(#clipPath6)" font-family="sans-serif" stroke="none" xml:space="preserve">trade-sq</text>
        </g>
        <g fill="rgb(21,101,192)" stroke-width="1.4" transform="translate(620,560)" stroke="rgb(21,101,192)">
            <path fill="none" d="M70.5 10.5 L10.5 10.5" clip-path="url(#clipPath7)"/>
            <path fill="none" d="M59.2417 4 L70.5 10.5 L59.2417 17" clip-path="url(#clipPath7)"/>
        </g>
        <g stroke-linecap="butt" transform="translate(470,520)" fill="rgb(21,101,192)" stroke-dasharray="8,5" stroke="rgb(21,101,192)" stroke-width="1.4" stroke-miterlimit="5">
            <path fill="none" d="M70.5 10.5 L10.5 10.5" clip-path="url(#clipPath7)"/>
            <path fill="none" stroke-miterlimit="10" stroke-dasharray="none" d="M59.2417 4 L70.5 10.5 L59.2417 17" clip-path="url(#clipPath7)" stroke-linecap="square"/>
        </g>
        <g stroke-linecap="butt" transform="translate(770,520)" fill="rgb(154,106,27)" stroke-dasharray="8,5" stroke="rgb(154,106,27)" stroke-width="1.4" stroke-miterlimit="5">
            <path fill="none" d="M70.5 10.5 L10.5 10.5" clip-path="url(#clipPath7)"/>
            <path fill="none" stroke-miterlimit="10" stroke-dasharray="none" d="M59.2417 4 L70.5 10.5 L59.2417 17" clip-path="url(#clipPath7)" stroke-linecap="square"/>
        </g>
        <g stroke-linecap="butt" transform="translate(620,520)" fill="rgb(21,101,192)" stroke-dasharray="8,5" stroke="rgb(21,101,192)" stroke-width="1.4" stroke-miterlimit="5">
            <path fill="none" d="M70.5 10.5 L10.5 10.5" clip-path="url(#clipPath7)"/>
            <path fill="none" stroke-miterlimit="10" stroke-dasharray="none" d="M59.2417 4 L70.5 10.5 L59.2417 17" clip-path="url(#clipPath7)" stroke-linecap="square"/>
        </g>
        <g fill="rgb(21,101,192)" stroke-width="1.4" transform="translate(770,400)" stroke="rgb(21,101,192)">
            <path fill="none" d="M70.5 10.5 L10.5 10.5" clip-path="url(#clipPath7)"/>
            <path fill="none" d="M59.2417 4 L70.5 10.5 L59.2417 17" clip-path="url(#clipPath7)"/>
        </g>
        <g stroke-linecap="butt" transform="translate(770,440)" fill="rgb(154,106,27)" stroke-dasharray="8,5" stroke="rgb(154,106,27)" stroke-width="1.4" stroke-miterlimit="5">
            <path fill="none" d="M70.5 10.5 L10.5 10.5" clip-path="url(#clipPath7)"/>
            <path fill="none" stroke-miterlimit="10" stroke-dasharray="none" d="M59.2417 4 L70.5 10.5 L59.2417 17" clip-path="url(#clipPath7)" stroke-linecap="square"/>
        </g>
        <g stroke-linecap="butt" transform="translate(620,480)" fill="rgb(154,106,27)" stroke-dasharray="8,5" stroke="rgb(154,106,27)" stroke-width="1.4" stroke-miterlimit="5">
            <path fill="none" d="M70.5 10.5 L10.5 10.5" clip-path="url(#clipPath7)"/>
            <path fill="none" stroke-miterlimit="10" stroke-dasharray="none" d="M59.2417 4 L70.5 10.5 L59.2417 17" clip-path="url(#clipPath7)" stroke-linecap="square"/>
        </g>
        <g stroke-linecap="butt" transform="translate(620,440)" fill="rgb(154,106,27)" stroke-dasharray="8,5" stroke="rgb(154,106,27)" stroke-width="1.4" stroke-miterlimit="5">
            <path fill="none" d="M70.5 10.5 L10.5 10.5" clip-path="url(#clipPath7)"/>
            <path fill="none" stroke-miterlimit="10" stroke-dasharray="none" d="M59.2417 4 L70.5 10.5 L59.2417 17" clip-path="url(#clipPath7)" stroke-linecap="square"/>
        </g>
    </g>
</svg>
