<?xml version="1.0" encoding="UTF-8"?><!DOCTYPE svg PUBLIC '-//W3C//DTD SVG 1.0//EN'
        'http://www.w3.org/TR/2001/REC-SVG-20010904/DTD/svg10.dtd'><!--suppress ALL -->
<svg fill-opacity="1" color-rendering="auto" color-interpolation="auto" text-rendering="auto" stroke="black" stroke-linecap="square" width="790" stroke-miterlimit="10" shape-rendering="auto" stroke-opacity="1" fill="black" stroke-dasharray="none" font-weight="normal" stroke-width="1" viewBox="0 0 790 580" height="580" xmlns="http://www.w3.org/2000/svg" font-family="'Dialog'" font-style="normal" stroke-linejoin="miter" font-size="12px" stroke-dashoffset="0" image-rendering="auto"><!--Generated by the Batik Graphics2D SVG Generator-->
    <defs id="genericDefs"/>
    <g>
        <defs id="defs1">
            <clipPath clipPathUnits="userSpaceOnUse" id="clipPath1">
                <path d="M0 0 L2147483647 0 L2147483647 2147483647 L0 2147483647 L0 0 Z"/>
            </clipPath>
            <clipPath clipPathUnits="userSpaceOnUse" id="clipPath2">
                <path d="M0 0 L0 30 L160 30 L160 0 Z"/>
            </clipPath>
            <clipPath clipPathUnits="userSpaceOnUse" id="clipPath3">
                <path d="M0 0 L0 30 L270 30 L270 0 Z"/>
            </clipPath>
            <clipPath clipPathUnits="userSpaceOnUse" id="clipPath4">
                <path d="M0 0 L0 30 L210 30 L210 0 Z"/>
            </clipPath>
            <clipPath clipPathUnits="userSpaceOnUse" id="clipPath5">
                <path d="M0 0 L0 50 L90 50 L90 0 Z"/>
            </clipPath>
            <clipPath clipPathUnits="userSpaceOnUse" id="clipPath6">
                <path d="M0 0 L0 60 L90 60 L90 0 Z"/>
            </clipPath>
            <clipPath clipPathUnits="userSpaceOnUse" id="clipPath7">
                <path d="M0 0 L0 20 L20 20 L20 0 Z"/>
            </clipPath>
            <clipPath clipPathUnits="userSpaceOnUse" id="clipPath8">
                <path d="M0 0 L0 20 L130 20 L130 0 Z"/>
            </clipPath>
            <clipPath clipPathUnits="userSpaceOnUse" id="clipPath9">
                <path d="M0 0 L0 20 L100 20 L100 0 Z"/>
            </clipPath>
            <clipPath clipPathUnits="userSpaceOnUse" id="clipPath10">
                <path d="M0 0 L0 20 L140 20 L140 0 Z"/>
            </clipPath>
            <clipPath clipPathUnits="userSpaceOnUse" id="clipPath11">
                <path d="M0 0 L0 20 L40 20 L40 0 Z"/>
            </clipPath>
            <clipPath clipPathUnits="userSpaceOnUse" id="clipPath12">
                <path d="M0 0 L0 20 L50 20 L50 0 Z"/>
            </clipPath>
            <clipPath clipPathUnits="userSpaceOnUse" id="clipPath13">
                <path d="M0 0 L0 20 L180 20 L180 0 Z"/>
            </clipPath>
            <clipPath clipPathUnits="userSpaceOnUse" id="clipPath14">
                <path d="M0 0 L0 90 L200 90 L200 0 Z"/>
            </clipPath>
            <clipPath clipPathUnits="userSpaceOnUse" id="clipPath15">
                <path d="M0 0 L0 90 L250 90 L250 0 Z"/>
            </clipPath>
            <clipPath clipPathUnits="userSpaceOnUse" id="clipPath16">
                <path d="M0 0 L0 190 L70 190 L70 0 Z"/>
            </clipPath>
            <clipPath clipPathUnits="userSpaceOnUse" id="clipPath17">
                <path d="M0 0 L0 120 L80 120 L80 0 Z"/>
            </clipPath>
            <clipPath clipPathUnits="userSpaceOnUse" id="clipPath18">
                <path d="M0 0 L0 200 L30 200 L30 0 Z"/>
            </clipPath>
            <clipPath clipPathUnits="userSpaceOnUse" id="clipPath19">
                <path d="M0 0 L0 30 L120 30 L120 0 Z"/>
            </clipPath>
            <clipPath clipPathUnits="userSpaceOnUse" id="clipPath20">
                <path d="M0 0 L0 230 L30 230 L30 0 Z"/>
            </clipPath>
            <clipPath clipPathUnits="userSpaceOnUse" id="clipPath21">
                <path d="M0 0 L0 130 L30 130 L30 0 Z"/>
            </clipPath>
            <clipPath clipPathUnits="userSpaceOnUse" id="clipPath22">
                <path d="M0 0 L0 480 L710 480 L710 0 Z"/>
            </clipPath>
            <clipPath clipPathUnits="userSpaceOnUse" id="clipPath23">
                <path d="M0 0 L0 540 L750 540 L750 0 Z"/>
            </clipPath>
            <clipPath clipPathUnits="userSpaceOnUse" id="clipPath24">
                <path d="M0 0 L0 110 L140 110 L140 0 Z"/>
            </clipPath>
            <clipPath clipPathUnits="userSpaceOnUse" id="clipPath25">
                <path d="M0 0 L0 180 L140 180 L140 0 Z"/>
            </clipPath>
            <clipPath clipPathUnits="userSpaceOnUse" id="clipPath26">
                <path d="M0 0 L0 130 L410 130 L410 0 Z"/>
            </clipPath>
        </defs>
        <g stroke-miterlimit="5" stroke-dasharray="1,2" stroke-width="1.4" transform="translate(300,130)" stroke-linecap="butt">
            <path fill="none" d="M140.5 10.5 L10.5 10.5" clip-path="url(#clipPath2)"/>
        </g>
        <g stroke-miterlimit="5" stroke-dasharray="1,2" stroke-width="1.4" transform="translate(180,220)" stroke-linecap="butt">
            <path fill="none" d="M250.5 10.5 L10.5 10.5" clip-path="url(#clipPath3)"/>
        </g>
        <g stroke-miterlimit="5" stroke-dasharray="1,2" stroke-width="1.4" transform="translate(210,320)" stroke-linecap="butt">
            <path fill="none" d="M190.5 10.5 L10.5 10.5" clip-path="url(#clipPath4)"/>
        </g>
        <g stroke-miterlimit="5" stroke-dasharray="1,2" stroke-width="1.4" transform="translate(400,330)" stroke-linecap="butt">
            <path fill="none" d="M70.5 30.5 L40.5 30.5" clip-path="url(#clipPath5)"/>
            <path fill="none" d="M40.5 30.5 L10.5 10.5" clip-path="url(#clipPath5)"/>
        </g>
        <g stroke-miterlimit="5" stroke-dasharray="1,2" stroke-width="1.4" transform="translate(400,280)" stroke-linecap="butt">
            <path fill="none" d="M70.5 10.5 L40.5 10.5" clip-path="url(#clipPath6)"/>
            <path fill="none" d="M40.5 10.5 L10.5 40.5" clip-path="url(#clipPath6)"/>
        </g>
        <g fill="white" transform="translate(470,240)" stroke="white">
            <circle r="9.25" clip-path="url(#clipPath7)" cx="9.75" cy="9.75" stroke="none"/>
            <circle fill="none" r="9.25" clip-path="url(#clipPath7)" cx="9.75" cy="9.75" stroke="black"/>
        </g>
        <g font-size="14px" font-weight="bold" font-family="sans-serif" transform="translate(470,240)">
            <text x="6" xml:space="preserve" y="14.9844" clip-path="url(#clipPath7)" stroke="none">6</text>
        </g>
        <g fill="white" transform="translate(440,90)" stroke="white">
            <circle r="9.25" clip-path="url(#clipPath7)" cx="9.75" cy="9.75" stroke="none"/>
            <circle fill="none" r="9.25" clip-path="url(#clipPath7)" cx="9.75" cy="9.75" stroke="black"/>
        </g>
        <g font-size="14px" font-weight="bold" font-family="sans-serif" transform="translate(440,90)">
            <text x="6" xml:space="preserve" y="14.9844" clip-path="url(#clipPath7)" stroke="none">5</text>
        </g>
        <g fill="rgb(106,27,154)" fill-opacity="0.2" transform="translate(120,530)" stroke-opacity="0.2" stroke="rgb(106,27,154)">
            <rect x="0.5" width="128.5" height="18.5" y="0.5" clip-path="url(#clipPath8)" stroke="none"/>
        </g>
        <g transform="translate(120,530)">
            <rect fill="none" x="0.5" width="128.5" height="18.5" y="0.5" clip-path="url(#clipPath8)"/>
            <text x="5" font-size="14px" y="14.9844" clip-path="url(#clipPath8)" font-family="sans-serif" stroke="none" xml:space="preserve">LockKeeper</text>
        </g>
        <g fill="rgb(46,125,50)" fill-opacity="0.2" transform="translate(120,490)" stroke-opacity="0.2" stroke="rgb(46,125,50)">
            <rect x="0.5" width="128.5" height="18.5" y="0.5" clip-path="url(#clipPath8)" stroke="none"/>
        </g>
        <g transform="translate(120,490)">
            <rect fill="none" x="0.5" width="128.5" height="18.5" y="0.5" clip-path="url(#clipPath8)"/>
            <text x="5" font-size="14px" y="14.9844" clip-path="url(#clipPath8)" font-family="sans-serif" stroke="none" xml:space="preserve">Series</text>
        </g>
        <g fill="white" transform="translate(130,110)" stroke="white">
            <circle r="9.25" clip-path="url(#clipPath7)" cx="9.75" cy="9.75" stroke="none"/>
            <circle fill="none" r="9.25" clip-path="url(#clipPath7)" cx="9.75" cy="9.75" stroke="black"/>
        </g>
        <g font-size="14px" font-weight="bold" font-family="sans-serif" transform="translate(130,110)">
            <text x="6" xml:space="preserve" y="14.9844" clip-path="url(#clipPath7)" stroke="none">1</text>
        </g>
        <g fill="rgb(120,120,120)" fill-opacity="0.4902" transform="translate(440,130)" stroke-opacity="0.4902" stroke="rgb(120,120,120)">
            <rect x="0.5" width="98.5" height="18.5" y="0.5" clip-path="url(#clipPath9)" stroke="none"/>
        </g>
        <g transform="translate(440,130)">
            <rect fill="none" x="0.5" width="98.5" height="18.5" y="0.5" clip-path="url(#clipPath9)"/>
        </g>
        <g fill="white" transform="translate(470,260)" stroke="white">
            <circle r="9.25" clip-path="url(#clipPath7)" cx="9.75" cy="9.75" stroke="none"/>
            <circle fill="none" r="9.25" clip-path="url(#clipPath7)" cx="9.75" cy="9.75" stroke="black"/>
        </g>
        <g font-size="14px" font-weight="bold" font-family="sans-serif" transform="translate(470,260)">
            <text x="6" xml:space="preserve" y="14.9844" clip-path="url(#clipPath7)" stroke="none">4</text>
        </g>
        <g fill="white" transform="translate(540,130)" stroke="white">
            <rect x="0.5" width="138.5" height="18.5" y="0.5" clip-path="url(#clipPath10)" stroke="none"/>
            <rect x="0.5" y="0.5" clip-path="url(#clipPath10)" fill="none" width="138.5" height="18.5" stroke="black"/>
        </g>
        <g font-family="sans-serif" font-size="14px" transform="translate(540,130)">
            <text x="5" xml:space="preserve" y="14.9844" clip-path="url(#clipPath10)" stroke="none">.getLock().safeWait()</text>
        </g>
        <g fill="white" transform="translate(440,110)" stroke="white">
            <circle r="9.25" clip-path="url(#clipPath7)" cx="9.75" cy="9.75" stroke="none"/>
            <circle fill="none" r="9.25" clip-path="url(#clipPath7)" cx="9.75" cy="9.75" stroke="black"/>
        </g>
        <g font-size="14px" font-weight="bold" font-family="sans-serif" transform="translate(440,110)">
            <text x="6" xml:space="preserve" y="14.9844" clip-path="url(#clipPath7)" stroke="none">2</text>
        </g>
        <g fill="white" transform="translate(320,300)" stroke="white">
            <circle r="9.25" clip-path="url(#clipPath7)" cx="9.75" cy="9.75" stroke="none"/>
            <circle fill="none" r="9.25" clip-path="url(#clipPath7)" cx="9.75" cy="9.75" stroke="black"/>
        </g>
        <g font-size="14px" font-weight="bold" font-family="sans-serif" transform="translate(320,300)">
            <text x="6" xml:space="preserve" y="14.9844" clip-path="url(#clipPath7)" stroke="none">3</text>
        </g>
        <g fill="white" transform="translate(90,300)" stroke="white">
            <circle r="9.25" clip-path="url(#clipPath7)" cx="9.75" cy="9.75" stroke="none"/>
            <circle fill="none" r="9.25" clip-path="url(#clipPath7)" cx="9.75" cy="9.75" stroke="black"/>
        </g>
        <g font-size="14px" font-weight="bold" font-family="sans-serif" transform="translate(90,300)">
            <text x="0" xml:space="preserve" y="14.9844" clip-path="url(#clipPath7)" stroke="none">1.5</text>
        </g>
        <g fill="white" transform="translate(520,280)" stroke="white">
            <rect x="0.5" width="138.5" height="18.5" y="0.5" clip-path="url(#clipPath10)" stroke="none"/>
            <rect x="0.5" y="0.5" clip-path="url(#clipPath10)" fill="none" width="138.5" height="18.5" stroke="black"/>
        </g>
        <g font-family="sans-serif" font-size="14px" transform="translate(520,280)">
            <text x="5" xml:space="preserve" y="14.9844" clip-path="url(#clipPath10)" stroke="none">.getLock().safeWait()</text>
        </g>
        <g font-family="sans-serif" font-size="14px" transform="translate(430,330)">
            <text x="5" xml:space="preserve" y="14.9844" clip-path="url(#clipPath11)" stroke="none">NO</text>
        </g>
        <g font-family="sans-serif" font-size="14px" transform="translate(430,300)">
            <text x="5" xml:space="preserve" y="14.9844" clip-path="url(#clipPath11)" stroke="none">YES</text>
        </g>
        <g fill="rgb(120,120,120)" fill-opacity="0.4902" transform="translate(470,280)" stroke-opacity="0.4902" stroke="rgb(120,120,120)">
            <rect x="0.5" width="48.5" height="18.5" y="0.5" clip-path="url(#clipPath12)" stroke="none"/>
        </g>
        <g transform="translate(470,280)">
            <rect fill="none" x="0.5" width="48.5" height="18.5" y="0.5" clip-path="url(#clipPath12)"/>
        </g>
        <g fill="rgb(255,255,255)" fill-opacity="0" transform="translate(400,320)" stroke-opacity="0" stroke="rgb(255,255,255)">
            <path d="M10.5 1.5 L19 10.5 L10.5 19 L1.5 10.5 Z" stroke="none" clip-path="url(#clipPath7)"/>
        </g>
        <g transform="translate(400,320)">
            <path fill="none" d="M10.5 1.5 L19 10.5 L10.5 19 L1.5 10.5 Z" clip-path="url(#clipPath7)"/>
        </g>
        <g fill="white" transform="translate(470,350)" stroke="white">
            <rect x="0.5" width="138.5" height="18.5" y="0.5" clip-path="url(#clipPath10)" stroke="none"/>
            <rect x="0.5" y="0.5" clip-path="url(#clipPath10)" fill="none" width="138.5" height="18.5" stroke="black"/>
        </g>
        <g font-family="sans-serif" font-size="14px" transform="translate(470,350)">
            <text x="5" xml:space="preserve" y="14.9844" clip-path="url(#clipPath10)" stroke="none">.getLock().safeWait()</text>
        </g>
        <g fill="white" transform="translate(300,320)" stroke="white">
            <rect x="0.5" width="98.5" height="18.5" y="0.5" clip-path="url(#clipPath9)" stroke="none"/>
            <rect x="0.5" y="0.5" clip-path="url(#clipPath9)" fill="none" width="98.5" height="18.5" stroke="black"/>
        </g>
        <g font-family="sans-serif" font-size="14px" transform="translate(300,320)">
            <text x="5" xml:space="preserve" y="14.9844" clip-path="url(#clipPath9)" stroke="none">.shouldStart()</text>
        </g>
        <g fill="rgb(154,106,27)" fill-opacity="0.2" transform="translate(60,220)" stroke-opacity="0.2" stroke="rgb(154,106,27)">
            <rect x="0.5" width="128.5" height="18.5" y="0.5" clip-path="url(#clipPath8)" stroke="none"/>
        </g>
        <g transform="translate(60,220)">
            <rect fill="none" x="0.5" width="128.5" height="18.5" y="0.5" clip-path="url(#clipPath8)"/>
            <text x="5" font-size="14px" y="14.9844" clip-path="url(#clipPath8)" font-family="sans-serif" stroke="none" xml:space="preserve">JobKeeper</text>
        </g>
        <g fill="rgb(21,101,192)" fill-opacity="0.2" transform="translate(90,320)" stroke-opacity="0.2" stroke="rgb(21,101,192)">
            <rect x="0.5" width="128.5" height="18.5" y="0.5" clip-path="url(#clipPath8)" stroke="none"/>
        </g>
        <g transform="translate(90,320)">
            <rect fill="none" x="0.5" width="128.5" height="18.5" y="0.5" clip-path="url(#clipPath8)"/>
            <text x="5" font-size="14px" y="14.9844" clip-path="url(#clipPath8)" font-family="sans-serif" stroke="none" xml:space="preserve">TradeSqJob.run()</text>
        </g>
        <g fill="rgb(21,101,192)" fill-opacity="0.2" transform="translate(130,130)" stroke-opacity="0.2" stroke="rgb(21,101,192)">
            <rect x="0.5" width="178.5" height="18.5" y="0.5" clip-path="url(#clipPath13)" stroke="none"/>
        </g>
        <g transform="translate(130,130)">
            <rect fill="none" x="0.5" width="178.5" height="18.5" y="0.5" clip-path="url(#clipPath13)"/>
            <text x="5" font-size="14px" y="14.9844" clip-path="url(#clipPath13)" font-family="sans-serif" stroke="none" xml:space="preserve">PaperObserveTwJob.run()</text>
        </g>
        <g stroke-linecap="butt" transform="translate(470,290)" fill="rgb(21,101,192)" stroke-dasharray="8,5" stroke="rgb(21,101,192)" stroke-width="1.4" stroke-miterlimit="5">
            <path fill="none" d="M10.5 11.5 L10.5 30.5" clip-path="url(#clipPath14)"/>
            <path fill="none" d="M10.5 30.5 L180.5 30.5" clip-path="url(#clipPath14)"/>
            <path fill="none" d="M180.5 30.5 L180.5 10.5" clip-path="url(#clipPath14)"/>
            <path fill="white" d="M4 22.2583 L10.5 11 L17 22.2583 Z" clip-path="url(#clipPath14)" stroke="none"/>
            <path fill="none" stroke-miterlimit="10" stroke-dasharray="none" d="M4 22.2583 L10.5 11 L17 22.2583 Z" clip-path="url(#clipPath14)" stroke-linecap="square"/>
        </g>
        <g stroke-linecap="butt" transform="translate(440,140)" fill="rgb(21,101,192)" stroke-dasharray="8,5" stroke="rgb(21,101,192)" stroke-width="1.4" stroke-miterlimit="5">
            <path fill="none" d="M10.5 11.5 L10.5 30.5" clip-path="url(#clipPath15)"/>
            <path fill="none" d="M10.5 30.5 L230.5 30.5" clip-path="url(#clipPath15)"/>
            <path fill="none" d="M230.5 30.5 L230.5 10.5" clip-path="url(#clipPath15)"/>
            <path fill="white" d="M4 22.2583 L10.5 11 L17 22.2583 Z" clip-path="url(#clipPath15)" stroke="none"/>
            <path fill="none" stroke-miterlimit="10" stroke-dasharray="none" d="M4 22.2583 L10.5 11 L17 22.2583 Z" clip-path="url(#clipPath15)" stroke-linecap="square"/>
        </g>
        <g stroke-linecap="butt" transform="translate(340,330)" fill="rgb(46,125,50)" stroke-dasharray="8,5" stroke="rgb(46,125,50)" stroke-width="1.4" stroke-miterlimit="5">
            <path fill="none" d="M10.5 11.5 L10.5 170.5" clip-path="url(#clipPath16)"/>
            <path fill="none" stroke-miterlimit="10" stroke-dasharray="none" d="M4 22.2583 L10.5 11 L17 22.2583" clip-path="url(#clipPath16)" stroke-linecap="square"/>
            <path stroke-miterlimit="10" stroke-dasharray="none" d="M4 158.7417 L10.5 170 L17 158.7417 Z" clip-path="url(#clipPath16)" stroke-linecap="square" stroke="none"/>
            <path fill="none" stroke-miterlimit="10" stroke-dasharray="none" d="M4 158.7417 L10.5 170 L17 158.7417 Z" clip-path="url(#clipPath16)" stroke-linecap="square"/>
        </g>
        <g fill="rgb(46,125,50)" font-size="14px" stroke-width="1.4" font-family="sans-serif" transform="translate(340,330)" stroke="rgb(46,125,50)">
            <text x="14" xml:space="preserve" y="97.9844" clip-path="url(#clipPath16)" stroke="none">is not</text>
            <text x="14" xml:space="preserve" y="113.9531" clip-path="url(#clipPath16)" stroke="none">empty?</text>
        </g>
        <g stroke-linecap="butt" transform="translate(340,130)" fill="rgb(154,106,27)" stroke-dasharray="8,5" stroke="rgb(154,106,27)" stroke-width="1.4" stroke-miterlimit="5">
            <path fill="none" d="M10.5 99.5 L10.5 10.5" clip-path="url(#clipPath17)"/>
            <path fill="white" d="M17 88.7417 L10.5 100 L4 88.7417 Z" clip-path="url(#clipPath17)" stroke="none"/>
            <path fill="none" stroke-miterlimit="10" stroke-dasharray="none" d="M17 88.7417 L10.5 100 L4 88.7417 Z" clip-path="url(#clipPath17)" stroke-linecap="square"/>
        </g>
        <g fill="rgb(154,106,27)" font-size="14px" stroke-width="1.4" font-family="sans-serif" transform="translate(340,130)" stroke="rgb(154,106,27)">
            <text x="14" xml:space="preserve" y="62.9844" clip-path="url(#clipPath17)" stroke="none">add(this)</text>
        </g>
        <g stroke-linecap="butt" transform="translate(470,360)" fill="rgb(106,27,154)" stroke-dasharray="8,5" stroke="rgb(106,27,154)" stroke-width="1.4" stroke-miterlimit="5">
            <path fill="none" d="M10.5 11.5 L10.5 180.5" clip-path="url(#clipPath18)"/>
            <path fill="white" d="M4 22.2583 L10.5 11 L17 22.2583 Z" clip-path="url(#clipPath18)" stroke="none"/>
            <path fill="none" stroke-miterlimit="10" stroke-dasharray="none" d="M4 22.2583 L10.5 11 L17 22.2583 Z" clip-path="url(#clipPath18)" stroke-linecap="square"/>
        </g>
        <g stroke-linecap="butt" transform="translate(650,270)" fill="rgb(106,27,154)" stroke-dasharray="8,5" stroke="rgb(106,27,154)" stroke-width="1.4" stroke-miterlimit="5">
            <path fill="none" d="M11.5 10.5 L100.5 10.5" clip-path="url(#clipPath19)"/>
            <path fill="white" d="M22.2583 17 L11 10.5 L22.2583 4 Z" clip-path="url(#clipPath19)" stroke="none"/>
            <path fill="none" stroke-miterlimit="10" stroke-dasharray="none" d="M22.2583 17 L11 10.5 L22.2583 4 Z" clip-path="url(#clipPath19)" stroke-linecap="square"/>
        </g>
        <g stroke-linecap="butt" transform="translate(650,290)" fill="rgb(106,27,154)" stroke-dasharray="8,5" stroke="rgb(106,27,154)" stroke-width="1.4" stroke-miterlimit="5">
            <path fill="none" d="M99.5 10.5 L10.5 10.5" clip-path="url(#clipPath19)"/>
            <path fill="white" d="M88.7417 4 L100 10.5 L88.7417 17 Z" clip-path="url(#clipPath19)" stroke="none"/>
            <path fill="none" stroke-miterlimit="10" stroke-dasharray="none" d="M88.7417 4 L100 10.5 L88.7417 17 Z" clip-path="url(#clipPath19)" stroke-linecap="square"/>
        </g>
        <g stroke-linecap="butt" transform="translate(380,330)" fill="rgb(106,27,154)" stroke-dasharray="8,5" stroke="rgb(106,27,154)" stroke-width="1.4" stroke-miterlimit="5">
            <path fill="none" d="M10.5 209.5 L10.5 10.5" clip-path="url(#clipPath20)"/>
            <path fill="white" d="M17 198.7417 L10.5 210 L4 198.7417 Z" clip-path="url(#clipPath20)" stroke="none"/>
            <path fill="none" stroke-miterlimit="10" stroke-dasharray="none" d="M17 198.7417 L10.5 210 L4 198.7417 Z" clip-path="url(#clipPath20)" stroke-linecap="square"/>
        </g>
        <g stroke-linecap="butt" transform="translate(660,20)" fill="rgb(106,27,154)" stroke-dasharray="8,5" stroke="rgb(106,27,154)" stroke-width="1.4" stroke-miterlimit="5">
            <path fill="none" d="M10.5 11.5 L10.5 110.5" clip-path="url(#clipPath21)"/>
            <path fill="white" d="M4 22.2583 L10.5 11 L17 22.2583 Z" clip-path="url(#clipPath21)" stroke="none"/>
            <path fill="none" stroke-miterlimit="10" stroke-dasharray="none" d="M4 22.2583 L10.5 11 L17 22.2583 Z" clip-path="url(#clipPath21)" stroke-linecap="square"/>
        </g>
        <g stroke-linecap="butt" transform="translate(580,20)" fill="rgb(106,27,154)" stroke-dasharray="8,5" stroke="rgb(106,27,154)" stroke-width="1.4" stroke-miterlimit="5">
            <path fill="none" d="M10.5 109.5 L10.5 10.5" clip-path="url(#clipPath21)"/>
            <path fill="white" d="M17 98.7417 L10.5 110 L4 98.7417 Z" clip-path="url(#clipPath21)" stroke="none"/>
            <path fill="none" stroke-miterlimit="10" stroke-dasharray="none" d="M17 98.7417 L10.5 110 L4 98.7417 Z" clip-path="url(#clipPath21)" stroke-linecap="square"/>
        </g>
        <g stroke-linecap="butt" transform="translate(320,330)" fill="rgb(106,27,154)" stroke-dasharray="8,5" stroke="rgb(106,27,154)" stroke-width="1.4" stroke-miterlimit="5">
            <path fill="none" d="M10.5 11.5 L10.5 210.5" clip-path="url(#clipPath20)"/>
            <path fill="white" d="M4 22.2583 L10.5 11 L17 22.2583 Z" clip-path="url(#clipPath20)" stroke="none"/>
            <path fill="none" stroke-miterlimit="10" stroke-dasharray="none" d="M4 22.2583 L10.5 11 L17 22.2583 Z" clip-path="url(#clipPath20)" stroke-linecap="square"/>
        </g>
        <g stroke-linecap="butt" transform="translate(580,360)" fill="rgb(106,27,154)" stroke-dasharray="8,5" stroke="rgb(106,27,154)" stroke-width="1.4" stroke-miterlimit="5">
            <path fill="none" d="M10.5 179.5 L10.5 10.5" clip-path="url(#clipPath18)"/>
            <path fill="white" d="M17 168.7417 L10.5 180 L4 168.7417 Z" clip-path="url(#clipPath18)" stroke="none"/>
            <path fill="none" stroke-miterlimit="10" stroke-dasharray="none" d="M17 168.7417 L10.5 180 L4 168.7417 Z" clip-path="url(#clipPath18)" stroke-linecap="square"/>
        </g>
        <g stroke-linecap="butt" transform="translate(40,40)" fill="rgb(46,125,50)" stroke-dasharray="1,2" stroke="rgb(46,125,50)" stroke-width="1.4" stroke-miterlimit="5">
            <path fill="none" d="M210.5 460.5 L690.5 460.5" clip-path="url(#clipPath22)"/>
            <path fill="none" d="M690.5 460.5 L690.5 10.5" clip-path="url(#clipPath22)"/>
            <path fill="none" d="M690.5 10.5 L10.5 10.5" clip-path="url(#clipPath22)"/>
            <path fill="none" d="M10.5 10.5 L10.5 460.5" clip-path="url(#clipPath22)"/>
            <path fill="none" d="M10.5 460.5 L80.5 460.5" clip-path="url(#clipPath22)"/>
        </g>
        <g stroke-linecap="butt" transform="translate(20,20)" fill="rgb(106,27,154)" stroke-dasharray="1,2" stroke="rgb(106,27,154)" stroke-width="1.4" stroke-miterlimit="5">
            <path fill="none" d="M230.5 520.5 L730.5 520.5" clip-path="url(#clipPath23)"/>
            <path fill="none" d="M730.5 520.5 L730.5 10.5" clip-path="url(#clipPath23)"/>
            <path fill="none" d="M730.5 10.5 L10.5 10.5" clip-path="url(#clipPath23)"/>
            <path fill="none" d="M10.5 10.5 L10.5 520.5" clip-path="url(#clipPath23)"/>
            <path fill="none" d="M10.5 520.5 L100.5 520.5" clip-path="url(#clipPath23)"/>
        </g>
        <g stroke-linecap="butt" transform="translate(460,40)" fill="rgb(46,125,50)" stroke-dasharray="8,5" stroke="rgb(46,125,50)" stroke-width="1.4" stroke-miterlimit="5">
            <path fill="none" d="M10.5 11.5 L10.5 90.5" clip-path="url(#clipPath24)"/>
            <path fill="white" d="M4 22.2583 L10.5 11 L17 22.2583 Z" clip-path="url(#clipPath24)" stroke="none"/>
            <path fill="none" stroke-miterlimit="10" stroke-dasharray="none" d="M4 22.2583 L10.5 11 L17 22.2583 Z" clip-path="url(#clipPath24)" stroke-linecap="square"/>
        </g>
        <g fill="rgb(46,125,50)" font-size="14px" stroke-width="1.4" font-family="sans-serif" transform="translate(460,40)" stroke="rgb(46,125,50)">
            <text x="14" xml:space="preserve" y="50" clip-path="url(#clipPath24)" stroke="none">put()</text>
            <text x="14" xml:space="preserve" y="65.9688" clip-path="url(#clipPath24)" stroke="none">notifyObservers()</text>
        </g>
        <g stroke-linecap="butt" transform="translate(200,330)" fill="rgb(46,125,50)" stroke-dasharray="8,5" stroke="rgb(46,125,50)" stroke-width="1.4" stroke-miterlimit="5">
            <path fill="none" d="M10.5 159.5 L10.5 10.5" clip-path="url(#clipPath25)"/>
            <path fill="white" d="M17 148.7417 L10.5 160 L4 148.7417 Z" clip-path="url(#clipPath25)" stroke="none"/>
            <path fill="none" stroke-miterlimit="10" stroke-dasharray="none" d="M17 148.7417 L10.5 160 L4 148.7417 Z" clip-path="url(#clipPath25)" stroke-linecap="square"/>
        </g>
        <g fill="rgb(46,125,50)" font-size="14px" stroke-width="1.4" font-family="sans-serif" transform="translate(200,330)" stroke="rgb(46,125,50)">
            <text x="14" xml:space="preserve" y="100.9688" clip-path="url(#clipPath25)" stroke="none">addObserver(this)</text>
        </g>
        <g stroke-linecap="butt" transform="translate(340,220)" fill="rgb(154,106,27)" stroke-dasharray="8,5" stroke="rgb(154,106,27)" stroke-width="1.4" stroke-miterlimit="5">
            <path fill="none" d="M10.5 99.5 L10.5 10.5" clip-path="url(#clipPath17)"/>
            <path fill="none" stroke-miterlimit="10" stroke-dasharray="none" d="M17 88.7417 L10.5 100 L4 88.7417" clip-path="url(#clipPath17)" stroke-linecap="square"/>
            <path stroke-miterlimit="10" stroke-dasharray="none" d="M17 22.2583 L10.5 11 L4 22.2583 Z" clip-path="url(#clipPath17)" stroke-linecap="square" stroke="none"/>
            <path fill="none" stroke-miterlimit="10" stroke-dasharray="none" d="M17 22.2583 L10.5 11 L4 22.2583 Z" clip-path="url(#clipPath17)" stroke-linecap="square"/>
        </g>
        <g fill="rgb(154,106,27)" font-size="14px" stroke-width="1.4" font-family="sans-serif" transform="translate(340,220)" stroke="rgb(154,106,27)">
            <text x="14" xml:space="preserve" y="47.0156" clip-path="url(#clipPath17)" stroke="none">is dep</text>
            <text x="14" xml:space="preserve" y="62.9844" clip-path="url(#clipPath17)" stroke="none">job</text>
            <text x="14" xml:space="preserve" y="78.9531" clip-path="url(#clipPath17)" stroke="none">present?</text>
        </g>
        <g stroke-linecap="butt" transform="translate(300,330)" fill="rgb(21,101,192)" stroke-dasharray="8,5" stroke="rgb(21,101,192)" stroke-width="1.4" stroke-miterlimit="5">
            <path fill="none" d="M10.5 11.5 L10.5 70.5" clip-path="url(#clipPath26)"/>
            <path fill="none" d="M10.5 70.5 L390.5 70.5" clip-path="url(#clipPath26)"/>
            <path fill="none" d="M390.5 70.5 L390.5 30.5" clip-path="url(#clipPath26)"/>
            <path fill="none" d="M390.5 30.5 L310.5 30.5" clip-path="url(#clipPath26)"/>
            <path fill="white" d="M4 22.2583 L10.5 11 L17 22.2583 Z" clip-path="url(#clipPath26)" stroke="none"/>
            <path fill="none" stroke-miterlimit="10" stroke-dasharray="none" d="M4 22.2583 L10.5 11 L17 22.2583 Z" clip-path="url(#clipPath26)" stroke-linecap="square"/>
        </g>
        <g stroke-linecap="butt" transform="translate(200,220)" fill="rgb(154,106,27)" stroke-dasharray="8,5" stroke="rgb(154,106,27)" stroke-width="1.4" stroke-miterlimit="5">
            <path fill="none" d="M10.5 11.5 L10.5 100.5" clip-path="url(#clipPath17)"/>
            <path fill="white" d="M4 22.2583 L10.5 11 L17 22.2583 Z" clip-path="url(#clipPath17)" stroke="none"/>
            <path fill="none" stroke-miterlimit="10" stroke-dasharray="none" d="M4 22.2583 L10.5 11 L17 22.2583 Z" clip-path="url(#clipPath17)" stroke-linecap="square"/>
        </g>
        <g fill="rgb(154,106,27)" font-size="14px" stroke-width="1.4" font-family="sans-serif" transform="translate(200,220)" stroke="rgb(154,106,27)">
            <text x="14" xml:space="preserve" y="62.9844" clip-path="url(#clipPath17)" stroke="none">add(this)</text>
        </g>
    </g>
</svg>
