<?xml version="1.0" encoding="UTF-8"?><!DOCTYPE svg PUBLIC '-//W3C//DTD SVG 1.0//EN'
        'http://www.w3.org/TR/2001/REC-SVG-20010904/DTD/svg10.dtd'><!--suppress ALL -->
<svg fill-opacity="1" color-rendering="auto" color-interpolation="auto" text-rendering="auto" stroke="black" stroke-linecap="square" width="590" stroke-miterlimit="10" shape-rendering="auto" stroke-opacity="1" fill="black" stroke-dasharray="none" font-weight="normal" stroke-width="1" viewBox="530 290 590 340" height="340" xmlns="http://www.w3.org/2000/svg" font-family="'Dialog'" font-style="normal" stroke-linejoin="miter" font-size="12px" stroke-dashoffset="0" image-rendering="auto"><!--Generated by the Batik Graphics2D SVG Generator-->
    <defs id="genericDefs"/>
    <g>
        <defs id="defs1">
            <clipPath clipPathUnits="userSpaceOnUse" id="clipPath1">
                <path d="M0 0 L2147483647 0 L2147483647 2147483647 L0 2147483647 L0 0 Z"/>
            </clipPath>
            <clipPath clipPathUnits="userSpaceOnUse" id="clipPath2">
                <path d="M0 0 L0 40 L150 40 L150 0 Z"/>
            </clipPath>
            <clipPath clipPathUnits="userSpaceOnUse" id="clipPath3">
                <path d="M0 0 L0 30 L110 30 L110 0 Z"/>
            </clipPath>
            <clipPath clipPathUnits="userSpaceOnUse" id="clipPath4">
                <path d="M0 0 L0 30 L130 30 L130 0 Z"/>
            </clipPath>
            <clipPath clipPathUnits="userSpaceOnUse" id="clipPath5">
                <path d="M0 0 L0 30 L140 30 L140 0 Z"/>
            </clipPath>
            <clipPath clipPathUnits="userSpaceOnUse" id="clipPath6">
                <path d="M0 0 L0 30 L150 30 L150 0 Z"/>
            </clipPath>
            <clipPath clipPathUnits="userSpaceOnUse" id="clipPath7">
                <path d="M0 0 L0 120 L30 120 L30 0 Z"/>
            </clipPath>
            <clipPath clipPathUnits="userSpaceOnUse" id="clipPath8">
                <path d="M0 0 L0 70 L30 70 L30 0 Z"/>
            </clipPath>
            <clipPath clipPathUnits="userSpaceOnUse" id="clipPath9">
                <path d="M0 0 L0 90 L30 90 L30 0 Z"/>
            </clipPath>
            <clipPath clipPathUnits="userSpaceOnUse" id="clipPath10">
                <path d="M0 0 L0 140 L30 140 L30 0 Z"/>
            </clipPath>
            <clipPath clipPathUnits="userSpaceOnUse" id="clipPath11">
                <path d="M0 0 L0 50 L140 50 L140 0 Z"/>
            </clipPath>
            <clipPath clipPathUnits="userSpaceOnUse" id="clipPath12">
                <path d="M0 0 L0 50 L100 50 L100 0 Z"/>
            </clipPath>
        </defs>
        <g font-family="sans-serif" font-size="14px" transform="translate(710,310)">
            <text x="5" xml:space="preserve" y="17.9688" clip-path="url(#clipPath2)" stroke="none">Dto leave the Dao</text>
            <text x="5" xml:space="preserve" y="33.9375" clip-path="url(#clipPath2)" stroke="none">NOT fully initialized.</text>
        </g>
        <g font-family="sans-serif" font-size="14px" transform="translate(710,430)">
            <text x="5" xml:space="preserve" y="17.9688" clip-path="url(#clipPath2)" stroke="none">Dto leave the Dao</text>
            <text x="5" xml:space="preserve" y="33.9375" clip-path="url(#clipPath2)" stroke="none">fully initialized.</text>
        </g>
        <g fill="white" transform="translate(990,390)" stroke="white">
            <rect x="0.5" width="108.5" height="28.5" y="0.5" clip-path="url(#clipPath3)" stroke="none"/>
            <rect x="0.5" y="0.5" clip-path="url(#clipPath3)" fill="none" width="108.5" height="28.5" stroke="rgb(21,101,192)"/>
        </g>
        <g fill="rgb(21,101,192)" font-size="14px" font-family="sans-serif" transform="translate(990,390)" stroke="rgb(21,101,192)">
            <text x="4" xml:space="preserve" y="17.9688" clip-path="url(#clipPath3)" stroke="none">SymbolDao&lt;...&gt;</text>
        </g>
        <g fill="white" transform="translate(960,530)" stroke="white">
            <rect x="0.5" width="108.5" height="28.5" y="0.5" clip-path="url(#clipPath3)" stroke="none"/>
            <rect x="0.5" y="0.5" clip-path="url(#clipPath3)" fill="none" width="108.5" height="28.5" stroke="rgb(21,101,192)"/>
        </g>
        <g fill="rgb(21,101,192)" font-size="14px" font-family="sans-serif" transform="translate(960,530)" stroke="rgb(21,101,192)">
            <text x="3" xml:space="preserve" y="17.9688" clip-path="url(#clipPath3)" stroke="none">PositionDao&lt;...&gt;</text>
        </g>
        <g fill="white" transform="translate(940,580)" stroke="white">
            <rect x="0.5" width="128.5" height="28.5" y="0.5" clip-path="url(#clipPath4)" stroke="none"/>
            <rect x="0.5" y="0.5" clip-path="url(#clipPath4)" fill="none" width="128.5" height="28.5" stroke="rgb(21,101,192)"/>
        </g>
        <g fill="rgb(21,101,192)" font-size="14px" font-family="sans-serif" transform="translate(940,580)" stroke="rgb(21,101,192)">
            <text x="8" xml:space="preserve" y="17.9688" clip-path="url(#clipPath4)" stroke="none">SnapshotDao&lt;...&gt;</text>
        </g>
        <g fill="white" transform="translate(800,580)" stroke="white">
            <rect x="0.5" width="108.5" height="28.5" y="0.5" clip-path="url(#clipPath3)" stroke="none"/>
            <rect x="0.5" y="0.5" clip-path="url(#clipPath3)" fill="none" width="108.5" height="28.5" stroke="rgb(21,101,192)"/>
        </g>
        <g fill="rgb(21,101,192)" font-size="14px" font-family="sans-serif" transform="translate(800,580)" stroke="rgb(21,101,192)">
            <text x="9" xml:space="preserve" y="17.9688" clip-path="url(#clipPath3)" stroke="none">TradeDao&lt;...&gt;</text>
        </g>
        <g fill="white" transform="translate(760,530)" stroke="white">
            <rect x="0.5" width="128.5" height="28.5" y="0.5" clip-path="url(#clipPath4)" stroke="none"/>
            <rect x="0.5" y="0.5" clip-path="url(#clipPath4)" fill="none" width="128.5" height="28.5" stroke="rgb(21,101,192)"/>
        </g>
        <g fill="rgb(21,101,192)" font-size="14px" font-family="sans-serif" transform="translate(760,530)" stroke="rgb(21,101,192)">
            <text x="12" xml:space="preserve" y="17.9688" clip-path="url(#clipPath4)" stroke="none">StrategyDao&lt;...&gt;</text>
        </g>
        <g fill="white" transform="translate(860,440)" stroke="white">
            <rect x="0.5" width="138.5" height="28.5" y="0.5" clip-path="url(#clipPath5)" stroke="none"/>
            <rect x="0.5" y="0.5" clip-path="url(#clipPath5)" fill="none" width="138.5" height="28.5" stroke="rgb(21,101,192)"/>
        </g>
        <g fill="rgb(21,101,192)" font-style="italic" font-size="14px" font-family="sans-serif" transform="translate(860,440)" stroke="rgb(21,101,192)">
            <text x="16" xml:space="preserve" y="17.9688" clip-path="url(#clipPath5)" stroke="none">Dao&lt;Entity, Dto&gt;</text>
        </g>
        <g fill="white" transform="translate(860,320)" stroke="white">
            <rect x="0.5" width="148.5" height="28.5" y="0.5" clip-path="url(#clipPath6)" stroke="none"/>
            <rect x="0.5" y="0.5" clip-path="url(#clipPath6)" fill="none" width="148.5" height="28.5" stroke="rgb(21,101,192)"/>
        </g>
        <g fill="rgb(21,101,192)" font-style="italic" font-size="14px" font-family="sans-serif" transform="translate(860,320)" stroke="rgb(21,101,192)">
            <text x="8" xml:space="preserve" y="17.9688" clip-path="url(#clipPath6)" stroke="none">SlimDao&lt;Entity, Dto&gt;</text>
        </g>
        <g fill="white" transform="translate(550,550)" stroke="white">
            <rect x="0.5" width="138.5" height="28.5" y="0.5" clip-path="url(#clipPath5)" stroke="none"/>
            <rect x="0.5" y="0.5" clip-path="url(#clipPath5)" fill="none" width="138.5" height="28.5" stroke="rgb(46,125,50)"/>
        </g>
        <g fill="rgb(46,125,50)" font-size="14px" font-family="sans-serif" transform="translate(550,550)" stroke="rgb(46,125,50)">
            <text x="13" xml:space="preserve" y="17.9688" clip-path="url(#clipPath5)" stroke="none">StringKeyDao&lt;E&gt;</text>
        </g>
        <g transform="translate(910,340)">
            <path fill="none" d="M10.5 11.5 L10.5 100.5" clip-path="url(#clipPath7)"/>
            <path fill="white" d="M4 22.2583 L10.5 11 L17 22.2583 Z" clip-path="url(#clipPath7)" stroke="none"/>
            <path fill="none" d="M4 22.2583 L10.5 11 L17 22.2583 Z" clip-path="url(#clipPath7)"/>
        </g>
        <g transform="translate(990,340)">
            <path fill="none" d="M10.5 11.5 L10.5 50.5" clip-path="url(#clipPath8)"/>
            <path fill="white" d="M4 22.2583 L10.5 11 L17 22.2583 Z" clip-path="url(#clipPath8)" stroke="none"/>
            <path fill="none" d="M4 22.2583 L10.5 11 L17 22.2583 Z" clip-path="url(#clipPath8)"/>
        </g>
        <g transform="translate(960,460)">
            <path fill="none" d="M10.5 11.5 L10.5 70.5" clip-path="url(#clipPath9)"/>
            <path fill="white" d="M4 22.2583 L10.5 11 L17 22.2583 Z" clip-path="url(#clipPath9)" stroke="none"/>
            <path fill="none" d="M4 22.2583 L10.5 11 L17 22.2583 Z" clip-path="url(#clipPath9)"/>
        </g>
        <g transform="translate(940,460)">
            <path fill="none" d="M10.5 11.5 L10.5 120.5" clip-path="url(#clipPath10)"/>
            <path fill="white" d="M4 22.2583 L10.5 11 L17 22.2583 Z" clip-path="url(#clipPath10)" stroke="none"/>
            <path fill="none" d="M4 22.2583 L10.5 11 L17 22.2583 Z" clip-path="url(#clipPath10)"/>
        </g>
        <g transform="translate(870,460)">
            <path fill="none" d="M10.5 11.5 L10.5 70.5" clip-path="url(#clipPath9)"/>
            <path fill="white" d="M4 22.2583 L10.5 11 L17 22.2583 Z" clip-path="url(#clipPath9)" stroke="none"/>
            <path fill="none" d="M4 22.2583 L10.5 11 L17 22.2583 Z" clip-path="url(#clipPath9)"/>
        </g>
        <g stroke-dasharray="8,5" stroke-miterlimit="5" transform="translate(680,560)" stroke-linecap="butt">
            <path fill="none" d="M11.4839 10.6789 L120.5 30.5" clip-path="url(#clipPath11)"/>
            <path fill="white" d="M20.9059 18.9985 L10.9919 10.5894 L23.2314 6.2082 Z" clip-path="url(#clipPath11)" stroke="none"/>
            <path fill="none" stroke-miterlimit="10" stroke-dasharray="none" d="M20.9059 18.9985 L10.9919 10.5894 L23.2314 6.2082 Z" clip-path="url(#clipPath11)" stroke-linecap="square"/>
        </g>
        <g stroke-dasharray="8,5" stroke-miterlimit="5" transform="translate(680,530)" stroke-linecap="butt">
            <path fill="none" d="M11.4615 30.2253 L80.5 10.5" clip-path="url(#clipPath12)"/>
            <path fill="white" d="M23.5916 33.5196 L10.9808 30.3626 L20.0202 21.0198 Z" clip-path="url(#clipPath12)" stroke="none"/>
            <path fill="none" stroke-miterlimit="10" stroke-dasharray="none" d="M23.5916 33.5196 L10.9808 30.3626 L20.0202 21.0198 Z" clip-path="url(#clipPath12)" stroke-linecap="square"/>
        </g>
        <g transform="translate(890,460)">
            <path fill="none" d="M10.5 11.5 L10.5 120.5" clip-path="url(#clipPath10)"/>
            <path fill="white" d="M4 22.2583 L10.5 11 L17 22.2583 Z" clip-path="url(#clipPath10)" stroke="none"/>
            <path fill="none" d="M4 22.2583 L10.5 11 L17 22.2583 Z" clip-path="url(#clipPath10)"/>
        </g>
    </g>
</svg>
