<?xml version="1.0" encoding="UTF-8"?><!DOCTYPE svg PUBLIC '-//W3C//DTD SVG 1.0//EN'
        'http://www.w3.org/TR/2001/REC-SVG-20010904/DTD/svg10.dtd'>
<svg fill-opacity="1" color-rendering="auto" color-interpolation="auto" text-rendering="auto" stroke="black" stroke-linecap="square" width="1120" stroke-miterlimit="10" shape-rendering="auto" stroke-opacity="1" fill="black" stroke-dasharray="none" font-weight="normal" stroke-width="1" viewBox="60 90 1120 730" height="730" xmlns="http://www.w3.org/2000/svg" font-family="'Dialog'" font-style="normal" stroke-linejoin="miter" font-size="12px" stroke-dashoffset="0" image-rendering="auto"><!--Generated by the Batik Graphics2D SVG Generator-->
    <defs id="genericDefs"/>
    <g>
        <defs id="defs1">
            <clipPath clipPathUnits="userSpaceOnUse" id="clipPath1">
                <path d="M0 0 L2147483647 0 L2147483647 2147483647 L0 2147483647 L0 0 Z"/>
            </clipPath>
            <clipPath clipPathUnits="userSpaceOnUse" id="clipPath2">
                <path d="M0 0 L0 690 L1080 690 L1080 0 Z"/>
            </clipPath>
            <clipPath clipPathUnits="userSpaceOnUse" id="clipPath3">
                <path d="M0 0 L0 20 L20 20 L20 0 Z"/>
            </clipPath>
            <clipPath clipPathUnits="userSpaceOnUse" id="clipPath4">
                <path d="M0 0 L0 20 L80 20 L80 0 Z"/>
            </clipPath>
            <clipPath clipPathUnits="userSpaceOnUse" id="clipPath5">
                <path d="M0 0 L0 30 L140 30 L140 0 Z"/>
            </clipPath>
            <clipPath clipPathUnits="userSpaceOnUse" id="clipPath6">
                <path d="M0 0 L0 60 L190 60 L190 0 Z"/>
            </clipPath>
            <clipPath clipPathUnits="userSpaceOnUse" id="clipPath7">
                <path d="M0 0 L0 30 L150 30 L150 0 Z"/>
            </clipPath>
            <clipPath clipPathUnits="userSpaceOnUse" id="clipPath8">
                <path d="M0 0 L0 90 L60 90 L60 0 Z"/>
            </clipPath>
            <clipPath clipPathUnits="userSpaceOnUse" id="clipPath9">
                <path d="M0 0 L0 80 L100 80 L100 0 Z"/>
            </clipPath>
            <clipPath clipPathUnits="userSpaceOnUse" id="clipPath10">
                <path d="M0 0 L0 40 L100 40 L100 0 Z"/>
            </clipPath>
            <clipPath clipPathUnits="userSpaceOnUse" id="clipPath11">
                <path d="M0 0 L0 100 L150 100 L150 0 Z"/>
            </clipPath>
            <clipPath clipPathUnits="userSpaceOnUse" id="clipPath12">
                <path d="M0 0 L0 40 L270 40 L270 0 Z"/>
            </clipPath>
            <clipPath clipPathUnits="userSpaceOnUse" id="clipPath13">
                <path d="M0 0 L0 180 L80 180 L80 0 Z"/>
            </clipPath>
            <clipPath clipPathUnits="userSpaceOnUse" id="clipPath14">
                <path d="M0 0 L0 330 L60 330 L60 0 Z"/>
            </clipPath>
            <clipPath clipPathUnits="userSpaceOnUse" id="clipPath15">
                <path d="M0 0 L0 160 L30 160 L30 0 Z"/>
            </clipPath>
            <clipPath clipPathUnits="userSpaceOnUse" id="clipPath16">
                <path d="M0 0 L0 40 L110 40 L110 0 Z"/>
            </clipPath>
            <clipPath clipPathUnits="userSpaceOnUse" id="clipPath17">
                <path d="M0 0 L0 600 L740 600 L740 0 Z"/>
            </clipPath>
            <clipPath clipPathUnits="userSpaceOnUse" id="clipPath18">
                <path d="M0 0 L0 60 L30 60 L30 0 Z"/>
            </clipPath>
        </defs>
        <g fill="white" transform="translate(80,110)" stroke="white">
            <rect x="0.5" width="1078.5" height="688.5" y="0.5" clip-path="url(#clipPath2)" stroke="none"/>
            <rect fill="none" x="0.5" width="1078.5" height="688.5" y="0.5" clip-path="url(#clipPath2)"/>
        </g>
        <g fill="rgb(21,101,192)" transform="translate(970,330)" stroke="rgb(21,101,192)">
            <rect x="0.5" width="18.5" height="18.5" y="0.5" clip-path="url(#clipPath3)" stroke="none"/>
            <rect x="0.5" y="0.5" clip-path="url(#clipPath3)" fill="none" width="18.5" height="18.5" stroke="black"/>
        </g>
        <g fill="rgb(21,101,192)" transform="translate(970,270)" stroke="rgb(21,101,192)">
            <rect x="0.5" width="18.5" height="18.5" y="0.5" clip-path="url(#clipPath3)" stroke="none"/>
            <rect x="0.5" y="0.5" clip-path="url(#clipPath3)" fill="none" width="18.5" height="18.5" stroke="black"/>
        </g>
        <g fill="rgb(60,122,0)" transform="translate(580,330)" stroke="rgb(60,122,0)">
            <rect x="0.5" width="18.5" height="18.5" y="0.5" clip-path="url(#clipPath3)" stroke="none"/>
            <rect x="0.5" y="0.5" clip-path="url(#clipPath3)" fill="none" width="18.5" height="18.5" stroke="black"/>
        </g>
        <g fill="rgb(60,122,0)" transform="translate(580,270)" stroke="rgb(60,122,0)">
            <rect x="0.5" width="18.5" height="18.5" y="0.5" clip-path="url(#clipPath3)" stroke="none"/>
            <rect x="0.5" y="0.5" clip-path="url(#clipPath3)" fill="none" width="18.5" height="18.5" stroke="black"/>
        </g>
        <g fill="rgb(60,122,0)" transform="translate(580,210)" stroke="rgb(60,122,0)">
            <rect x="0.5" width="18.5" height="18.5" y="0.5" clip-path="url(#clipPath3)" stroke="none"/>
            <rect x="0.5" y="0.5" clip-path="url(#clipPath3)" fill="none" width="18.5" height="18.5" stroke="black"/>
        </g>
        <g fill="rgb(255,165,0)" transform="translate(600,210)" stroke="rgb(255,165,0)">
            <rect x="0.5" width="18.5" height="18.5" y="0.5" clip-path="url(#clipPath3)" stroke="none"/>
            <rect x="0.5" y="0.5" clip-path="url(#clipPath3)" fill="none" width="18.5" height="18.5" stroke="black"/>
        </g>
        <g fill="rgb(255,165,0)" transform="translate(600,270)" stroke="rgb(255,165,0)">
            <rect x="0.5" width="18.5" height="18.5" y="0.5" clip-path="url(#clipPath3)" stroke="none"/>
            <rect x="0.5" y="0.5" clip-path="url(#clipPath3)" fill="none" width="18.5" height="18.5" stroke="black"/>
        </g>
        <g fill="rgb(255,165,0)" transform="translate(600,390)" stroke="rgb(255,165,0)">
            <rect x="0.5" width="18.5" height="18.5" y="0.5" clip-path="url(#clipPath3)" stroke="none"/>
            <rect x="0.5" y="0.5" clip-path="url(#clipPath3)" fill="none" width="18.5" height="18.5" stroke="black"/>
        </g>
        <g fill="rgb(255,165,0)" transform="translate(600,330)" stroke="rgb(255,165,0)">
            <rect x="0.5" width="18.5" height="18.5" y="0.5" clip-path="url(#clipPath3)" stroke="none"/>
            <rect x="0.5" y="0.5" clip-path="url(#clipPath3)" fill="none" width="18.5" height="18.5" stroke="black"/>
        </g>
        <g fill="rgb(255,165,0)" transform="translate(990,270)" stroke="rgb(255,165,0)">
            <rect x="0.5" width="18.5" height="18.5" y="0.5" clip-path="url(#clipPath3)" stroke="none"/>
            <rect x="0.5" y="0.5" clip-path="url(#clipPath3)" fill="none" width="18.5" height="18.5" stroke="black"/>
        </g>
        <g fill="rgb(255,165,0)" transform="translate(990,330)" stroke="rgb(255,165,0)">
            <rect x="0.5" width="18.5" height="18.5" y="0.5" clip-path="url(#clipPath3)" stroke="none"/>
            <rect x="0.5" y="0.5" clip-path="url(#clipPath3)" fill="none" width="18.5" height="18.5" stroke="black"/>
        </g>
        <g fill="rgb(255,165,0)" transform="translate(990,390)" stroke="rgb(255,165,0)">
            <rect x="0.5" width="18.5" height="18.5" y="0.5" clip-path="url(#clipPath3)" stroke="none"/>
            <rect x="0.5" y="0.5" clip-path="url(#clipPath3)" fill="none" width="18.5" height="18.5" stroke="black"/>
        </g>
        <g fill="rgb(21,101,192)" transform="translate(970,390)" stroke="rgb(21,101,192)">
            <rect x="0.5" width="18.5" height="18.5" y="0.5" clip-path="url(#clipPath3)" stroke="none"/>
            <rect x="0.5" y="0.5" clip-path="url(#clipPath3)" fill="none" width="18.5" height="18.5" stroke="black"/>
        </g>
        <g fill="rgb(21,101,192)" transform="translate(580,390)" stroke="rgb(21,101,192)">
            <rect x="0.5" width="18.5" height="18.5" y="0.5" clip-path="url(#clipPath3)" stroke="none"/>
            <rect x="0.5" y="0.5" clip-path="url(#clipPath3)" fill="none" width="18.5" height="18.5" stroke="black"/>
        </g>
        <g fill="rgb(85,85,85)" transform="translate(990,210)" stroke="rgb(85,85,85)">
            <rect x="0.5" width="18.5" height="18.5" y="0.5" clip-path="url(#clipPath3)" stroke="none"/>
            <rect x="0.5" y="0.5" clip-path="url(#clipPath3)" fill="none" width="18.5" height="18.5" stroke="black"/>
        </g>
        <g fill="rgb(255,165,0)" transform="translate(520,480)" stroke="rgb(255,165,0)">
            <rect x="0.5" width="18.5" height="18.5" y="0.5" clip-path="url(#clipPath3)" stroke="none"/>
            <rect x="0.5" y="0.5" clip-path="url(#clipPath3)" fill="none" width="18.5" height="18.5" stroke="black"/>
        </g>
        <g fill="rgb(255,165,0)" transform="translate(520,540)" stroke="rgb(255,165,0)">
            <rect x="0.5" width="18.5" height="18.5" y="0.5" clip-path="url(#clipPath3)" stroke="none"/>
            <rect x="0.5" y="0.5" clip-path="url(#clipPath3)" fill="none" width="18.5" height="18.5" stroke="black"/>
        </g>
        <g fill="rgb(85,85,85)" transform="translate(520,590)" stroke="rgb(85,85,85)">
            <rect x="0.5" width="18.5" height="18.5" y="0.5" clip-path="url(#clipPath3)" stroke="none"/>
            <rect x="0.5" y="0.5" clip-path="url(#clipPath3)" fill="none" width="18.5" height="18.5" stroke="black"/>
        </g>
        <g font-family="sans-serif" font-size="14px" transform="translate(150,220)">
            <text x="5" xml:space="preserve" y="18.1094" clip-path="url(#clipPath4)" stroke="none"
      >FINAL</text
    >
        </g>
        <g fill="rgb(85,85,85)" transform="translate(130,220)" stroke="rgb(85,85,85)">
            <rect x="0.5" width="18.5" height="18.5" y="0.5" clip-path="url(#clipPath3)" stroke="none"/>
            <rect x="0.5" y="0.5" clip-path="url(#clipPath3)" fill="none" width="18.5" height="18.5" stroke="black"/>
        </g>
        <g font-family="sans-serif" font-size="14px" transform="translate(150,160)">
            <text x="5" xml:space="preserve" y="18.1094" clip-path="url(#clipPath4)" stroke="none"
      >OPENING</text
    >
        </g>
        <g fill="rgb(60,122,0)" transform="translate(130,160)" stroke="rgb(60,122,0)">
            <rect x="0.5" width="18.5" height="18.5" y="0.5" clip-path="url(#clipPath3)" stroke="none"/>
            <rect x="0.5" y="0.5" clip-path="url(#clipPath3)" fill="none" width="18.5" height="18.5" stroke="black"/>
        </g>
        <g font-family="sans-serif" font-size="14px" transform="translate(150,200)">
            <text x="5" xml:space="preserve" y="18.1094" clip-path="url(#clipPath4)" stroke="none"
      >LATENT</text
    >
        </g>
        <g fill="rgb(255,165,0)" transform="translate(130,200)" stroke="rgb(255,165,0)">
            <rect x="0.5" width="18.5" height="18.5" y="0.5" clip-path="url(#clipPath3)" stroke="none"/>
            <rect x="0.5" y="0.5" clip-path="url(#clipPath3)" fill="none" width="18.5" height="18.5" stroke="black"/>
        </g>
        <g fill="rgb(21,101,192)" transform="translate(130,180)" stroke="rgb(21,101,192)">
            <rect x="0.5" width="18.5" height="18.5" y="0.5" clip-path="url(#clipPath3)" stroke="none"/>
            <rect x="0.5" y="0.5" clip-path="url(#clipPath3)" fill="none" width="18.5" height="18.5" stroke="black"/>
        </g>
        <g fill="rgb(255,255,255)" fill-opacity="0" transform="translate(400,600)" stroke-opacity="0" stroke="rgb(255,255,255)">
            <rect x="0.5" y="0.5" clip-path="url(#clipPath5)" width="138.5" rx="6" ry="6" height="28.5" stroke="none"/>
        </g>
        <g transform="translate(400,600)">
            <rect x="0.5" y="0.5" clip-path="url(#clipPath5)" fill="none" width="138.5" rx="6" ry="6" height="28.5"/>
            <text x="0" font-size="14px" y="20.0547" clip-path="url(#clipPath5)" font-family="sans-serif" stroke="none" xml:space="preserve">CANCEL_EXECUTED</text>
        </g>
        <g fill="rgb(255,255,255)" fill-opacity="0" transform="translate(400,550)" stroke-opacity="0" stroke="rgb(255,255,255)">
            <rect x="0.5" y="0.5" clip-path="url(#clipPath5)" width="138.5" rx="6" ry="6" height="28.5" stroke="none"/>
        </g>
        <g transform="translate(400,550)">
            <rect x="0.5" y="0.5" clip-path="url(#clipPath5)" fill="none" width="138.5" rx="6" ry="6" height="28.5"/>
            <text x="6" font-size="14px" y="20.0547" clip-path="url(#clipPath5)" font-family="sans-serif" stroke="none" xml:space="preserve">CANCEL_PENDING</text>
        </g>
        <g font-family="sans-serif" font-size="14px" transform="translate(150,180)">
            <text x="5" xml:space="preserve" y="18.1094" clip-path="url(#clipPath4)" stroke="none"
      >ACTIVE</text
    >
        </g>
        <g font-size="14px" font-weight="bold" font-family="sans-serif" transform="translate(660,170)">
            <text x="5" xml:space="preserve" y="18.1094" clip-path="url(#clipPath6)" stroke="none"
      >Application Loop</text
      >
            <text x="5" xml:space="preserve" y="34.2188" clip-path="url(#clipPath6)" stroke="none">(place sell orders)</text>
        </g>
        <g fill="rgb(255,255,255)" fill-opacity="0" transform="translate(400,490)" stroke-opacity="0" stroke="rgb(255,255,255)">
            <rect x="0.5" y="0.5" clip-path="url(#clipPath5)" width="138.5" rx="6" ry="6" height="28.5" stroke="none"/>
        </g>
        <g transform="translate(400,490)">
            <rect x="0.5" y="0.5" clip-path="url(#clipPath5)" fill="none" width="138.5" rx="6" ry="6" height="28.5"/>
            <text x="12" font-size="14px" y="20.0547" clip-path="url(#clipPath5)" font-family="sans-serif" stroke="none" xml:space="preserve">CANCEL_ISSUED</text>
        </g>
        <g fill="rgb(255,255,255)" fill-opacity="0" transform="translate(860,220)" stroke-opacity="0" stroke="rgb(255,255,255)">
            <rect x="0.5" y="0.5" clip-path="url(#clipPath7)" width="148.5" rx="6" ry="6" height="28.5" stroke="none"/>
        </g>
        <g transform="translate(860,220)">
            <rect x="0.5" y="0.5" clip-path="url(#clipPath7)" fill="none" width="148.5" rx="6" ry="6" height="28.5"/>
            <text x="10" font-size="14px" y="20.0547" clip-path="url(#clipPath7)" font-family="sans-serif" stroke="none" xml:space="preserve">CLOSE_EXECUTED</text>
        </g>
        <g fill="rgb(255,255,255)" fill-opacity="0" transform="translate(860,280)" stroke-opacity="0" stroke="rgb(255,255,255)">
            <rect x="0.5" y="0.5" clip-path="url(#clipPath7)" width="148.5" rx="6" ry="6" height="28.5" stroke="none"/>
        </g>
        <g transform="translate(860,280)">
            <rect x="0.5" y="0.5" clip-path="url(#clipPath7)" fill="none" width="148.5" rx="6" ry="6" height="28.5"/>
            <text x="16" font-size="14px" y="20.0547" clip-path="url(#clipPath7)" font-family="sans-serif" stroke="none" xml:space="preserve">CLOSE_PENDING</text>
        </g>
        <g fill="rgb(255,255,255)" fill-opacity="0" transform="translate(860,340)" stroke-opacity="0" stroke="rgb(255,255,255)">
            <rect x="0.5" y="0.5" clip-path="url(#clipPath7)" width="148.5" rx="6" ry="6" height="28.5" stroke="none"/>
        </g>
        <g transform="translate(860,340)">
            <rect x="0.5" y="0.5" clip-path="url(#clipPath7)" fill="none" width="148.5" rx="6" ry="6" height="28.5"/>
            <text x="22" font-size="14px" y="20.0547" clip-path="url(#clipPath7)" font-family="sans-serif" stroke="none" xml:space="preserve">CLOSE_ISSUED</text>
        </g>
        <g fill="rgb(255,255,255)" fill-opacity="0" transform="translate(860,400)" stroke-opacity="0" stroke="rgb(255,255,255)">
            <rect x="0.5" y="0.5" clip-path="url(#clipPath7)" width="148.5" rx="6" ry="6" height="28.5" stroke="none"/>
        </g>
        <g transform="translate(860,400)">
            <rect x="0.5" y="0.5" clip-path="url(#clipPath7)" fill="none" width="148.5" rx="6" ry="6" height="28.5"/>
            <text x="11" font-size="14px" y="20.0547" clip-path="url(#clipPath7)" font-family="sans-serif" stroke="none" xml:space="preserve">CLOSE_PREPARED</text>
        </g>
        <g fill="rgb(255,255,255)" fill-opacity="0" transform="translate(470,400)" stroke-opacity="0" stroke="rgb(255,255,255)">
            <rect x="0.5" y="0.5" clip-path="url(#clipPath7)" width="148.5" rx="6" ry="6" height="28.5" stroke="none"/>
        </g>
        <g transform="translate(470,400)">
            <rect x="0.5" y="0.5" clip-path="url(#clipPath7)" fill="none" width="148.5" rx="6" ry="6" height="28.5"/>
            <text x="14" font-size="14px" y="20.0547" clip-path="url(#clipPath7)" font-family="sans-serif" stroke="none" xml:space="preserve">OPEN_EXECUTED</text>
        </g>
        <g fill="rgb(255,255,255)" fill-opacity="0" transform="translate(470,340)" stroke-opacity="0" stroke="rgb(255,255,255)">
            <rect x="0.5" y="0.5" clip-path="url(#clipPath7)" width="148.5" rx="6" ry="6" height="28.5" stroke="none"/>
        </g>
        <g transform="translate(470,340)">
            <rect x="0.5" y="0.5" clip-path="url(#clipPath7)" fill="none" width="148.5" rx="6" ry="6" height="28.5"/>
            <text x="20" font-size="14px" y="20.0547" clip-path="url(#clipPath7)" font-family="sans-serif" stroke="none" xml:space="preserve">OPEN_PENDING</text>
        </g>
        <g fill="rgb(255,255,255)" fill-opacity="0" transform="translate(470,280)" stroke-opacity="0" stroke="rgb(255,255,255)">
            <rect x="0.5" y="0.5" clip-path="url(#clipPath7)" width="148.5" rx="6" ry="6" height="28.5" stroke="none"/>
        </g>
        <g transform="translate(470,280)">
            <rect x="0.5" y="0.5" clip-path="url(#clipPath7)" fill="none" width="148.5" rx="6" ry="6" height="28.5"/>
            <text x="26" font-size="14px" y="20.0547" clip-path="url(#clipPath7)" font-family="sans-serif" stroke="none" xml:space="preserve">OPEN_ISSUED</text>
        </g>
        <g fill="rgb(255,255,255)" fill-opacity="0" transform="translate(470,220)" stroke-opacity="0" stroke="rgb(255,255,255)">
            <rect x="0.5" y="0.5" clip-path="url(#clipPath7)" width="148.5" rx="6" ry="6" height="28.5" stroke="none"/>
        </g>
        <g transform="translate(470,220)">
            <rect x="0.5" y="0.5" clip-path="url(#clipPath7)" fill="none" width="148.5" rx="6" ry="6" height="28.5"/>
            <text x="14" font-size="14px" y="20.0547" clip-path="url(#clipPath7)" font-family="sans-serif" stroke="none" xml:space="preserve">OPEN_PREPARED</text>
        </g>
        <g fill="blue" stroke-width="2" transform="translate(530,150)" stroke="blue">
            <path fill="none" d="M10.5 70.5 L10.5 10.5" clip-path="url(#clipPath8)"/>
            <path fill="none" d="M17 59.2417 L10.5 70.5 L4 59.2417" clip-path="url(#clipPath8)"/>
            <text x="14" font-size="14px" y="48.0547" clip-path="url(#clipPath8)" font-family="sans-serif" stroke="none" xml:space="preserve">BUY</text>
        </g>
        <g fill="red" stroke-width="2" transform="translate(980,180)" stroke="red">
            <path fill="none" d="M10.5 10.5 L40.5 50.5" clip-path="url(#clipPath9)"/>
            <path fill="none" d="M12.055 23.4067 L10.5 10.5 L22.455 15.6067" clip-path="url(#clipPath9)"/>
            <text x="29" font-size="14px" y="13.8906" clip-path="url(#clipPath9)" font-family="sans-serif" stroke="none" xml:space="preserve">IGNORE</text>
        </g>
        <g fill="red" stroke-width="2" transform="translate(1010,210)" stroke="red">
            <path fill="none" d="M10.5 20.5 L80.5 20.5" clip-path="url(#clipPath10)"/>
            <path fill="none" d="M21.7583 27 L10.5 20.5 L21.7583 14" clip-path="url(#clipPath10)"/>
            <text x="28.8354" font-size="14px" y="16" clip-path="url(#clipPath10)" font-family="sans-serif" stroke="none" xml:space="preserve">SELL</text>
        </g>
        <g fill="red" stroke-width="2" transform="translate(920,400)" stroke="red">
            <path fill="none" d="M10.5 30.5 L10.5 70.5" clip-path="url(#clipPath11)"/>
            <path fill="none" d="M10.5 70.5 L130.5 70.5" clip-path="url(#clipPath11)"/>
            <path fill="none" d="M130.5 70.5 L130.5 10.5" clip-path="url(#clipPath11)"/>
            <path fill="none" d="M130.5 10.5 L100.5 10.5" clip-path="url(#clipPath11)"/>
            <path fill="none" d="M4 41.7583 L10.5 30.5 L17 41.7583" clip-path="url(#clipPath11)"/>
            <text x="34.6309" font-size="14px" y="66" clip-path="url(#clipPath11)" font-family="sans-serif" stroke="none" xml:space="preserve">RESUBMIT</text>
            <text x="11.9014" font-size="14px" y="82.1094" clip-path="url(#clipPath11)" font-family="sans-serif" stroke="none" xml:space="preserve">(with lower limit)</text>
        </g>
        <g fill="red" stroke-width="2" transform="translate(610,390)" stroke="red">
            <path fill="none" d="M250.5 20.5 L10.5 20.5" clip-path="url(#clipPath12)"/>
            <path fill="none" d="M239.2417 14 L250.5 20.5 L239.2417 27" clip-path="url(#clipPath12)"/>
            <text x="113.8354" font-size="14px" y="16" clip-path="url(#clipPath12)" font-family="sans-serif" stroke="none" xml:space="preserve">SELL</text>
        </g>
        <g fill="red" stroke-width="2" transform="translate(400,330)" stroke="red">
            <path fill="none" d="M10.5 160.5 L10.5 10.5" clip-path="url(#clipPath13)"/>
            <path fill="none" d="M10.5 10.5 L60.5 10.5" clip-path="url(#clipPath13)"/>
            <path fill="none" d="M17 149.2417 L10.5 160.5 L4 149.2417" clip-path="url(#clipPath13)"/>
            <text x="14" font-size="14px" y="133.3281" clip-path="url(#clipPath13)" font-family="sans-serif" stroke="none" xml:space="preserve">CANCEL</text>
        </g>
        <g fill="red" stroke-width="2" transform="translate(580,420)" stroke="red">
            <path fill="none" d="M10.5 10.5 L10.5 310.5" clip-path="url(#clipPath14)"/>
            <path fill="none" d="M4 21.7583 L10.5 10.5 L17 21.7583" clip-path="url(#clipPath14)"/>
            <text x="14" font-size="14px" y="168.0547" clip-path="url(#clipPath14)" font-family="sans-serif" stroke="none" xml:space="preserve">SELL</text>
        </g>
        <g fill="red" stroke-width="4" transform="translate(450,220)" stroke="red">
            <path fill="none" d="M10.5 10.5 L10.5 140.5" clip-path="url(#clipPath15)"/>
        </g>
        <g fill="red" stroke-width="4" transform="translate(1010,280)" stroke="red">
            <path fill="none" d="M10.5 10.5 L10.5 140.5" clip-path="url(#clipPath15)"/>
        </g>
        <g fill="red" stroke-width="2" transform="translate(1010,280)" stroke="red">
            <path fill="none" d="M10.5 20.5 L80.5 20.5" clip-path="url(#clipPath10)"/>
            <path fill="none" d="M21.7583 27 L10.5 20.5 L21.7583 14" clip-path="url(#clipPath10)"/>
            <text x="28.8354" font-size="14px" y="16" clip-path="url(#clipPath10)" font-family="sans-serif" stroke="none" xml:space="preserve">SELL</text>
        </g>
        <g fill="red" stroke-width="2" transform="translate(370,220)" stroke="red">
            <path fill="none" d="M90.5 20.5 L10.5 20.5" clip-path="url(#clipPath16)"/>
            <path fill="none" d="M79.2417 14 L90.5 20.5 L79.2417 27" clip-path="url(#clipPath16)"/>
            <text x="22.3081" font-size="14px" y="16" clip-path="url(#clipPath16)" font-family="sans-serif" stroke="none" xml:space="preserve">CANCEL</text>
        </g>
        <g stroke-miterlimit="5" stroke-dasharray="8,5" stroke-width="5" transform="translate(370,150)" stroke-linecap="butt">
            <path fill="none" d="M370.5 10.5 L720.5 10.5" clip-path="url(#clipPath17)"/>
            <path fill="none" d="M720.5 10.5 L720.5 580.5" clip-path="url(#clipPath17)"/>
            <path fill="none" d="M720.5 580.5 L10.5 580.5" clip-path="url(#clipPath17)"/>
            <path fill="none" d="M10.5 580.5 L10.5 10.5" clip-path="url(#clipPath17)"/>
            <path fill="none" d="M10.5 10.5 L350.5 10.5" clip-path="url(#clipPath17)"/>
            <path fill="none" stroke-miterlimit="10" stroke-dasharray="none" d="M339.2417 17 L350.5 10.5 L339.2417 4" clip-path="url(#clipPath17)" stroke-linecap="square"/>
        </g>
        <g fill="red" stroke-miterlimit="5" stroke-dasharray="8,5" transform="translate(920,240)" stroke-linecap="butt" stroke="red">
            <path fill="none" d="M10.5 10.5 L10.5 40.5" clip-path="url(#clipPath18)"/>
            <path fill="none" stroke-miterlimit="10" stroke-dasharray="none" d="M4 21.7583 L10.5 10.5 L17 21.7583" clip-path="url(#clipPath18)" stroke-linecap="square"/>
        </g>
        <g fill="red" stroke-miterlimit="5" stroke-dasharray="8,5" transform="translate(920,300)" stroke-linecap="butt" stroke="red">
            <path fill="none" d="M10.5 10.5 L10.5 40.5" clip-path="url(#clipPath18)"/>
            <path fill="none" stroke-miterlimit="10" stroke-dasharray="none" d="M4 21.7583 L10.5 10.5 L17 21.7583" clip-path="url(#clipPath18)" stroke-linecap="square"/>
        </g>
        <g fill="red" stroke-miterlimit="5" stroke-dasharray="8,5" transform="translate(920,360)" stroke-linecap="butt" stroke="red">
            <path fill="none" d="M10.5 10.5 L10.5 40.5" clip-path="url(#clipPath18)"/>
            <path fill="none" stroke-miterlimit="10" stroke-dasharray="none" d="M4 21.7583 L10.5 10.5 L17 21.7583" clip-path="url(#clipPath18)" stroke-linecap="square"/>
        </g>
        <g fill="blue" stroke-miterlimit="5" stroke-dasharray="8,5" transform="translate(530,360)" stroke-linecap="butt" stroke="blue">
            <path fill="none" d="M10.5 40.5 L10.5 10.5" clip-path="url(#clipPath18)"/>
            <path fill="none" stroke-miterlimit="10" stroke-dasharray="none" d="M17 29.2417 L10.5 40.5 L4 29.2417" clip-path="url(#clipPath18)" stroke-linecap="square"/>
        </g>
        <g fill="blue" stroke-miterlimit="5" stroke-dasharray="8,5" transform="translate(530,300)" stroke-linecap="butt" stroke="blue">
            <path fill="none" d="M10.5 40.5 L10.5 10.5" clip-path="url(#clipPath18)"/>
            <path fill="none" stroke-miterlimit="10" stroke-dasharray="none" d="M17 29.2417 L10.5 40.5 L4 29.2417" clip-path="url(#clipPath18)" stroke-linecap="square"/>
        </g>
        <g fill="blue" stroke-miterlimit="5" stroke-dasharray="8,5" transform="translate(530,240)" stroke-linecap="butt" stroke="blue">
            <path fill="none" d="M10.5 40.5 L10.5 10.5" clip-path="url(#clipPath18)"/>
            <path fill="none" stroke-miterlimit="10" stroke-dasharray="none" d="M17 29.2417 L10.5 40.5 L4 29.2417" clip-path="url(#clipPath18)" stroke-linecap="square"/>
        </g>
    </g>
</svg>
